<svg width="27" height="27" viewBox="0 0 27 27" fill="none" xmlns="http://www.w3.org/2000/svg">
<path d="M13.5 18.5C16.2614 18.5 18.5 16.2614 18.5 13.5C18.5 10.7386 16.2614 8.5 13.5 8.5C10.7386 8.5 8.5 10.7386 8.5 13.5C8.5 16.2614 10.7386 18.5 13.5 18.5Z" stroke="#D95353" stroke-width="2" stroke-linecap="round" stroke-linejoin="round"/>
<path d="M18.5 8.49922V14.7492C18.5 15.7438 18.8951 16.6976 19.5984 17.4009C20.3016 18.1041 21.2554 18.4992 22.25 18.4992C23.2446 18.4992 24.1984 18.1041 24.9017 17.4009C25.6049 16.6976 26 15.7438 26 14.7492V13.4992C25.9998 10.678 25.0453 7.93982 23.2916 5.72989C21.5379 3.51995 19.0882 1.96826 16.3408 1.3271C13.5934 0.685937 10.7099 0.993026 8.15919 2.19843C5.60846 3.40384 3.54051 5.43667 2.29158 7.96637C1.04266 10.4961 0.686219 13.3739 1.28022 16.1319C1.87422 18.8898 3.38373 21.3658 5.5633 23.157C7.74286 24.9483 10.4643 25.9496 13.2851 25.9982C16.1059 26.0467 18.8601 25.1395 21.1 23.4242" stroke="#D95353" stroke-width="2" stroke-linecap="round" stroke-linejoin="round"/>
</svg>
