<svg width="42" height="42" viewBox="0 0 42 42" fill="none" xmlns="http://www.w3.org/2000/svg">
<g id="IN">
<circle id="Ellipse 6" cx="21" cy="21" r="20.5" fill="white" stroke="#E9ECF2"/>
<g id="Group 306">
<path id="Vector" d="M17.1338 28H14.2313V18.6529H17.1338V28ZM15.681 17.3779C14.7528 17.3779 14 16.6091 14 15.681C14 15.2352 14.1771 14.8076 14.4923 14.4923C14.8076 14.1771 15.2352 14 15.681 14C16.1268 14 16.5544 14.1771 16.8696 14.4923C17.1848 14.8076 17.3619 15.2352 17.3619 15.681C17.3619 16.6091 16.6088 17.3779 15.681 17.3779ZM27.9972 28H25.1009V23.4499C25.1009 22.3655 25.079 20.9748 23.5918 20.9748C22.0827 20.9748 21.8514 22.153 21.8514 23.3718V28H18.952V18.6529H21.7358V19.9279H21.7764C22.1639 19.1936 23.1105 18.4185 24.5227 18.4185C27.4603 18.4185 28.0003 20.353 28.0003 22.8655V28H27.9972Z" fill="#FF6A55"/>
</g>
</g>
</svg>
