<svg width="33" height="32" viewBox="0 0 33 32" fill="none" xmlns="http://www.w3.org/2000/svg">
<path d="M17.672 13.5132C18.116 13.0118 18.48 12.5064 18.936 12.0772C20.336 10.7536 21.992 10.0877 23.928 10.1038C24.992 10.1118 26.04 10.188 27.064 10.4848C29.408 11.1627 30.768 12.7832 31.42 15.0775C31.908 16.7982 31.996 18.5671 32 20.3399C32.008 24.0782 31.988 27.8205 32 31.5588C32 31.9077 31.904 32 31.56 32C29.64 31.984 27.716 31.984 25.796 32C25.456 32 25.384 31.8997 25.384 31.5788C25.396 28.0211 25.396 24.4633 25.384 20.9015C25.384 20.011 25.324 19.1166 25.076 18.2502C24.616 16.6538 23.476 15.8396 21.808 15.9278C19.528 16.0481 18.344 17.1792 18.056 19.5016C17.988 20.0552 17.952 20.6127 17.956 21.1702C17.956 24.6317 17.956 28.0933 17.964 31.5548C17.964 31.8997 17.88 32 17.528 32C15.592 31.984 13.656 31.984 11.72 32C11.408 32 11.32 31.9198 11.32 31.6029C11.328 24.7521 11.328 17.8972 11.32 11.0464C11.32 10.7054 11.432 10.6292 11.752 10.6292C13.588 10.6413 15.428 10.6453 17.264 10.6292C17.604 10.6292 17.688 10.7375 17.684 11.0584C17.664 11.8767 17.676 12.6949 17.676 13.5172L17.672 13.5132Z" fill="#5DA293"/>
<path d="M7.144 21.3427C7.144 24.732 7.14 28.1213 7.152 31.5107C7.152 31.8877 7.06 32 6.672 31.996C4.752 31.9759 2.832 31.9799 0.908 31.996C0.6 31.996 0.508 31.9198 0.508 31.6029C0.516 24.74 0.516 17.8772 0.508 11.0103C0.508 10.7255 0.576 10.6252 0.876 10.6252C2.824 10.6373 4.772 10.6413 6.72 10.6252C7.096 10.6252 7.144 10.7656 7.144 11.0905C7.136 14.5079 7.14 17.9253 7.14 21.3427H7.144Z" fill="#5DA293"/>
<path d="M7.67203 3.82652C7.67203 5.95638 5.95203 7.68915 3.83203 7.68915C1.74403 7.69316 0.00802754 5.95638 2.75394e-05 3.86262C-0.00797246 1.74079 1.72803 0 3.84403 0C5.94403 0 7.67203 1.72875 7.67603 3.82652H7.67203Z" fill="#5DA293"/>
</svg>