<svg width="42" height="42" viewBox="0 0 42 42" fill="none" xmlns="http://www.w3.org/2000/svg">
<g id="TW">
<circle id="Ellipse 4" cx="21" cy="21" r="20.5" fill="white" stroke="#E9ECF2"/>
<g id="Group 304">
<path id="Vector" d="M29.1673 16.0846L27.4173 16.3921L28.584 14.8545L26.5423 15.4696C23.9173 12.3944 19.834 15.7771 21.0007 18.5447C16.334 18.5447 14.0007 14.8545 14.0007 14.8545C14.0007 14.8545 12.2507 17.6222 15.1673 19.7748L13.4173 19.1598C13.4173 21.0049 14.584 22.2349 16.6257 22.85H14.584C15.7507 25.3101 17.7923 25.3101 17.7923 25.3101C17.7923 25.3101 16.0423 26.8477 12.834 26.8477C22.459 31.768 28.2923 22.5425 27.4173 17.6222L29.1673 16.0846Z" fill="#20BFF7"/>
</g>
</g>
</svg>
