<svg width="42" height="42" viewBox="0 0 42 42" fill="none" xmlns="http://www.w3.org/2000/svg">
<g id="WA">
<circle id="Ellipse 5" cx="21" cy="21" r="20.5" fill="white" stroke="#E9ECF2"/>
<g id="Group 3513">
<path id="Subtract" fill-rule="evenodd" clip-rule="evenodd" d="M20.9986 12.833H21.0027C25.5056 12.833 29.1673 16.4968 29.1673 20.9997C29.1673 25.5026 25.5056 29.1663 21.0027 29.1663C19.3418 29.1663 17.8014 28.6723 16.51 27.8168L13.3709 28.8203L14.3887 25.7864C13.4097 24.4419 12.834 22.7861 12.834 20.9997C12.834 16.4958 16.4957 12.833 20.9986 12.833ZM24.152 25.518C24.7757 25.3833 25.5577 24.9218 25.7547 24.3655C25.9517 23.8081 25.9517 23.3334 25.8946 23.2324C25.8484 23.1522 25.7393 23.0996 25.5763 23.0212C25.5339 23.0007 25.4878 22.9786 25.4383 22.9537C25.1984 22.8342 24.0315 22.2575 23.811 22.1809C23.5946 22.0992 23.3884 22.1278 23.2251 22.3585C23.194 22.402 23.163 22.4456 23.1322 22.489C22.9351 22.7661 22.7451 23.0334 22.5871 23.2038C22.4431 23.3569 22.2083 23.3763 22.0113 23.2946C21.9898 23.2857 21.9652 23.2757 21.9376 23.2646C21.6257 23.1386 20.9338 22.8592 20.0962 22.1135C19.3898 21.4847 18.91 20.7017 18.7712 20.4669C18.6349 20.2314 18.7525 20.0933 18.8611 19.9656C18.8631 19.9633 18.8651 19.9609 18.8672 19.9585C18.9372 19.8719 19.0052 19.7997 19.0735 19.7271C19.1227 19.675 19.172 19.6226 19.2224 19.5645C19.2299 19.5559 19.2372 19.5475 19.2443 19.5394C19.3513 19.4163 19.415 19.343 19.4868 19.1899C19.5685 19.0316 19.5103 18.8683 19.4521 18.7478C19.4121 18.6635 19.1648 18.0635 18.9524 17.5483C18.8616 17.3279 18.7772 17.123 18.7181 16.9808C18.5599 16.602 18.4394 16.5878 18.1995 16.5775C18.1922 16.5772 18.1847 16.5768 18.1772 16.5764C18.1014 16.5726 18.0179 16.5684 17.9259 16.5684C17.6136 16.5684 17.2879 16.6602 17.0909 16.8613C17.084 16.8684 17.0768 16.8757 17.0694 16.8832C16.8173 17.1396 16.2559 17.7106 16.2559 18.8489C16.2559 19.9894 17.0651 21.0931 17.2148 21.2974C17.2189 21.303 17.2226 21.3079 17.2257 21.3122C17.2347 21.324 17.2516 21.3486 17.2764 21.3844C17.5821 21.8271 19.0711 23.9835 21.2916 24.9035C23.1679 25.6813 23.7253 25.6089 24.152 25.518Z" fill="#83BF6E"/>
</g>
</g>
</svg>
