<svg width="259" height="196" viewBox="0 0 259 196" fill="none" xmlns="http://www.w3.org/2000/svg">
<path d="M96.1249 125.164C101.336 125.164 106.429 123.619 110.762 120.724C115.095 117.829 118.472 113.715 120.466 108.9C122.46 104.086 122.982 98.7889 121.965 93.6782C120.948 88.5675 118.439 83.8731 114.755 80.1885C111.07 76.5039 106.375 73.9946 101.265 72.9781C96.1541 71.9615 90.8567 72.4832 86.0426 74.4773C81.2284 76.4714 77.1137 79.8483 74.2187 84.1809C71.3237 88.5135 69.7786 93.6073 69.7786 98.8181C69.7888 105.802 72.5679 112.498 77.5066 117.436C82.4452 122.375 89.1406 125.154 96.1249 125.164ZM96.1249 78.129C100.217 78.129 104.217 79.3424 107.619 81.6157C111.021 83.8891 113.673 87.1203 115.239 90.9007C116.805 94.6812 117.215 98.8411 116.416 102.854C115.618 106.868 113.648 110.554 110.754 113.448C107.861 116.341 104.174 118.311 100.161 119.11C96.1478 119.908 91.9879 119.498 88.2075 117.932C84.427 116.366 81.1958 113.715 78.9225 110.312C76.6491 106.91 75.4357 102.91 75.4357 98.8181C75.4439 93.3335 77.6262 88.0759 81.5044 84.1977C85.3826 80.3195 90.6403 78.1371 96.1249 78.129Z" fill="#B25780" style="fill:#B25780;fill:color(display-p3 0.6980 0.3412 0.5020);fill-opacity:1;"/>
<path d="M85.3764 101.652H93.2965V109.586C93.2965 110.336 93.5945 111.056 94.125 111.586C94.6554 112.117 95.3749 112.415 96.1251 112.415C96.8753 112.415 97.5947 112.117 98.1252 111.586C98.6557 111.056 98.9537 110.336 98.9537 109.586V101.652H106.89C107.64 101.652 108.36 101.354 108.89 100.823C109.42 100.293 109.718 99.5732 109.718 98.823C109.718 98.0728 109.42 97.3533 108.89 96.8229C108.36 96.2924 107.64 95.9944 106.89 95.9944H98.9537V88.0533C98.9537 87.3031 98.6557 86.5837 98.1252 86.0532C97.5947 85.5227 96.8753 85.2247 96.1251 85.2247C95.3749 85.2247 94.6554 85.5227 94.125 86.0532C93.5945 86.5837 93.2965 87.3031 93.2965 88.0533V95.9895H85.3764C84.6263 95.9895 83.9068 96.2876 83.3763 96.818C82.8459 97.3485 82.5479 98.0679 82.5479 98.8181C82.5479 99.5683 82.8459 100.288 83.3763 100.818C83.9068 101.349 84.6263 101.647 85.3764 101.647V101.652Z" fill="#B25780" style="fill:#B25780;fill:color(display-p3 0.6980 0.3412 0.5020);fill-opacity:1;"/>
<path d="M218.805 143.3H218.466C218.466 122.683 218.466 120.82 218.466 114.998C218.471 113.289 217.891 111.629 216.823 110.295C215.755 108.961 214.262 108.033 212.593 107.664L194.786 103.623C193.994 101.407 197.857 112.232 185.976 78.9566C185.02 76.275 183.258 73.9547 180.932 72.3135C178.605 70.6722 175.829 69.7904 172.982 69.7887H152.422V62.4343C152.419 59.5418 151.268 56.7687 149.223 54.7234C147.177 52.6781 144.404 51.5275 141.512 51.5241H128.468V48.0813C128.467 46.0823 127.674 44.165 126.262 42.75C124.85 41.335 122.935 40.5377 120.936 40.533H104.449V36.1688C104.449 33.9633 103.573 31.8481 102.013 30.2885C100.454 28.7289 98.3386 27.8528 96.133 27.8528C93.9275 27.8528 91.8122 28.7289 90.2527 30.2885C88.6931 31.8481 87.817 33.9633 87.817 36.1688V40.533H71.3303C69.3312 40.5372 67.4154 41.3344 66.0033 42.7495C64.5912 44.1646 63.7982 46.0821 63.7982 48.0813V51.5241H50.7543C47.8618 51.5275 45.0887 52.6781 43.0434 54.7234C40.998 56.7687 39.8475 59.5418 39.844 62.4343V143.332C38.5404 143.422 37.319 144.002 36.4255 144.955C35.5319 145.909 35.0324 147.165 35.0273 148.472V155.099C35.0273 156.471 35.5723 157.786 36.5423 158.756C37.5123 159.726 38.8279 160.271 40.1996 160.271H51.514C53.1656 164.095 55.9003 167.352 59.3808 169.64C62.8614 171.928 66.9355 173.147 71.1008 173.147C75.266 173.147 79.3402 171.928 82.8207 169.64C86.3013 167.352 89.036 164.095 90.6876 160.271H168.336C169.991 164.088 172.726 167.338 176.204 169.62C179.682 171.903 183.751 173.119 187.911 173.119C192.071 173.119 196.14 171.903 199.618 169.62C203.096 167.338 205.831 164.088 207.486 160.271H218.8C220.172 160.271 221.488 159.726 222.458 158.756C223.428 157.786 223.972 156.471 223.972 155.099V148.472C223.972 147.101 223.428 145.786 222.459 144.816C221.49 143.847 220.176 143.301 218.805 143.3ZM207.491 143.3C206.294 140.567 204.539 138.114 202.339 136.099H212.816V143.3H207.491ZM168.346 143.3H152.616V136.099H173.491C171.29 138.114 169.535 140.566 168.338 143.3H168.346ZM212.816 130.442H152.616V125.122H212.808L212.816 130.442ZM188.623 103.211H169.596C169.098 103.211 168.621 103.013 168.27 102.661C167.918 102.309 167.721 101.832 167.721 101.335V89.7214C167.721 89.2241 167.919 88.7473 168.27 88.3955C168.622 88.0437 169.098 87.8457 169.596 87.8448H183.139L188.623 103.211ZM172.982 75.4459C174.662 75.4469 176.3 75.9677 177.673 76.9369C179.045 77.906 180.084 79.276 180.646 80.859L181.12 82.1876H169.596C167.598 82.1902 165.684 82.9848 164.272 84.3971C162.86 85.8095 162.066 87.7242 162.063 89.7214V101.335C162.066 103.332 162.86 105.247 164.272 106.659C165.684 108.071 167.598 108.866 169.596 108.869H192.307L211.346 113.183C211.76 113.273 212.131 113.502 212.397 113.832C212.663 114.162 212.808 114.574 212.808 114.998V119.465H152.616V75.4459H172.982ZM93.4741 36.1688C93.4741 35.4637 93.7543 34.7874 94.2529 34.2887C94.7515 33.7901 95.4278 33.51 96.133 33.51C96.8382 33.51 97.5145 33.7901 98.0131 34.2887C98.5118 34.7874 98.7919 35.4637 98.7919 36.1688V40.533H93.4741V36.1688ZM69.4553 48.0813C69.4536 47.582 69.6501 47.1024 70.0016 46.7479C70.3532 46.3933 70.831 46.1927 71.3303 46.1901H120.936C121.435 46.1927 121.913 46.3933 122.264 46.7479C122.616 47.1024 122.812 47.582 122.811 48.0813V51.5241H69.4553V48.0813ZM50.7543 57.1812H141.512C142.904 57.183 144.24 57.737 145.224 58.7217C146.209 59.7065 146.763 61.0417 146.765 62.4343V143.3H90.6779C89.022 139.482 86.2863 136.232 82.8074 133.949C79.3284 131.666 75.258 130.449 71.0967 130.449C66.9355 130.449 62.865 131.666 59.3861 133.949C55.9072 136.232 53.1715 139.482 51.5156 143.3H45.5012V62.4343C45.5029 61.0417 46.0569 59.7065 47.0417 58.7217C48.0265 57.737 49.3616 57.183 50.7543 57.1812ZM40.6845 148.957H49.9494C49.6867 150.834 49.6867 152.738 49.9494 154.614H40.6845V148.957ZM71.0879 167.48C67.986 167.479 64.9543 166.557 62.3759 164.833C59.7975 163.109 57.7882 160.659 56.6019 157.793C55.4156 154.927 55.1057 151.773 55.7112 148.731C56.3167 145.689 57.8105 142.895 60.0039 140.702C62.1972 138.508 64.9915 137.014 68.0337 136.409C71.0758 135.803 74.2292 136.113 77.0952 137.3C79.9612 138.486 82.4112 140.495 84.1355 143.074C85.8597 145.652 86.7809 148.684 86.7825 151.786C86.7889 153.848 86.3873 155.892 85.6009 157.799C84.8144 159.706 83.6586 161.439 82.1999 162.898C80.7413 164.356 79.0086 165.512 77.1015 166.299C75.1944 167.085 73.1507 167.487 71.0879 167.48ZM92.2425 154.614C92.506 152.738 92.506 150.833 92.2425 148.957H166.778C166.499 150.832 166.499 152.739 166.778 154.614H92.2425ZM187.91 167.474C184.809 167.474 181.778 166.554 179.2 164.831C176.622 163.109 174.612 160.66 173.425 157.795C172.239 154.93 171.928 151.778 172.533 148.737C173.138 145.695 174.631 142.902 176.824 140.709C179.017 138.516 181.81 137.023 184.852 136.418C187.893 135.813 191.045 136.124 193.91 137.31C196.775 138.497 199.224 140.506 200.947 143.085C202.669 145.663 203.589 148.694 203.589 151.795C203.582 155.951 201.928 159.936 198.99 162.875C196.051 165.813 192.067 167.467 187.91 167.474ZM218.32 154.614H209.044C209.324 152.739 209.324 150.832 209.044 148.957H218.32V154.614Z" fill="#B25780" style="fill:#B25780;fill:color(display-p3 0.6980 0.3412 0.5020);fill-opacity:1;"/>
<path d="M71.0943 141.759C69.1123 141.759 67.1748 142.347 65.5268 143.448C63.8788 144.549 62.5943 146.115 61.8358 147.946C61.0773 149.777 60.8789 151.792 61.2656 153.736C61.6522 155.68 62.6067 157.465 64.0082 158.867C65.4097 160.268 67.1953 161.223 69.1392 161.609C71.0832 161.996 73.0981 161.798 74.9293 161.039C76.7604 160.281 78.3256 158.996 79.4267 157.348C80.5279 155.7 81.1156 153.763 81.1156 151.781C81.1109 149.124 80.0536 146.578 78.1752 144.7C76.2969 142.821 73.7507 141.764 71.0943 141.759ZM71.0943 156.159C70.2312 156.159 69.3874 155.903 68.6697 155.424C67.9521 154.944 67.3927 154.263 67.0624 153.465C66.7321 152.668 66.6457 151.79 66.814 150.944C66.9824 150.097 67.3981 149.32 68.0084 148.709C68.6187 148.099 69.3963 147.683 70.2429 147.515C71.0895 147.347 71.9669 147.433 72.7644 147.763C73.5618 148.094 74.2434 148.653 74.7229 149.371C75.2025 150.088 75.4584 150.932 75.4584 151.795C75.455 152.952 74.9941 154.06 74.1764 154.877C73.3587 155.695 72.2507 156.156 71.0943 156.159Z" fill="#B25780" style="fill:#B25780;fill:color(display-p3 0.6980 0.3412 0.5020);fill-opacity:1;"/>
<path d="M187.91 141.759C185.928 141.759 183.991 142.347 182.343 143.448C180.695 144.549 179.41 146.115 178.652 147.946C177.893 149.777 177.695 151.792 178.081 153.736C178.468 155.68 179.423 157.465 180.824 158.867C182.226 160.268 184.011 161.223 185.955 161.609C187.899 161.996 189.914 161.798 191.745 161.039C193.576 160.281 195.141 158.996 196.243 157.348C197.344 155.7 197.932 153.763 197.932 151.781C197.927 149.124 196.87 146.578 194.991 144.7C193.113 142.821 190.567 141.764 187.91 141.759ZM187.91 156.159C187.047 156.159 186.203 155.903 185.486 155.424C184.768 154.944 184.209 154.263 183.878 153.465C183.548 152.668 183.462 151.79 183.63 150.944C183.798 150.097 184.214 149.32 184.824 148.709C185.435 148.099 186.212 147.683 187.059 147.515C187.905 147.347 188.783 147.433 189.58 147.763C190.378 148.094 191.059 148.653 191.539 149.371C192.018 150.088 192.274 150.932 192.274 151.795C192.271 152.952 191.811 154.06 190.993 154.878C190.175 155.696 189.067 156.156 187.91 156.159Z" fill="#B25780" style="fill:#B25780;fill:color(display-p3 0.6980 0.3412 0.5020);fill-opacity:1;"/>
</svg>
