<svg width="137" height="189" viewBox="0 0 137 189" fill="none" xmlns="http://www.w3.org/2000/svg">
<path d="M134.243 22.2759C113.416 16.6511 95.3211 19.4781 77.8226 22.2113C62.1247 24.6633 47.2237 26.9762 30.3104 23.7678C31.8336 21.1056 32.5529 18.059 32.381 14.9966C32.2092 11.9343 31.1537 8.98728 29.3421 6.51219C27.5306 4.03711 25.0406 2.13998 22.1735 1.0503C19.3064 -0.0393807 16.185 -0.274917 13.1868 0.372183C10.1886 1.01928 7.44222 2.52129 5.27977 4.69651C3.11733 6.87173 1.63152 9.62695 1.00209 12.6289C0.372655 15.6308 0.62657 18.7508 1.73311 21.6114C2.83966 24.4721 4.75142 26.9508 7.23713 28.7478V179.691C7.23713 182.156 8.21631 184.52 9.95926 186.263C11.7022 188.006 14.0662 188.985 16.5311 188.985C18.996 188.985 21.3599 188.006 23.1029 186.263C24.8458 184.52 25.825 182.156 25.825 179.691V105.624C44.3014 109.839 60.169 107.696 78.6793 104.8C96.3766 102.031 113.094 99.4157 132.768 104.74C133.188 104.853 133.627 104.868 134.054 104.784C134.48 104.7 134.881 104.519 135.226 104.255C135.57 103.991 135.85 103.651 136.042 103.262C136.235 102.873 136.335 102.444 136.336 102.01V25.0075C136.335 24.3856 136.13 23.781 135.752 23.2873C135.373 22.7936 134.843 22.4382 134.243 22.2759ZM16.5359 5.69715C18.5563 5.69715 20.5313 6.29626 22.2112 7.41873C23.8911 8.5412 25.2004 10.1366 25.9736 12.0032C26.7468 13.8698 26.9491 15.9237 26.5549 17.9053C26.1607 19.8869 25.1878 21.7071 23.7592 23.1357C22.3306 24.5643 20.5104 25.5372 18.5288 25.9314C16.5473 26.3255 14.4933 26.1232 12.6267 25.3501C10.7601 24.5769 9.16471 23.2676 8.04225 21.5877C6.91978 19.9078 6.32067 17.9328 6.32067 15.9124C6.32366 13.2041 7.40087 10.6075 9.31595 8.69244C11.231 6.77735 13.8276 5.70015 16.5359 5.69715ZM20.1678 179.691C20.1678 180.656 19.7847 181.581 19.1027 182.263C18.4206 182.945 17.4956 183.328 16.5311 183.328C15.5665 183.328 14.6415 182.945 13.9595 182.263C13.2775 181.581 12.8943 180.656 12.8943 179.691V31.3452C15.2839 31.9271 17.7782 31.9271 20.1678 31.3452V179.691ZM130.677 98.3893C111.328 93.9686 94.3093 96.6307 77.8032 99.212C60.7379 101.879 44.5907 104.405 25.825 99.8165V28.7542L25.9656 28.6492C45.2486 33.023 62.246 30.3673 78.6954 27.8006C95.7591 25.1369 111.906 22.6154 130.677 27.1993V98.3893Z" fill="#B25780" style="fill:#B25780;fill:color(display-p3 0.6980 0.3412 0.5020);fill-opacity:1;"/>
<path d="M99.4105 55.0197H86.7368V42.3476C86.737 41.9761 86.664 41.6082 86.5219 41.2649C86.3798 40.9217 86.1715 40.6097 85.9088 40.347C85.6461 40.0843 85.3342 39.876 84.9909 39.7339C84.6476 39.5918 84.2797 39.5188 83.9082 39.519H72.5938C72.2223 39.5188 71.8544 39.5918 71.5111 39.7339C71.1679 39.876 70.8559 40.0843 70.5932 40.347C70.3305 40.6097 70.1222 40.9217 69.9801 41.2649C69.8381 41.6082 69.765 41.9761 69.7652 42.3476V55.0197H57.0915C56.3413 55.0197 55.6219 55.3177 55.0914 55.8482C54.5609 56.3787 54.2629 57.0981 54.2629 57.8483V69.1627C54.2627 69.5342 54.3357 69.9021 54.4778 70.2454C54.6199 70.5887 54.8282 70.9006 55.0909 71.1633C55.3536 71.426 55.6655 71.6343 56.0088 71.7764C56.3521 71.9185 56.72 71.9915 57.0915 71.9913H69.7652V84.665C69.765 85.0365 69.8381 85.4044 69.9801 85.7477C70.1222 86.091 70.3305 86.4029 70.5932 86.6656C70.8559 86.9283 71.1679 87.1366 71.5111 87.2787C71.8544 87.4208 72.2223 87.4938 72.5938 87.4936H83.9082C84.2797 87.4938 84.6476 87.4208 84.9909 87.2787C85.3342 87.1366 85.6461 86.9283 85.9088 86.6656C86.1715 86.4029 86.3798 86.091 86.5219 85.7477C86.664 85.4044 86.737 85.0365 86.7368 84.665V71.9913H99.4105C99.782 71.9915 100.15 71.9185 100.493 71.7764C100.836 71.6343 101.148 71.426 101.411 71.1633C101.674 70.9006 101.882 70.5887 102.024 70.2454C102.166 69.9021 102.239 69.5342 102.239 69.1627V57.8483C102.239 57.0981 101.941 56.3787 101.411 55.8482C100.88 55.3177 100.161 55.0197 99.4105 55.0197ZM96.5819 66.3341H83.9082C83.158 66.3341 82.4385 66.6321 81.9081 67.1626C81.3776 67.693 81.0796 68.4125 81.0796 69.1627V81.8364H75.4224V69.1627C75.4224 68.4125 75.1244 67.693 74.594 67.1626C74.0635 66.6321 73.344 66.3341 72.5938 66.3341H59.9201V60.6769H72.5938C72.9654 60.6771 73.3333 60.6041 73.6765 60.462C74.0198 60.32 74.3317 60.1116 74.5944 59.8489C74.8571 59.5862 75.0655 59.2743 75.2075 58.931C75.3496 58.5877 75.4226 58.2198 75.4224 57.8483V45.1762H81.0796V57.8483C81.0794 58.2198 81.1524 58.5877 81.2945 58.931C81.4366 59.2743 81.6449 59.5862 81.9076 59.8489C82.1703 60.1116 82.4822 60.32 82.8255 60.462C83.1688 60.6041 83.5367 60.6771 83.9082 60.6769H96.5819V66.3341Z" fill="#B25780" style="fill:#B25780;fill:color(display-p3 0.6980 0.3412 0.5020);fill-opacity:1;"/>
</svg>
