<svg width="189" height="189" viewBox="0 0 189 189" fill="none" xmlns="http://www.w3.org/2000/svg">
<path d="M181.297 89.8773H149.197V64.5606H153.863C155.899 64.5584 157.85 63.7489 159.29 62.3095C160.729 60.8701 161.539 58.9185 161.541 56.883V50.4176C161.538 48.3822 160.728 46.4308 159.289 44.9916C157.85 43.5523 155.899 42.7426 153.863 42.74H118.68V7.70263C118.678 5.66719 117.868 3.71585 116.429 2.27658C114.989 0.837303 113.038 0.0275906 111.003 0.0250244H77.9971C75.9616 0.0275906 74.0103 0.837303 72.571 2.27658C71.1317 3.71585 70.322 5.66719 70.3195 7.70263V42.74H35.1366C33.1012 42.7426 31.1498 43.5523 29.7106 44.9916C28.2713 46.4308 27.4616 48.3822 27.459 50.4176V56.883C27.4612 58.9185 28.2707 60.8701 29.7101 62.3095C31.1495 63.7489 33.1011 64.5584 35.1366 64.5606H39.803V89.8773H7.70251C5.66707 89.8798 3.71573 90.6896 2.27646 92.1288C0.837181 93.5681 0.027469 95.5194 0.0249028 97.5549V186.146C0.0246903 186.518 0.0977083 186.886 0.239783 187.229C0.381858 187.572 0.590203 187.884 0.852904 188.147C1.11561 188.41 1.42751 188.618 1.77079 188.76C2.11406 188.902 2.48198 188.975 2.85349 188.975H186.146C186.896 188.975 187.616 188.677 188.146 188.146C188.677 187.616 188.975 186.897 188.975 186.146V97.5549C188.972 95.5194 188.163 93.5681 186.723 92.1288C185.284 90.6896 183.333 89.8798 181.297 89.8773ZM181.297 95.5345C181.833 95.5349 182.347 95.7479 182.725 96.1267C183.104 96.5055 183.317 97.0192 183.318 97.5549V106.041H149.197V95.5345H181.297ZM75.9766 7.70263C75.9771 7.16691 76.1901 6.65326 76.5689 6.27445C76.9477 5.89564 77.4613 5.68264 77.9971 5.68221H111.003C111.538 5.68264 112.052 5.89564 112.431 6.27445C112.81 6.65326 113.023 7.16691 113.023 7.70263V42.74H75.9766V7.70263ZM33.1162 56.883V50.4176C33.1166 49.8819 33.3296 49.3682 33.7084 48.9894C34.0872 48.6106 34.6009 48.3976 35.1366 48.3972H153.863C154.399 48.398 154.912 48.6112 155.291 48.9899C155.67 49.3686 155.883 49.882 155.884 50.4176V56.883C155.883 57.4187 155.67 57.9323 155.291 58.3111C154.913 58.69 154.399 58.903 153.863 58.9034H35.1366C34.6008 58.9034 34.0869 58.6905 33.708 58.3116C33.3291 57.9327 33.1162 57.4188 33.1162 56.883ZM5.68209 97.5549C5.68252 97.0192 5.89552 96.5055 6.27433 96.1267C6.65314 95.7479 7.16679 95.5349 7.70251 95.5345H39.803V106.041H5.68209V97.5549ZM5.68209 111.698H39.803V183.318H5.68209V111.698ZM112.377 145.964C113.769 145.966 115.104 146.52 116.089 147.505C117.074 148.489 117.628 149.825 117.63 151.217V183.311H97.3285V145.966L112.377 145.964ZM91.6713 183.313H71.3701V151.219C71.3718 149.826 71.9258 148.491 72.9106 147.506C73.8953 146.522 75.2305 145.968 76.6232 145.966H91.6713V183.313ZM123.287 183.313V151.219C123.284 148.326 122.133 145.553 120.088 143.507C118.043 141.462 115.269 140.312 112.377 140.309H76.6232C73.7305 140.312 70.9572 141.462 68.9118 143.507C66.8663 145.553 65.7159 148.326 65.7129 151.219V183.318H45.4602V64.5606H143.54V183.318L123.287 183.313ZM149.197 183.313V111.698H183.318V183.318L149.197 183.313Z" fill="#B25780" style="fill:#B25780;fill:color(display-p3 0.6980 0.3412 0.5020);fill-opacity:1;"/>
<path d="M17.2583 126.484H28.23C28.9802 126.484 29.6996 126.186 30.2301 125.656C30.7606 125.125 31.0586 124.406 31.0586 123.655C31.0586 122.905 30.7606 122.186 30.2301 121.655C29.6996 121.125 28.9802 120.827 28.23 120.827H17.2583C16.5081 120.827 15.7886 121.125 15.2582 121.655C14.7277 122.186 14.4297 122.905 14.4297 123.655C14.4297 124.406 14.7277 125.125 15.2582 125.656C15.7886 126.186 16.5081 126.484 17.2583 126.484Z" fill="#B25780" style="fill:#B25780;fill:color(display-p3 0.6980 0.3412 0.5020);fill-opacity:1;"/>
<path d="M28.23 136.725H17.2583C16.5081 136.725 15.7886 137.023 15.2582 137.554C14.7277 138.084 14.4297 138.804 14.4297 139.554C14.4297 140.304 14.7277 141.023 15.2582 141.554C15.7886 142.084 16.5081 142.382 17.2583 142.382H28.23C28.9802 142.382 29.6996 142.084 30.2301 141.554C30.7606 141.023 31.0586 140.304 31.0586 139.554C31.0586 138.804 30.7606 138.084 30.2301 137.554C29.6996 137.023 28.9802 136.725 28.23 136.725Z" fill="#B25780" style="fill:#B25780;fill:color(display-p3 0.6980 0.3412 0.5020);fill-opacity:1;"/>
<path d="M28.23 152.622H17.2583C16.5081 152.622 15.7886 152.92 15.2582 153.45C14.7277 153.981 14.4297 154.7 14.4297 155.451C14.4297 156.201 14.7277 156.92 15.2582 157.451C15.7886 157.981 16.5081 158.279 17.2583 158.279H28.23C28.9802 158.279 29.6996 157.981 30.2301 157.451C30.7606 156.92 31.0586 156.201 31.0586 155.451C31.0586 154.7 30.7606 153.981 30.2301 153.45C29.6996 152.92 28.9802 152.622 28.23 152.622Z" fill="#B25780" style="fill:#B25780;fill:color(display-p3 0.6980 0.3412 0.5020);fill-opacity:1;"/>
<path d="M28.23 168.528H17.2583C16.5081 168.528 15.7886 168.826 15.2582 169.357C14.7277 169.887 14.4297 170.607 14.4297 171.357C14.4297 172.107 14.7277 172.827 15.2582 173.357C15.7886 173.887 16.5081 174.186 17.2583 174.186H28.23C28.6014 174.186 28.9693 174.112 29.3124 173.97C29.6556 173.828 29.9674 173.62 30.2301 173.357C30.4928 173.094 30.7011 172.783 30.8433 172.439C30.9854 172.096 31.0586 171.728 31.0586 171.357C31.0586 170.985 30.9854 170.618 30.8433 170.274C30.7011 169.931 30.4928 169.619 30.2301 169.357C29.9674 169.094 29.6556 168.886 29.3124 168.744C28.9693 168.601 28.6014 168.528 28.23 168.528Z" fill="#B25780" style="fill:#B25780;fill:color(display-p3 0.6980 0.3412 0.5020);fill-opacity:1;"/>
<path d="M171.741 120.827H160.77C160.019 120.827 159.3 121.125 158.769 121.655C158.239 122.186 157.941 122.905 157.941 123.655C157.941 124.406 158.239 125.125 158.769 125.656C159.3 126.186 160.019 126.484 160.77 126.484H171.741C172.491 126.484 173.211 126.186 173.741 125.656C174.272 125.125 174.57 124.406 174.57 123.655C174.57 122.905 174.272 122.186 173.741 121.655C173.211 121.125 172.491 120.827 171.741 120.827Z" fill="#B25780" style="fill:#B25780;fill:color(display-p3 0.6980 0.3412 0.5020);fill-opacity:1;"/>
<path d="M171.741 136.725H160.77C160.019 136.725 159.3 137.023 158.769 137.554C158.239 138.084 157.941 138.804 157.941 139.554C157.941 140.304 158.239 141.023 158.769 141.554C159.3 142.084 160.019 142.382 160.77 142.382H171.741C172.491 142.382 173.211 142.084 173.741 141.554C174.272 141.023 174.57 140.304 174.57 139.554C174.57 138.804 174.272 138.084 173.741 137.554C173.211 137.023 172.491 136.725 171.741 136.725Z" fill="#B25780" style="fill:#B25780;fill:color(display-p3 0.6980 0.3412 0.5020);fill-opacity:1;"/>
<path d="M171.741 152.622H160.77C160.019 152.622 159.3 152.92 158.769 153.45C158.239 153.981 157.941 154.7 157.941 155.451C157.941 156.201 158.239 156.92 158.769 157.451C159.3 157.981 160.019 158.279 160.77 158.279H171.741C172.491 158.279 173.211 157.981 173.741 157.451C174.272 156.92 174.57 156.201 174.57 155.451C174.57 154.7 174.272 153.981 173.741 153.45C173.211 152.92 172.491 152.622 171.741 152.622Z" fill="#B25780" style="fill:#B25780;fill:color(display-p3 0.6980 0.3412 0.5020);fill-opacity:1;"/>
<path d="M171.741 168.528H160.77C160.019 168.528 159.3 168.826 158.769 169.357C158.239 169.887 157.941 170.607 157.941 171.357C157.941 172.107 158.239 172.827 158.769 173.357C159.3 173.887 160.019 174.186 160.77 174.186H171.741C172.491 174.186 173.211 173.887 173.741 173.357C174.272 172.827 174.57 172.107 174.57 171.357C174.57 170.607 174.272 169.887 173.741 169.357C173.211 168.826 172.491 168.528 171.741 168.528Z" fill="#B25780" style="fill:#B25780;fill:color(display-p3 0.6980 0.3412 0.5020);fill-opacity:1;"/>
<path d="M76.4258 74.8938C76.4258 74.1436 76.1278 73.4242 75.5973 72.8937C75.0669 72.3633 74.3474 72.0652 73.5972 72.0652H55.79C55.0398 72.0652 54.3204 72.3633 53.7899 72.8937C53.2594 73.4242 52.9614 74.1436 52.9614 74.8938V92.7059C52.9614 93.4561 53.2594 94.1755 53.7899 94.706C54.3204 95.2365 55.0398 95.5345 55.79 95.5345H73.6005C74.3505 95.5341 75.0697 95.2359 75.6001 94.7055C76.1305 94.1752 76.4286 93.4559 76.429 92.7059V92.6752L76.4258 74.8938ZM58.617 77.7224H70.767V89.8708H58.617V77.7224Z" fill="#B25780" style="fill:#B25780;fill:color(display-p3 0.6980 0.3412 0.5020);fill-opacity:1;"/>
<path d="M106.231 74.8938C106.232 74.5223 106.159 74.1544 106.016 73.8111C105.874 73.4679 105.666 73.156 105.403 72.8933C105.141 72.6306 104.829 72.4222 104.485 72.2801C104.142 72.1381 103.774 72.065 103.403 72.0652H85.5971C85.2256 72.065 84.8577 72.1381 84.5144 72.2801C84.1712 72.4222 83.8593 72.6306 83.5966 72.8933C83.3339 73.156 83.1255 73.4679 82.9834 73.8111C82.8414 74.1544 82.7683 74.5223 82.7686 74.8938V92.6833V92.7059C82.769 93.4559 83.0671 94.1752 83.5975 94.7055C84.1279 95.2359 84.8471 95.5341 85.5971 95.5345H103.406C104.156 95.5341 104.875 95.2359 105.406 94.7055C105.936 94.1752 106.234 93.4559 106.235 92.7059V92.6833L106.231 74.8938ZM88.4257 77.7224H100.574V89.8708H88.4257V77.7224Z" fill="#B25780" style="fill:#B25780;fill:color(display-p3 0.6980 0.3412 0.5020);fill-opacity:1;"/>
<path d="M136.04 74.8938C136.04 74.1436 135.742 73.4242 135.211 72.8937C134.681 72.3633 133.961 72.0652 133.211 72.0652H115.402C114.652 72.0652 113.933 72.3633 113.402 72.8937C112.872 73.4242 112.574 74.1436 112.574 74.8938V92.6736V92.7043C112.574 93.4543 112.872 94.1735 113.403 94.7039C113.933 95.2343 114.652 95.5324 115.402 95.5329H133.211C133.961 95.5329 134.681 95.2348 135.211 94.7044C135.742 94.1739 136.04 93.4545 136.04 92.7043V74.8938ZM118.231 77.7224H130.383V89.8708H118.231V77.7224Z" fill="#B25780" style="fill:#B25780;fill:color(display-p3 0.6980 0.3412 0.5020);fill-opacity:1;"/>
<path d="M73.5972 103.031H55.79C55.04 103.031 54.3207 103.33 53.7904 103.86C53.26 104.39 52.9619 105.11 52.9614 105.86V123.667C52.9614 124.417 53.2594 125.137 53.7899 125.667C54.3204 126.197 55.0398 126.495 55.79 126.495H73.5972C74.3474 126.495 75.0669 126.197 75.5973 125.667C76.1278 125.137 76.4258 124.417 76.4258 123.667V105.86C76.4254 105.11 76.1272 104.39 75.5969 103.86C75.0665 103.33 74.3473 103.031 73.5972 103.031ZM70.7686 120.846H58.617V108.688H70.767L70.7686 120.846Z" fill="#B25780" style="fill:#B25780;fill:color(display-p3 0.6980 0.3412 0.5020);fill-opacity:1;"/>
<path d="M103.403 103.031H85.5971C84.847 103.031 84.1275 103.329 83.597 103.86C83.0666 104.39 82.7686 105.109 82.7686 105.86V123.667C82.7683 124.038 82.8414 124.406 82.9834 124.75C83.1255 125.093 83.3339 125.405 83.5966 125.667C83.8593 125.93 84.1712 126.138 84.5144 126.281C84.8577 126.423 85.2256 126.496 85.5971 126.495H103.403C103.774 126.496 104.142 126.423 104.485 126.281C104.829 126.138 105.141 125.93 105.403 125.667C105.666 125.405 105.874 125.093 106.016 124.75C106.159 124.406 106.232 124.038 106.231 123.667V105.86C106.231 105.109 105.933 104.39 105.403 103.86C104.872 103.329 104.153 103.031 103.403 103.031ZM100.574 120.846H88.4257V108.688H100.574V120.846Z" fill="#B25780" style="fill:#B25780;fill:color(display-p3 0.6980 0.3412 0.5020);fill-opacity:1;"/>
<path d="M133.21 103.031H115.402C114.652 103.031 113.933 103.33 113.403 103.86C112.872 104.39 112.574 105.11 112.574 105.86V123.667C112.574 124.417 112.872 125.137 113.402 125.667C113.933 126.197 114.652 126.495 115.402 126.495H133.21C133.96 126.495 134.679 126.197 135.21 125.667C135.74 125.137 136.038 124.417 136.038 123.667V105.86C136.038 105.11 135.74 104.39 135.209 103.86C134.679 103.33 133.96 103.031 133.21 103.031ZM130.383 120.846H118.231V108.688H130.383V120.846Z" fill="#B25780" style="fill:#B25780;fill:color(display-p3 0.6980 0.3412 0.5020);fill-opacity:1;"/>
<path d="M81.5205 170.505C82.2705 170.505 82.9898 170.206 83.5201 169.676C84.0505 169.146 84.3487 168.427 84.3491 167.676V162.092C84.3491 161.342 84.0511 160.622 83.5206 160.092C82.9901 159.561 82.2707 159.263 81.5205 159.263C80.7703 159.263 80.0508 159.561 79.5204 160.092C78.9899 160.622 78.6919 161.342 78.6919 162.092V167.676C78.6919 168.427 78.9899 169.146 79.5204 169.677C80.0508 170.207 80.7703 170.505 81.5205 170.505Z" fill="#B25780" style="fill:#B25780;fill:color(display-p3 0.6980 0.3412 0.5020);fill-opacity:1;"/>
<path d="M107.479 170.505C108.229 170.505 108.949 170.207 109.479 169.677C110.01 169.146 110.308 168.427 110.308 167.676V162.092C110.308 161.342 110.01 160.622 109.479 160.092C108.949 159.561 108.229 159.263 107.479 159.263C106.729 159.263 106.009 159.561 105.479 160.092C104.948 160.622 104.65 161.342 104.65 162.092V167.676C104.651 168.427 104.949 169.146 105.479 169.676C106.01 170.206 106.729 170.505 107.479 170.505Z" fill="#B25780" style="fill:#B25780;fill:color(display-p3 0.6980 0.3412 0.5020);fill-opacity:1;"/>
<path d="M102.373 21.3849H97.3287V16.3403C97.3287 15.5901 97.0307 14.8707 96.5002 14.3402C95.9698 13.8097 95.2503 13.5117 94.5001 13.5117C93.7499 13.5117 93.0305 13.8097 92.5 14.3402C91.9695 14.8707 91.6715 15.5901 91.6715 16.3403V21.3849H86.6269C85.8767 21.3849 85.1573 21.6829 84.6268 22.2134C84.0963 22.7438 83.7983 23.4633 83.7983 24.2135C83.7983 24.9637 84.0963 25.6832 84.6268 26.2136C85.1573 26.7441 85.8767 27.0421 86.6269 27.0421H91.6715V32.0867C91.6715 32.8369 91.9695 33.5563 92.5 34.0868C93.0305 34.6173 93.7499 34.9153 94.5001 34.9153C95.2503 34.9153 95.9698 34.6173 96.5002 34.0868C97.0307 33.5563 97.3287 32.8369 97.3287 32.0867V27.0421H102.373C103.123 27.0421 103.843 26.7441 104.373 26.2136C104.904 25.6832 105.202 24.9637 105.202 24.2135C105.202 23.4633 104.904 22.7438 104.373 22.2134C103.843 21.6829 103.123 21.3849 102.373 21.3849Z" fill="#B25780" style="fill:#B25780;fill:color(display-p3 0.6980 0.3412 0.5020);fill-opacity:1;"/>
</svg>
