<svg width="147" height="190" viewBox="0 0 147 190" fill="none" xmlns="http://www.w3.org/2000/svg">
<path d="M146.319 125.925C137.97 114.127 133.485 100.03 133.48 85.5767V80.857C133.564 70.6847 131.174 60.6444 126.516 51.6007C121.859 42.557 115.073 34.7809 106.742 28.9419V19.517C106.737 14.4817 104.734 9.65427 101.174 6.09379C97.6132 2.53331 92.7858 0.530586 87.7505 0.525024H59.2448C54.2095 0.530586 49.382 2.53331 45.8215 6.09379C42.2611 9.65427 40.2583 14.4817 40.2528 19.517V28.937C31.9221 34.7765 25.1356 42.5534 20.4779 51.598C15.8201 60.6427 13.4307 70.6839 13.5153 80.857V85.5767C13.5105 100.03 9.02512 114.127 0.676733 125.925C0.41658 126.289 0.246338 126.709 0.179991 127.151C0.113644 127.593 0.153083 128.044 0.29507 128.468C0.437057 128.891 0.677541 129.276 0.996771 129.588C1.316 129.901 1.70487 130.134 2.13144 130.267C9.18837 132.489 16.2421 134.371 23.1972 135.916C18.1966 139.083 14.0798 143.465 11.2307 148.653C8.38169 153.841 6.89332 159.667 6.90448 165.585V181.797C6.90705 183.833 7.71676 185.784 9.15604 187.223C10.5953 188.663 12.5466 189.472 14.5821 189.475H132.413C134.449 189.472 136.4 188.663 137.839 187.223C139.279 185.784 140.088 183.833 140.091 181.797V165.585C140.102 159.667 138.615 153.842 135.767 148.654C132.918 143.466 128.803 139.083 123.803 135.916C130.753 134.371 137.812 132.489 144.869 130.267C145.295 130.134 145.684 129.901 146.003 129.588C146.323 129.276 146.563 128.891 146.705 128.468C146.847 128.044 146.886 127.593 146.82 127.151C146.754 126.709 146.584 126.289 146.323 125.925H146.319ZM45.91 19.517C45.9138 15.9816 47.32 12.5921 49.8199 10.0921C52.3198 7.59221 55.7093 6.18606 59.2448 6.18221H87.7505C91.2859 6.18606 94.6755 7.59221 97.1754 10.0921C99.6753 12.5921 101.081 15.9816 101.085 19.517V37.5537C101.09 37.8689 101.02 38.1806 100.881 38.4635C100.742 38.7464 100.538 38.9924 100.286 39.1815C100.034 39.3706 99.7403 39.4975 99.4298 39.5516C99.1193 39.6058 98.8005 39.5858 98.4992 39.4933C82.2943 33.9383 64.7009 33.9383 48.4961 39.4933C48.1948 39.5858 47.8759 39.6058 47.5654 39.5516C47.2549 39.4975 46.9617 39.3706 46.7095 39.1815C46.4574 38.9924 46.2535 38.7464 46.1146 38.4635C45.9756 38.1806 45.9055 37.8689 45.91 37.5537V19.517ZM134.434 165.585V181.797C134.434 182.333 134.221 182.847 133.842 183.226C133.463 183.605 132.949 183.818 132.413 183.818H115.118V165.089C115.118 164.339 114.82 163.62 114.29 163.089C113.759 162.559 113.04 162.261 112.29 162.261C111.54 162.261 110.82 162.559 110.29 163.089C109.759 163.62 109.461 164.339 109.461 165.089V183.818H37.5341V165.089C37.5341 164.339 37.2361 163.62 36.7056 163.089C36.1752 162.559 35.4557 162.261 34.7055 162.261C33.9553 162.261 33.2359 162.559 32.7054 163.089C32.1749 163.62 31.8769 164.339 31.8769 165.089V183.818H14.5821C14.0462 183.818 13.5323 183.605 13.1534 183.226C12.7745 182.847 12.5617 182.333 12.5617 181.797V165.585C12.5448 159.35 14.512 153.271 18.1788 148.227C21.8455 143.184 27.0216 139.438 32.9582 137.531C36.6532 136.306 39.1456 136.296 44.0334 135.556L57.0482 161.226C57.2465 161.617 57.5327 161.956 57.8843 162.217C58.2359 162.478 58.6434 162.654 59.0746 162.731C59.5057 162.808 59.9489 162.784 60.3691 162.66C60.7893 162.537 61.1752 162.318 61.4963 162.02L73.4976 150.877L85.4989 162.02C85.8201 162.318 86.2059 162.537 86.6262 162.66C87.0464 162.784 87.4895 162.808 87.9207 162.731C88.3519 162.654 88.7593 162.478 89.1109 162.217C89.4626 161.956 89.7488 161.617 89.9471 161.226L102.962 135.556C106.759 135.913 110.52 136.589 114.203 137.578C125.993 140.644 134.434 152.805 134.434 165.585ZM90.4692 130.593L97.4938 133.826L86.5932 155.323L77.3574 146.749L90.4692 130.593ZM73.4976 117.074C64.7829 117.066 56.4272 113.602 50.2635 107.441C44.0999 101.28 40.6317 92.9257 40.6197 84.2109V72.9483C46.9676 72.5669 53.1673 70.8722 58.8266 67.9715C64.4858 65.0708 69.4815 61.0271 73.4976 56.0964C77.5135 61.0274 82.5091 65.0713 88.1684 67.972C93.8278 70.8728 100.028 72.5673 106.376 72.9483V84.2109C106.364 92.9257 102.895 101.28 96.7317 107.441C90.5681 113.602 82.2124 117.066 73.4976 117.074ZM73.4976 122.732C78.0485 122.735 82.5637 121.93 86.8324 120.352V126.103L73.4976 142.528L60.1628 126.103V120.352C64.4315 121.93 68.9468 122.735 73.4976 122.732ZM56.5261 130.593L69.6378 146.745L60.4004 155.32L49.5015 133.823L56.5261 130.593ZM115.052 131.94C113.282 131.395 111.47 130.996 109.634 130.745L102.171 129.74L92.4896 125.293V117.708C98.4173 114.35 103.349 109.481 106.782 103.597C110.215 97.7128 112.027 91.0235 112.033 84.2109V70.1569C112.033 69.7805 111.957 69.4079 111.811 69.0609C111.665 68.714 111.452 68.3997 111.183 68.1365C110.636 67.6103 109.905 67.3201 109.146 67.3283C93.6291 67.6887 81.7895 58.4837 75.8284 49.8072C75.5687 49.4288 75.2208 49.1194 74.8147 48.9055C74.4086 48.6917 73.9566 48.58 73.4976 48.58C73.0387 48.58 72.5867 48.6917 72.1806 48.9055C71.7745 49.1194 71.4266 49.4288 71.1669 49.8072C65.2058 58.4837 53.3516 67.692 37.8493 67.3283C37.0906 67.3194 36.3589 67.6097 35.8127 68.1365C35.5436 68.3997 35.3298 68.714 35.1838 69.0609C35.0378 69.4079 34.9626 69.7805 34.9625 70.1569V84.219C34.9698 91.0302 36.7822 97.7178 40.2152 103.601C43.6482 109.483 48.5791 114.351 54.5057 117.708V125.293L44.8286 129.74C38.3956 130.71 36.2265 130.64 31.9464 131.94C23.6841 130.388 15.5096 128.401 7.45727 125.985C15.0973 113.891 19.1588 99.8819 19.1725 85.5767V80.857C19.1066 72.2799 20.9664 63.7973 24.6148 56.0345C28.2632 48.2716 33.6072 41.4265 40.2528 36.0037V37.557C40.2498 38.7686 40.5343 39.9636 41.0828 41.044C41.6314 42.1243 42.4284 43.0591 43.4085 43.7716C44.3885 44.484 45.5236 44.9538 46.7204 45.1424C47.9173 45.331 49.1419 45.233 50.2935 44.8563C65.3333 39.7002 81.662 39.7002 96.7018 44.8563C97.8534 45.233 99.0779 45.331 100.275 45.1424C101.472 44.9538 102.607 44.484 103.587 43.7716C104.567 43.0591 105.364 42.1243 105.912 41.044C106.461 39.9636 106.745 38.7686 106.742 37.557V36.0037C113.388 41.4265 118.732 48.2716 122.38 56.0345C126.029 63.7973 127.889 72.2799 127.823 80.857V85.5767C127.836 99.8819 131.898 113.891 139.538 125.985C131.485 128.401 123.31 130.388 115.047 131.94H115.052Z" fill="#B25780" style="fill:#B25780;fill:color(display-p3 0.6980 0.3412 0.5020);fill-opacity:1;"/>
<path d="M59.5713 75.1999C59.1998 75.1997 58.8318 75.2727 58.4886 75.4148C58.1453 75.5568 57.8334 75.7652 57.5707 76.0279C57.308 76.2906 57.0996 76.6025 56.9576 76.9458C56.8155 77.289 56.7425 77.657 56.7427 78.0285V80.8926C56.7427 81.2641 56.8158 81.6319 56.958 81.9751C57.1001 82.3183 57.3085 82.6301 57.5712 82.8928C57.8338 83.1554 58.1456 83.3638 58.4888 83.5059C58.832 83.6481 59.1998 83.7212 59.5713 83.7212C59.9427 83.7212 60.3105 83.6481 60.6537 83.5059C60.9969 83.3638 61.3087 83.1554 61.5714 82.8928C61.834 82.6301 62.0424 82.3183 62.1845 81.9751C62.3267 81.6319 62.3999 81.2641 62.3999 80.8926V78.0285C62.3999 77.2783 62.1019 76.5588 61.5714 76.0284C61.0409 75.4979 60.3215 75.1999 59.5713 75.1999Z" fill="#B25780" style="fill:#B25780;fill:color(display-p3 0.6980 0.3412 0.5020);fill-opacity:1;"/>
<path d="M87.4241 75.1999C86.6739 75.1999 85.9544 75.4979 85.4239 76.0284C84.8935 76.5588 84.5955 77.2783 84.5955 78.0285V80.8926C84.5955 81.6428 84.8935 82.3623 85.4239 82.8928C85.9544 83.4232 86.6739 83.7212 87.4241 83.7212C88.1742 83.7212 88.8937 83.4232 89.4242 82.8928C89.9546 82.3623 90.2526 81.6428 90.2526 80.8926V78.0285C90.2526 77.2783 89.9546 76.5588 89.4242 76.0284C88.8937 75.4979 88.1742 75.1999 87.4241 75.1999Z" fill="#B25780" style="fill:#B25780;fill:color(display-p3 0.6980 0.3412 0.5020);fill-opacity:1;"/>
<path d="M76.711 91.9112C74.398 93.922 72.5974 93.922 70.2844 91.9112C70.0043 91.6671 69.6787 91.4806 69.3265 91.3623C68.9742 91.244 68.6021 91.1963 68.2313 91.2218C67.8606 91.2473 67.4986 91.3456 67.1658 91.511C66.8331 91.6765 66.5362 91.9058 66.2921 92.186C66.048 92.4662 65.8615 92.7917 65.7432 93.144C65.6249 93.4962 65.5771 93.8684 65.6026 94.2391C65.6281 94.6098 65.7264 94.9719 65.8919 95.3046C66.0573 95.6374 66.2867 95.9343 66.5669 96.1784C67.469 97.101 68.5464 97.8341 69.7357 98.3346C70.9251 98.8351 72.2025 99.0929 73.4929 99.0929C74.7833 99.0929 76.0606 98.8351 77.25 98.3346C78.4394 97.8341 79.5167 97.101 80.4189 96.1784C80.9847 95.6854 81.3316 94.9878 81.3831 94.2391C81.4346 93.4904 81.1866 92.7519 80.6937 92.186C80.2007 91.6201 79.5031 91.2733 78.7544 91.2218C78.0057 91.1702 77.2672 91.4182 76.7013 91.9112H76.711Z" fill="#B25780" style="fill:#B25780;fill:color(display-p3 0.6980 0.3412 0.5020);fill-opacity:1;"/>
<path d="M66.3955 24.8783H70.6691V29.1519C70.6691 29.9021 70.9671 30.6216 71.4976 31.152C72.028 31.6825 72.7475 31.9805 73.4977 31.9805C74.2479 31.9805 74.9673 31.6825 75.4978 31.152C76.0283 30.6216 76.3263 29.9021 76.3263 29.1519V24.8783H80.5999C81.3501 24.8783 82.0695 24.5803 82.6 24.0499C83.1305 23.5194 83.4285 22.7999 83.4285 22.0497C83.4285 21.2996 83.1305 20.5801 82.6 20.0496C82.0695 19.5192 81.3501 19.2211 80.5999 19.2211H76.3263V14.9475C76.3263 14.1974 76.0283 13.4779 75.4978 12.9474C74.9673 12.417 74.2479 12.119 73.4977 12.119C72.7475 12.119 72.028 12.417 71.4976 12.9474C70.9671 13.4779 70.6691 14.1974 70.6691 14.9475V19.2211H66.3955C65.6453 19.2211 64.9258 19.5192 64.3954 20.0496C63.8649 20.5801 63.5669 21.2996 63.5669 22.0497C63.5669 22.7999 63.8649 23.5194 64.3954 24.0499C64.9258 24.5803 65.6453 24.8783 66.3955 24.8783Z" fill="#B25780" style="fill:#B25780;fill:color(display-p3 0.6980 0.3412 0.5020);fill-opacity:1;"/>
</svg>
