<?xml version="1.0" encoding="UTF-8"?>
<svg xmlns="http://www.w3.org/2000/svg" version="1.1" xmlns:xlink="http://www.w3.org/1999/xlink" viewBox="0 0 165 164">
  <defs>
    <style>
      .cls-1 {
        fill: #020202;
      }

      .cls-2 {
        fill: #fff;
      }

      .cls-3 {
        fill: none;
      }

      .cls-4 {
        display: none;
      }

      .cls-5 {
        clip-path: url(#clippath);
      }
    </style>
    <clipPath id="clippath">
      <rect class="cls-3" x=".5" y="0" width="164" height="164"/>
    </clipPath>
  </defs>
  <!-- Generator: Adobe Illustrator 28.6.0, SVG Export Plug-In . SVG Version: 1.2.0 Build 709)  -->
  <g>
    <g id="Capa_2" class="cls-4">
      <rect class="cls-1" x=".5" width="164" height="164"/>
    </g>
    <g id="Capa_1">
      <g class="cls-5">
        <g>
          <path class="cls-2" d="M77.2,164c0,0,0-.2,0-.3h10.9c0,0,0,.2,0,.3h-10.9,0Z"/>
          <path class="cls-2" d="M161.1,58.4c-4.6-15-12.7-27.7-24.5-38C123.5,9,108.2,2.4,90.9.5,89.1.3,87.2.5,85.4,0h-5.9c-.4.3-.9.1-1.3.1-7.3-.1-14.4,1.4-21.3,3.6-10.1,3.3-19.2,8.3-27.3,15.2-4.8,4.1-9.3,8.6-13,13.7-3.4,4.6-6.3,9.4-8.7,14.6-3.6,7.8-6,15.8-7,24.3-.6,5-.3,10-.3,15,0,4.5.6,8.9,1.5,13.2,2.1,9.2,5.6,17.8,10.6,25.8,4.9,7.8,11,14.5,18,20.4,6.9,5.7,14.6,10,23,13.1,7.7,2.8,15.6,4.9,23.9,4.7,3.5,0,7,.2,10.5-.1,3.7,0,7.4-.7,11-1.4,12.3-2.6,23.4-7.6,33.3-15.3,8.8-6.8,16-15,21.5-24.6,6.7-11.8,10.2-24.4,10.6-37.9.2-8.9-.8-17.5-3.4-26.1h0ZM82.2,160.5c-43.1-.2-78.6-35.6-78.1-78.6C3.8,39.2,39.1,3.4,82.8,3.5c43.5.1,78.4,35.8,78.3,78.7-.1,42.9-35.4,78.4-78.9,78.3Z"/>
          <path class="cls-2" d="M73.3,87.3c0,2.3,0,4.5,0,6.8,0,1.6-.7,2.4-2,2.4-1.4,0-2.1-.8-2.1-2.4,0-4.4,0-8.8,0-13.2.3-10.5,11.3-16.9,20.4-11.7,4.5,2.5,6.7,6.6,6.9,11.7.2,4.5,0,8.9,0,13.4,0,1.6-.7,2.3-2,2.3-1.3,0-2-.8-2-2.3,0-4.4,0-8.7,0-13.1,0-4.5-3-8.2-7.1-9.4-5.8-1.6-11.8,2.7-12,8.7-.1,2.3,0,4.6,0,6.9h0Z"/>
          <path class="cls-2" d="M130.3,81.1c-.1-3.3-1.3-6.2-3.5-8.7-3.9-4.5-8.9-6.2-14.7-4.7-5.8,1.5-9.3,5.4-10.7,11.1-2.5,10.2,6.8,19.8,17.1,17.7,2.9-.6,5.3-1.9,7.7-4.2v2c0,.5,0,1.1.5,1.5.6.6,1.3.9,2.1.6,1-.4,1.5-1.1,1.5-2.1,0-4.4.1-8.8,0-13.2h0ZM115.6,92.8c-5.9,0-10.5-4.8-10.5-10.8,0-6,4.7-10.6,10.6-10.6,5.9,0,10.5,4.7,10.5,10.8,0,6-4.8,10.7-10.6,10.6Z"/>
          <path class="cls-2" d="M64,81.1c0-3.4-1.3-6.4-3.6-8.9-7.6-8.5-21.2-5.7-24.9,5.2-3.2,9.4,3.9,19.3,13.9,19.4,4,0,7.4-1.4,10.6-4.4,0,.9,0,1.4,0,1.9,0,1.5.8,2.4,2,2.4s2-.9,2-2.4c0-4.4,0-8.7,0-13.1h0ZM49.5,92.8c-5.9,0-10.7-4.8-10.6-10.8,0-6,4.7-10.6,10.7-10.6,5.8,0,10.4,4.7,10.5,10.6,0,6-4.6,10.7-10.5,10.8h0Z"/>
        </g>
      </g>
    </g>
  </g>
</svg>