<?xml version="1.0" encoding="UTF-8"?>
<svg xmlns="http://www.w3.org/2000/svg" version="1.1" xmlns:xlink="http://www.w3.org/1999/xlink" viewBox="0 0 56 55">
  <defs>
    <style>
      .cls-1 {
        fill: #fff;
      }

      .cls-2 {
        fill: none;
      }

      .cls-3 {
        fill: #bf5081;
      }

      .cls-4 {
        fill: #c15080;
        fill-opacity: .6;
      }

      .cls-5 {
        clip-path: url(#clippath);
      }
    </style>
    <clipPath id="clippath">
      <rect class="cls-2" x=".7" y="0" width="55" height="55"/>
    </clipPath>
  </defs>
  <!-- Generator: Adobe Illustrator 28.6.0, SVG Export Plug-In . SVG Version: 1.2.0 Build 709)  -->
  <g>
    <g id="Capa_2">
      <circle class="cls-1" cx="28.2" cy="27.5" r="27.5"/>
    </g>
    <g id="Capa_1">
      <g class="cls-5">
        <g>
          <path class="cls-3" d="M26.4,55s0,0,0,0h3.7s0,0,0,0h-3.6,0Z"/>
          <path class="cls-4" d="M54.6,19.6c-1.5-5-4.3-9.3-8.2-12.7C42,3,36.9.8,31.1.2,30.4.1,29.8.2,29.2,0h-2c-.1,0-.3,0-.4,0-2.5,0-4.8.5-7.2,1.2-3.4,1.1-6.4,2.8-9.2,5.1-1.6,1.4-3.1,2.9-4.4,4.6-1.1,1.5-2.1,3.2-2.9,4.9-1.2,2.6-2,5.3-2.3,8.2-.2,1.7-.1,3.3-.1,5,0,1.5.2,3,.5,4.4.7,3.1,1.9,6,3.5,8.7,1.6,2.6,3.7,4.9,6,6.8,2.3,1.9,4.9,3.4,7.7,4.4,2.6,1,5.2,1.6,8,1.6,1.2,0,2.3,0,3.5,0,1.3,0,2.5-.2,3.7-.5,4.1-.9,7.8-2.6,11.2-5.1,3-2.3,5.4-5,7.2-8.3,2.2-3.9,3.4-8.2,3.6-12.7,0-3-.3-5.9-1.1-8.7h0ZM28.1,53.8c-14.4,0-26.3-11.9-26.2-26.4C1.9,13.1,13.7,1.1,28.3,1.2c14.6,0,26.3,12,26.2,26.4,0,14.4-11.9,26.3-26.4,26.2Z"/>
          <path class="cls-3" d="M50.8,27.6c0,5.7-2,10.7-5.8,15-3.8,4.4-8.7,6.7-14.5,7.3-5.9.6-11.4-.9-16.1-4.6,0,0-.2-.1-.3-.2-.5-.4-.5-.8-.2-1.2.4-.4.7-.5,1.3-.1.6.4,1.2.8,1.8,1.1,2.9,1.5,5.8,2.8,9,3.3,1,.2,2.1.2,3.1,0,2.4-.2,4.7-.6,7-1.5,3.1-1.2,5.7-3.2,7.9-5.7,2.2-2.6,3.8-5.5,4.6-8.8,1.3-5.5.4-10.6-2.4-15.5-.5-.8-1-1.6-1.6-2.3-.4-.6-.4-.9,0-1.3.5-.3.9-.3,1.3.3,2.6,3.5,4.3,7.4,4.8,11.7,0,.8.2,1.6.1,2.4h0Z"/>
          <path class="cls-3" d="M5.7,27c.1-6.2,2.6-11.9,7.7-16.4,3.4-3,7.5-4.8,12-5.4,4.4-.6,8.5,0,12.5,2,1.5.7,2.9,1.6,4.3,2.6.6.5.8.9.4,1.4-.3.4-.7.5-1.3,0-.6-.4-1.1-.8-1.6-1.2-3.3-2.1-6.8-3.3-10.7-3.3-3.1,0-6,.3-8.8,1.6-4.8,2.2-8.5,5.5-10.7,10.4-1.5,3.2-2.1,6.6-1.9,10.2.2,3.6,1.4,6.9,3.3,9.9.4.6.8,1.1,1.2,1.7.5.6.5,1,0,1.3-.4.3-1,.2-1.4-.3-1.6-2.1-2.8-4.3-3.6-6.8-.8-2.4-1.2-4.8-1.2-7.8h0Z"/>
          <path class="cls-3" d="M25.1,29.3c0,.8,0,1.5,0,2.3,0,.5-.2.8-.7.8-.5,0-.7-.3-.7-.8,0-1.5,0-3,0-4.4.1-3.5,3.8-5.7,6.8-3.9,1.5.9,2.3,2.2,2.3,3.9,0,1.5,0,3,0,4.5,0,.5-.2.8-.7.8-.4,0-.7-.3-.7-.8,0-1.5,0-2.9,0-4.4,0-1.5-1-2.8-2.4-3.1-2-.5-3.9.9-4,2.9,0,.8,0,1.5,0,2.3h0Z"/>
          <path class="cls-3" d="M44.3,27.2c0-1.1-.4-2.1-1.2-2.9-1.3-1.5-3-2.1-4.9-1.6-1.9.5-3.1,1.8-3.6,3.7-.8,3.4,2.3,6.6,5.7,5.9,1-.2,1.8-.6,2.6-1.4v.7c0,.2,0,.4.2.5.2.2.4.3.7.2.3-.1.5-.4.5-.7,0-1.5,0-3,0-4.4h0ZM39.3,31.1c-2,0-3.5-1.6-3.5-3.6,0-2,1.6-3.6,3.6-3.6,2,0,3.5,1.6,3.5,3.6,0,2-1.6,3.6-3.6,3.6Z"/>
          <path class="cls-3" d="M22,27.2c0-1.1-.4-2.1-1.2-3-2.5-2.9-7.1-1.9-8.3,1.7-1.1,3.1,1.3,6.5,4.6,6.5,1.3,0,2.5-.5,3.6-1.5,0,.3,0,.5,0,.6,0,.5.3.8.7.8s.7-.3.7-.8c0-1.5,0-2.9,0-4.4h0ZM17.2,31.1c-2,0-3.6-1.6-3.6-3.6,0-2,1.6-3.6,3.6-3.6,2,0,3.5,1.6,3.5,3.6,0,2-1.5,3.6-3.5,3.6h0Z"/>
        </g>
      </g>
    </g>
  </g>
</svg>