<?xml version="1.0" encoding="UTF-8"?>
<svg xmlns="http://www.w3.org/2000/svg" version="1.1" xmlns:xlink="http://www.w3.org/1999/xlink" viewBox="0 0 165 164">
  <defs>
    <style>
      .cls-1 {
        fill: #020202;
      }

      .cls-2 {
        fill: #fff;
      }

      .cls-3 {
        fill: none;
      }

      .cls-4 {
        display: none;
      }

      .cls-5 {
        clip-path: url(#clippath);
      }
    </style>
    <clipPath id="clippath">
      <rect class="cls-3" x=".5" y="0" width="164" height="164"/>
    </clipPath>
  </defs>
  <!-- Generator: Adobe Illustrator 28.6.0, SVG Export Plug-In . SVG Version: 1.2.0 Build 709)  -->
  <g>
    <g id="Capa_1">
      <g>
        <g id="Capa_2" class="cls-4">
          <rect class="cls-1" x="1" y="0" width="164" height="164"/>
        </g>
        <g id="Capa_1-2" data-name="Capa_1">
          <g class="cls-5">
            <g>
              <path class="cls-2" d="M149.8,82.4c-.2,17-6,31.9-17.3,44.7-11.5,13-26,20.1-43.1,21.8-17.7,1.8-33.9-2.6-48.1-13.6-.3-.2-.5-.4-.8-.7-1.4-1.3-1.6-2.3-.6-3.5,1-1.3,2.2-1.5,3.7-.3,1.7,1.2,3.5,2.4,5.3,3.4,8.5,4.5,17.3,8.3,26.9,9.8,3.1.5,6.2.5,9.4.2,7.1-.5,14.1-1.7,20.7-4.3,9.3-3.7,17-9.4,23.4-17,6.6-7.7,11.3-16.4,13.6-26.4,3.8-16.3,1.1-31.7-7.2-46.1-1.4-2.4-3-4.7-4.7-6.9-1.3-1.7-1.2-2.8.2-3.9,1.4-1,2.7-.8,3.9.8,7.9,10.4,12.8,21.9,14.3,34.9.3,2.4.5,4.8.4,7.2h0Z"/>
              <path class="cls-2" d="M15.3,80.4c.4-18.6,7.8-35.5,22.8-48.8,10.2-9.1,22.3-14.2,35.9-16.2,13-1.9,25.4.2,37.2,5.8,4.5,2.1,8.7,4.8,12.8,7.8,1.9,1.4,2.2,2.8,1.2,4.2-1,1.3-2.2,1.4-3.7.3-1.7-1.1-3.2-2.4-4.9-3.5-9.7-6.3-20.3-9.7-31.9-9.9-9.1-.1-18,.9-26.4,4.7-14.3,6.5-25.3,16.5-32,31-4.4,9.6-6.2,19.8-5.7,30.3.6,10.7,4,20.5,9.8,29.5,1.1,1.7,2.3,3.4,3.5,5.1,1.4,1.8,1.4,3,0,4-1.3,1-2.9.7-4.2-1-4.8-6.1-8.4-12.8-10.9-20.2-2.3-7.1-3.5-14.3-3.6-23.2h0Z"/>
            </g>
          </g>
        </g>
      </g>
    </g>
  </g>
</svg>