<?xml version="1.0" encoding="UTF-8"?>
<svg xmlns="http://www.w3.org/2000/svg" version="1.1" viewBox="0 0 61 124">
  <defs>
    <style>
      .cls-1 {
        fill: #bf5081;
      }
    </style>
  </defs>
  <!-- Generator: Adobe Illustrator 28.6.0, SVG Export Plug-In . SVG Version: 1.2.0 Build 709)  -->
  <g>
    <g id="Capa_1">
      <path class="cls-1" d="M49.8,119.5c-6.5,6.9-14.3,3.4-21.9,1-3.8-1.2-5.6-4.7-7.3-7.1,4.2.1,8.7-.2,13,.5,3.9.6,7.5,2.4,11.3,3.7,1.9.6,3.7,1.4,5,1.9h0Z"/>
      <path class="cls-1" d="M35.7,110.8c-7,5.3-13.2.7-19.6-2.6-3-1.6-5-5-5.7-8.4,3.1.7,6.5,1.7,10,2.3,4.3.7,7.6,3.3,11,5.7,1.6,1.1,3.1,2.2,4.3,3h0Z"/>
      <path class="cls-1" d="M3.4,84.2c2.1,1.2,3.9,2.8,6,3.4,5.2,1.4,8.7,4.7,11.9,8.7,1,1.2,2.1,2.3,2.9,3.3-5.5,3-9.9-.1-14.3-3.3-4.3-3.1-6.7-7-6.5-12.1Z"/>
      <path class="cls-1" d="M45.8,112.2c1,1.1,2.1,2.2,3.2,3.4-.5.2-.7.3-.7.3-2.9-4.2-8.6-5.9-10.2-11.2-.5-1.5-.4-3.2-.4-4.8,0-1.8.2-3.7.4-5.5.1-1.1.3-2.2.6-3.8,4.4,4.4,7.2,9.2,8.7,14.5.6,2-.5,4.5-.8,6.8-.2,0-.5.2-.7.3h0Z"/>
      <path class="cls-1" d="M.5,68c2.4,1.9,5,3.6,7.1,5.8,2.4,2.6,4.3,5.7,6.3,8.6,1,1.4,1.7,3,2.9,4.9-3.1-1-6.5-1.3-9-3-2.6-1.7-4.4-4.7-6.3-7.3-2.2-2.9-1.5-6.2-1-9Z"/>
      <path class="cls-1" d="M35.5,107.5c-2.2-3.2-4.6-6.2-6.4-9.6-1.3-2.5-1.5-5.3,0-8.2,1.2-2.2,1.6-4.8,2.3-7.2h.8c.9,1.8,2.1,3.6,2.7,5.6.8,2.6,1.6,5.4,1.8,8.1.1,1.8-.4,4-1.5,5.4-1.2,1.6-1.4,2.5-.2,4,.4.5.5,1.2.7,1.9-.1,0-.2.1-.4.2Z"/>
      <path class="cls-1" d="M12,72.1c-7.3-.5-9.8-6.3-11.2-12.5-.6-2.6.6-5.6,1-8.6,2.3,3,4.5,5.4,6,8.1,1.4,2.6,2,5.6,3,8.5.5,1.6,1,3.3,1.3,4.5Z"/>
      <path class="cls-1" d="M28.5,72.8c.1,4.6.4,9.1.3,13.7,0,1.3-.9,3.1-1.9,3.8-2,1.5-2.9,2.8-1.5,5.1,0,.1,0,.4,0,.5,0,.2-.2.3-.3.5-1.3-3.3-2.9-6.4-3.7-9.7-.7-2.9-.3-5.7,2.1-8.2,1.6-1.6,2.5-4,3.7-6,.4,0,.9.1,1.3.2h0Z"/>
      <path class="cls-1" d="M11.3,56.5c-6.4-1.8-6.5-7.8-6.4-13.5,0-2.5,1.9-4.9,3-7.5,3.2,7.3,5.8,14.1,3.4,21Z"/>
      <path class="cls-1" d="M25.1,62.1c1.1,6.6-.6,16.3-7.3,17.7v3.9c-.2,0-.5,0-.7,0,0-4.2-1-8.8.3-12.6,1.2-3.5,5-6,7.7-9Z"/>
      <path class="cls-1" d="M13.1,69.5c1.1-3.8,1.4-8.3,3.6-11.4,2.1-3,6.3-4.5,9.8-6.9,0,6-5.3,13.2-10.3,14.7-.6.2-1.2.9-1.5,1.6-.4.7-.5,1.5-.7,2.2-.3,0-.6-.1-.8-.2Z"/>
      <path class="cls-1" d="M17.2,22.4c1.7,7.2,2.4,13.8-1.6,19.5-5.1-3.1-3.8-8.4-2.6-13.3.6-2.2,2.7-4.1,4.2-6.2h0Z"/>
      <path class="cls-1" d="M30.2,41c-1.6,4.8-4.7,7.9-8.3,10.5-.6.5-1.6.8-2.4.7-2.5-.3-4.3.3-5.1,3-.2-.2-.5-.4-.7-.6,2-3.1,3.3-7,6-9.3,2.8-2.3,6.9-3,10.5-4.3h0Z"/>
      <path class="cls-1" d="M23.7,28.6c-3.9-3.6-2-7.9-.2-11.9,1-2.1,3.1-3.6,4.9-5.7.7,7.1,0,13.1-4.7,17.6h0Z"/>
      <path class="cls-1" d="M37,31.3c-4.6,6.6-11.3,9.7-15.6,7.3,1.4-5.2,6-7.4,15.6-7.3Z"/>
      <path class="cls-1" d="M45.3,22.2c-5.5,5.4-11.5,7.2-16,4.8,2.4-4.8,6.8-6.1,16-4.8Z"/>
      <path class="cls-1" d="M34.3,17.1c-2.2-2.9-1-6,.6-9.2,1.4-2.8,3.4-4.8,6.4-5.5-.4,5.8-1.7,11.3-7,14.7h0Z"/>
      <path class="cls-1" d="M47.5,7C48.8,1.8,53-.3,61,0c-2.3,5-9.4,8.7-13.5,6.9Z"/>
      <path class="cls-1" d="M55.4,13.7c-5.3,4.5-11,5.3-15.9,2.8,4.4-5.6,10.1-3.4,15.9-2.8Z"/>
    </g>
  </g>
</svg>