<?xml version="1.0" encoding="UTF-8"?>
<svg xmlns="http://www.w3.org/2000/svg" version="1.1" viewBox="0 0 346 342">
  <defs>
    <style>
      .cls-1 {
        fill: #cdad66;
      }

      .cls-2 {
        fill: #f9d484;
      }
    </style>
  </defs>
  <!-- Generator: Adobe Illustrator 28.6.0, SVG Export Plug-In . SVG Version: 1.2.0 Build 709)  -->
  <g>
    <g id="Capa_1">
      <path class="cls-2" d="M166.4,54.3c.6.1,1.2.3,1.8.5l.7.3v.3s0,0,0,0c.4-.2.7-.3,1-.3l-.4-1.1h1.2s0,0,.1,0h0s0-.6,0-.6h.6s.3-.3.3-.3h1.1s.2.2.2.2c.2,0,.3,0,.5.1v-.9c0,0,1.2.1,1.2.1.1,0,.4,0,.6-.1.2,0,.4-.1.6-.1h.1s1.2,0,1.2,0h0c.2-.3.4-.6.6-.9l.4-.6h.3s0,0,0,0c.4-.2.8-.3,1.1-.3,0,0,.2,0,.3,0,.3,0,.6-.2,1-.2h.4s0,0,0,0c-.6-.6-.9-1.3-1.1-1.9l-.2-.2v-.3s0,0,0,0h0c-.3-.4-.4-.7-.5-.9h0c0,0-.2-.2-.2-.2h0c0-.2-.1-.3-.2-.4h0c-.3-.3-.7-.7-.6-1.5-.1-.3-.2-.7-.2-1l-.3-.3v-1s-1.6,0-1.6,0l-.2-.2s-.1,0-.2,0c-.1,0-.2-.1-.3-.1l-.6-.3v-1c-.3-.3-.6-.5-.9-.7l-.4-.3v-.5s0,0,0,0c0,0,0-.2-.1-.4-.2-.2-.4-.5-.7-.7-.1-.1-.2-.2-.4-.4l-.2-.2v-.3c0-.1,0-.2-.1-.3,0-.3-.2-.8-.1-1.3v-.3s.3-.4.3-.4c.3-.5.6-.9.6-1.4v-.3s.2-.3.2-.3c0,0,.1-.4.2-.7h0c0-.1-.1-.2-.1-.3h0s-.3-.3-.3-.3v-1.1s.3-.4.3-.4c.2-.3.4-.6.8-.9l.3-.3h.4s0,0,0,0l.4-.4h.9c.5,0,1,0,1.5,0v-.8s.2,0,.2,0h0s0,0,0,0l-.2-.2v-.4c0-.2,0-.4.2-.6v-.2l.3-.3s0,0,0,0c0-.3.1-.6.3-.9v-.7h0c.1-.6.4-1.3,1-1.8,0-1.1-.6-1.6-1.9-1.9h-.4c0-.1-.2-.5-.2-.5-.6-1-1.7-2-3.3-3.1h0c-.5,0-.8-.1-1.2-.2-.2,0-.4-.1-.6-.1-.5.7-.8,1.2-.8,1.9v.7s-.6.3-.6.3c-.2,0-.2.1-.4.3l-1.6-1.5c.2-.3.2-.8.2-1.4,0-.5,0-1.1.2-1.6v-.2s.1-.1.1-.1c.1-.2.2-.4.3-.6,0-.2.2-.3.3-.5,0-.2,0-.4,0-.6,0-.4,0-.9,0-1.2-1.8-2.6-4.5-4.9-7.7-6.5h-.4s0,0,0,0h0c-.3.3-.5.4-.7.5q-.3.2-.4.6v.6c-.1,0-.7.2-.7.2-.9.3-1.5.6-2,1.2h-.1c0,.1-.1.2-.1.2-.4.2-.8.4-1.2.4,0,.3-.2.5-.3.7l-.2.3h-.3c0,.2,0,.2-.1.2h0c.2.3.4.6.6,1.1v.3c0,0,0,0,0,0,.2,0,.4,0,.7,0h.4c0,0,.1.2.1.2h.7s0,.2,0,.2h0v.9c.2.5.1.8,0,1.1,0,0,0,.1,0,.2v.2s-.1.1-.1.1c-.5.9-1.4,1.2-2,1.5-.4.1-.7.3-.8.4l-.4.5h-.6c-.2-.1-.4-.1-.5-.2,0,0-.1,0-.2,0l-.3.3h-.7c-.1,0-.3,0-.4.1h0c0,.2.1.4.2.6v.2c0,0,0,.2,0,.2,0,.1,0,.3,0,.5,0,.5.2,1.2-.2,1.9v.2c-.1,0-.4.1-.4.1-.4.2-.6.5-.9.8,1.5,1.6,2.8,3.1,4,4.5.3,0,.6,0,.9,0,.1,0,.2,0,.3,0,.3-.1.6-.2.8-.2h0c0,0,.1-.1.2-.2l.4-.4.6.2c0,0,.2,0,.3,0,0,0,0,0,.1,0h.6c0,0,.4.4.4.4,0,0,0,0,0,0,.1.1.3.3.5.6h0c.2.1.3.2.5.4l.3.3v.5c0,.4,0,.8-.1,1.1,0,.4,0,.8,0,1.2v.4s-.1.3-.1.3h0s.3,0,.3,0h0c0,.1,0,.1,0,.1h.4s.3.2.3.2c0,0,.2.1.3.2.3.2.6.4.9.8l.2.2v.3c.2.5,0,.9,0,1h0s0,.2,0,.2c.2.3.3.6.5.9,0,.1.1.3.2.4l.4.3v1.2s-.2.2-.2.2c0,0,0,.2,0,.3v.4c-.1,0-.5.3-.5.3v.3s-.3.3-.3.3c0,0-.3.3-.5.4-.1,0-.2.2-.3.2,0,.4,0,.8,0,1.3v.3s-.1.2-.1.2c-1,1.7-1.4,4.2-.3,6,.3.1.6.3.7.5l.3.3v2.4s.7.7.7.7v.3c0,0,.1,0,.2,0h.3c0,0,1.3,1.4,1.3,1.4h0s.8,0,.8,0v.8s0,0,0,0l.2.2ZM169.5,57.7h-1.4s-.3-.3-.3-.3c-.2-.2-.4-.3-.5-.5,0,0-.1-.1-.2-.2-.4-.1-.9-.2-1.3-.3h-.4c0,0-2.5-2.6-2.5-2.6-.1,0-.2,0-.3-.1-.1,0-.3-.1-.4-.1l-.8-.2v-.6s-.5,0-.5,0v-.2s-.2,0-.2,0v-3.1s-.2,0-.2,0l-.3-.4c-1.8-2.5-1.3-6.1,0-8.4,0-.4,0-.7-.1-1.1l-.2-1,.7-.4c.3-.1.5-.2.7-.4v-.2l.6-.6c0,0,0-.1,0-.2-.1-.2-.2-.4-.3-.6,0-.2-.2-.4-.2-.5h-.1c0-.1,0-.3,0-.3-.3-.6-.4-1.2-.1-1.6h0c0,0,0,0,0,0-.2,0-.5,0-.8-.2h0c-.5,0-1.1,0-1.6-.4l-.6-.4v-.6c0-.6.4-1.1.8-1.3.1-.1.2-.2.3-.4,0-.5,0-.9,0-1.3,0-.1,0-.2,0-.4-.1,0-.2-.2-.3-.3l-.2-.2v-.2c0,0-.1,0-.1,0h0c0,0-.3.4-.3.4h-.5s0,0,0,0h0c0,0-.6.1-.6.1-.5,0-.9,0-1.2,0-.3,0-.4,0-.5,0l-.7.3-.5-.6c-1.4-1.6-2.9-3.2-4.7-5.2h-1.7s1.4-1.8,1.4-1.8c.5-.6.9-1.2,1.6-1.7,0,0,0-.2,0-.3,0-.3-.1-.6-.1-1,0,0,0-.1,0-.2,0-.2-.1-.4-.2-.6v-.2c0,0,0-.2,0-.2,0-.3.2-.6.3-.9,0,0,0-.1,0-.2v-.2c.1,0,.3-.2.3-.2.4-.3.8-.3,1-.4h0s.2-.2.2-.2h.4c.6-.4,1.3-.3,1.7-.2.4-.3.9-.5,1.3-.6h0c0,0-.1,0-.2,0h-.3s-.2-.2-.2-.2c-.8-.6-.8-1.5-.7-2,0,0,0,0,0-.1-.3-.4-.7-.9-.6-1.7v-.5s.4-.3.4-.3c0,0,.1-.1.2-.2.1-.1.2-.3.4-.4,0-.1,0-.2,0-.3v-.4s1-1,1-1h.5c.2,0,.3,0,.5,0,.7-.7,1.5-1.1,2.2-1.4.2-.5.5-.8.8-1.1-.3-.4-.6-.7-.8-1.2l-1.2-2.4,2.5.8c.5.2.9.5,1.2.9l1.1.5c4,1.9,7.4,4.6,9.6,7.8h0c0,.1,0,.2,0,.2.3.7.3,1.5.3,2.2,0,.3,0,.5,0,.8v.4s0,0,0,0c.4,0,.8.1,1.1.2.3,0,.5.1.8.1h.4c0,0,.3.2.3.2,1.9,1.2,3.2,2.4,4,3.6,2.2.6,3.3,2.1,3.2,4.4v.5s-.5.3-.5.3c-.5.3-.6.6-.6,1.5h0s0,.5,0,.5l-.3.3v.4s-.2.2-.2.2c.2.2.4.4.5.7h0c0,0,0,.2,0,.3,0,.1,0,.2,0,.3v1.1s-.2,0-.2,0v.2s-.6,0-.6,0v.3l-.7.7h-.3c-.9.3-1.8.3-2.7.2l-.3.3h-.2l-.2.2h0,0v.3l.3.3v.6c-.2,0-.2.2-.2.3,0,.4-.2.9-.4,1.3-.1.8-.5,1.5-.9,2.1,0,0,0,.2,0,.3,0,0,0,0,0,.1h0c.4.5.8.9,1.2,1.5v.2c.1,0,.1.3.1.3h0c0,.1,0,.2,0,.2.4.3.8.7,1.1,1l.3.3v.5s2.6,0,2.6,0v.2h.2v2.1s.3.3.3.3v.4c0,0,0,.2,0,.3,0,0,0,.2,0,.3h0c.1.3.1.6.1.8,0,0,.1.1.2.2h.6s0,.9,0,.9h0c0,0,.9,0,.9,0l-.2,1.1h0c0,0,.2.2.2.2v.3c.2.6.4,1,.7,1.2l.2.2v.3c.2.3.4.5.6.8.1.1.2.3.3.4,0,0,0,0,.1,0,.4,0,.8,0,1.3.4h0c0,0,2.3,2.3,2.3,2.3h-2.4s-.2,0-.2,0c-.2.1-.8.4-1.4.1-.7,0-1.5.2-2.3-.2h0c-.5,0-.8-.2-1-.5-.2,0-.4.1-.7.2v.2c0,0-.4,0-.4,0-.3.4-.5.8-.9,1.1l-.3.3h-.1s-.2.2-.2.2h-1.8c0,0-.2,0-.2,0-.1,0-.2,0-.4.1,0,.1-.1.3-.2.4h0c0,.1-.6.7-.6.7h-1.7s-.3-.3-.3-.3h0s0,0,0,0c0,0,0,0-.1.1l-.3.3c0,.3,0,.7-.3.9-.5.6-1.2.5-1.5.5-.2,0-.3,0-.5,0-.1.1-.3.2-.3.2h0s-.3.3-.3.3Z"/>
      <path class="cls-1" d="M179.9,25.3c-.3.3-.3.5-.3.8-.2.2-.2.3-.3.5,0,.2-.2.2-.2.3.2.2.2.5.3.6.2,0,.4-.1.5.2,0,0,0,.3,0,.3,0,0-.2,0-.2.2-.2,0-.2.2-.3.2-.2.2-.2.3-.3.3,0,.2,0,.3,0,.5,0,0-.1.1-.2.2-.9.2-1.9.1-2.9.1q-.2.2-.3.3c-.2,0-.3.2-.3.2q-.2,0-.3,0c-.3.2-.4.5-.6.8q0,.2,0,.3c.2.2.2.3.3.5,0,.2.2.3.2.3-.1.4-.2,1.1-.5,1.5,0,.8-.5,1.4-1,2.1,0,.5.1.8.2,1.3.5.5,1,.9,1.3,1.5,0,.3.2.5.2.8.5.3.9.7,1.3,1.1,0,.2,0,.6,0,.8.2,0,.6.2.7.3.7,0,1.3,0,1.9,0,0,0,0,.2.2.2,0,.5,0,1,0,1.5,0,0,.2.2.3.3,0,.3,0,.8.2,1.1,0,.1-.2.7.2.8.2.2.3.4.5.7h.2v.2c.2.2.2.6.5.8h.2c0,.2.1.4.2.6,0,0,.1.1.2.2.2.7.4,1.3,1,1.8.3.8.7,1.1,1.1,1.8.4.2,1.1,0,1.5.3q.2.2.3.3t-.3.2c-.2,0-.6.3-.6,0-.8,0-1.6.3-2.4-.2-.2,0-.4.1-.5-.2-.2-.2-.3-.3-.3-.5-.4,0-.9.3-1.3.3-.2,0-.6,0-.6.2-.2,0-.2.2-.3.2-.3.4-.6.9-1,1.3-.2,0-.3.2-.3.2-.5,0-1,0-1.5,0-.4,0-1,.3-1.5.3,0,.3,0,.6-.2.8,0,0-.1.1-.2.2-.2,0-.7,0-.8,0,0,0-.1-.1-.2-.2-.2,0-.7-.2-.8-.2,0,0-.1-.1-.2-.2,0,0-.1,0-.2,0,0,0-.1.1-.2.2,0,0,0,.2-.2.2,0,.2-.2.3-.2.3-.2,0-.3,0-.5.2-.2,0-.2.2-.3.2.7,1.9-.6.7-1.6,1.3-.2.2-.3.2-.5.3-.2,0-.3,0-.5,0-.2-.2-.3-.2-.3-.3-.2-.2-.3-.3-.3-.5-.6-.2-1.3-.4-1.9-.5-.2-.2-.5-.5-.7-.7,0-.2-.2-.2-.2-.3-.2,0-.2-.2-.3-.2-.5-.5-.8-.9-1.3-1.3-.3,0-.6-.2-1-.3,0-.2,0-.6,0-.6,0,0-.1-.1-.2-.2q-.2,0-.3,0s0-.2-.2-.2c0-.9,0-1.9,0-2.8-.2-.2-.5-.3-.6-.3-1.5-2.1-1.1-5.3.1-7.5,0-.7,0-1.1-.2-1.8.3-.2.6-.3,1-.6.2,0,.3-.2.3-.2,0-.2,0-.3,0-.3.2-.2.3-.3.5-.5,0-.2.2-.7.3-.8v-.2c-.4-.3-.5-1.2-1-1.6-.1-.3-.3-.5,0-.8,0-.2.2-.4.2-.6-.3-.3-.7-.6-1-.8-.2,0-.7,0-.8-.2-.5,0-1,.1-1.5-.2,0-.2-.1-.4.2-.5.3-.3.6-.6.8-1,0-.8.1-1.6.1-2.4-.2-.2-.5-.3-.6-.5-.1-.4-.3-.4-.5-.7-.3,0-.5,0-.8-.2-.2.2-.5.3-.6.5-.2,0-.7,0-.8.2-.8,0-1.2-.3-1.9,0-1.6-1.8-3.2-3.6-4.9-5.4,0,0,0-.2-.2-.2.5-.7,1-1.3,1.8-1.8.4-.6-.1-1.4,0-2.1,0-.3-.2-.7-.3-1,0-.3.2-.6.3-.8.3-.2.6,0,1-.3.2,0,.3,0,.5,0,0,0,.1-.1.2-.2.5-.3.9,0,1.5,0,.7-.9,2.2-.7,2.7-1.8,0-.3.2-.6.2-1,0,0-.2,0-.2-.2q-.2,0-.3-.2c-.5,0-.9.2-1.5.1-.5-.4-.3-.8-.2-1.3-.2-.6-.9-1-.8-1.6.3-.2.5-.7.8-.8.2-.3.3-.6.3-1q.2-.2.3-.3c.5,0,.9,0,1.3-.3.7-.7,1.4-1.1,2.4-1.4.3-1.1.7-1,1.4-1.6v-.2c-.5-.7-1-1.2-1.3-1.8.8.3,1,1.6,2.1,1.7q0-.2,0-.3c3.5,1.6,6.9,4.2,9.1,7.4.3.8.1,1.8.2,2.6-.3.5-.5,1-.8,1.4-.3,1,.2,2.5-.6,3.4.2-.2.3-.3.6-.5,0-1.2.5-2.1,1.3-2.9,1-.3,1.6.3,2.6.2,1.4.9,3.1,2.2,3.9,3.6,1.9.4,2.9,1.4,2.8,3.4-1,.6-1.1,1.4-1.1,2.4Z"/>
      <path class="cls-2" d="M180,24.4v.9s.9,0,.9,0c0-.5-.5-.9-.9-.9ZM185.8,50.9c.6,0,1.2.2,1.8.4,0,0,.2,0,.3,0,0,0,0-.1-.1-.1l-.4-.3v-.3h-.8s0-1.8,0-1.8l.9-.9h0c0,0,0-.5,0-.5l.8-.8h.8c.2,0,.4,0,.6.2h.2l.3.4c.3.4,2,.5,2.5.2l.3-.3h.5c.1,0,.3,0,.6,0,.3,0,.7-.2,1.2-.2h0s.3-.3.3-.3h1.7s0,.8,0,.8c.2,0,.4,0,.5,0,0,0,0,0,.2,0h.7s.4.7.4.7h0c.2-.2.5-.3.6-.4h0s0-.1,0-.1c1-1.5,1.6-2.5,1.2-3.8l-.2-.6.3-.3.2-.3c.2-.3.4-.5.5-.7.1-.1.2-.3.3-.4,0-.2.1-.4.2-.5,0-.1,0-.2,0-.3h0c0-.3-.1-.4-.2-.5h0s-.3-.3-.3-.3v-.3c-1.1-.8-1.8-1.9-2-3l-.3-.3v-.4c0-.2,0-.5-.2-.8-.1-.6-.3-1.3-.1-2-.2-.7-.3-1.6-.3-2.6v-.2s0-.2,0-.2c0,0,0-.1,0-.2v-.4s.2-.3.2-.3c.4-.6.8-1.1,1.2-1.6.1-.2.3-.4.4-.5l.2-.2h.2c0-.2.1-.2.2-.2.2-.6.4-1.1.5-1.6,0,0,0-.2,0-.2h0c-.5-.1-.9-.2-1.4-.4-2.5-.5-4.8-1.1-7.2-.5h-.2c0,0-.2,0-.2,0-.2,0-.4,0-.6-.1-.6-.1-1.4-.3-1.9-.2,0,.2,0,.4,0,.5,0,.1,0,.2,0,.3l.2,2.8-2-2c-.2-.2-.3-.4-.3-.5-2-.7-4.2-1-6.4-1.3h-.2c-.1.2-.2.5-.3,1,0,.5-.2,1.1-.4,1.7l-.3.6h0v.2h.2v1.1c0,.4-.1.9-.4,1.2-.1,0-.2.2-.4.2v.5s-.4.3-.4.3c-.9.7-2,.6-2.7.5-.2,0-.4,0-.5,0-.2.2-.5.4-.8.5.4.8.3,1.3,0,2,0,0,0,.2-.1.3v.2c0,0-.2,0-.2,0,0,.1,0,.3,0,.4,0,.1,0,.2,0,.3v.2s-.1.2-.1.2c-.2.3-.4.7-.7,1.1,0,0,0,.2,0,.3,0,0,0,0,0,0h0c.4.5.8.9,1.2,1.5v.2c.1,0,.1.3.1.3h0c0,.1,0,.2,0,.2.4.3.8.7,1.1,1l.3.3v.5s0,0,.1,0c.1,0,.3,0,.4,0,.6,0,1.3,0,1.8.4.5.5.5,1.1.5,1.6,0,0,0,.2,0,.2l.3.3v1c.1.3.2.5.2.8h0c0,0,.1.1.2.2h.6s0,1,0,1h0s.9,0,.9,0l-.2,1.1h0c0,0,.3.3.3.3v.3c0,0,0,.1,0,.2.1.2.2.4.2.6.1.2.2.3.3.4h.1c0,.1,0,.3,0,.3,0,.2.2.4.3.6.1.3.3.6.5.8,0,0,.2,0,.2,0,.3,0,.7,0,1.1.3h.1c0,0,.2.2.2.2ZM189,53.8h-.5c-.5-.2-.9-.3-1.4-.4-.6-.2-1.2-.3-1.7-.3h-.4l-.5-.5c0,0-.1,0-.3,0-.2,0-.5,0-.9-.2h-.2c0,0-.2-.2-.2-.2-.4-.4-.8-1-1.1-1.6,0-.1-.1-.2-.2-.3-.3-.3-.5-.5-.6-.8l-.3-.4v-.2l-.2-.2v-.3s0,0,0-.1l-.2-.2v-.3s0,0,0,0h0c-.3-.4-.5-.7-.6-1h0c-.1-.2-.2-.4-.3-.5h0s-.6,0-.6,0v-1.1c0,0,0-.3,0-.3l-.2-.2v-.8s-.3-.3-.3-.3v-.4c0-.2,0-.5,0-.6h0s-.1,0-.1,0c0,0-.2,0-.3,0-.4,0-1,0-1.4-.3,0,0,0,0-.1,0h-.8s0-1.4,0-1.4c-.3-.3-.6-.5-.9-.7l-.4-.3v-.5s0,0,0,0c0,0,0-.2-.1-.4-.2-.2-.4-.5-.7-.7-.1-.1-.2-.2-.4-.4l-.2-.2v-.3c0-.1,0-.2-.1-.3,0-.3-.2-.8-.1-1.3v-.3s.2-.2.2-.2c.3-.4.5-.7.7-1.1h0c0-.4.1-.9.4-1.2,0,0,0-.1,0-.2,0-.1,0-.2.1-.3,0,0,0-.1-.2-.3l-.3-.3v-1s.3-.4.3-.4c.2-.3.4-.6.8-.9l.4-.3h.4c0,0,0,0,0,0l.3-.3h.4c.5-.1.9,0,1.3,0,.3,0,.6,0,.8,0h0c0,0,.2-.3.2-.3,0,0,.1-.1.2-.2,0-.1,0-.2-.1-.3h0s-.2-.2-.2-.2v-.4c0-.2,0-.4.2-.6v-.2s.3-.3.3-.3c0,0,0,0,0,0v-.4s.3-.3.3-.3c0,0,0,0,.1-.1,0,0-.1.2-.1.4h.9s-.6-.3-.6-.3c.1-.3.2-.6.2-1,.1-.9.3-2.2,1.7-2.8h.3c0-.1.9,0,.9,0,2,.3,4.1.6,6.1,1.2l.2-.2c1.2-1.3,3-.9,4.3-.7,0,0,.2,0,.3,0,2.8-.6,5.4,0,7.9.5.5.1,1,.2,1.6.3h.3c0,0,.1.2.1.2h0c.2,0,.5.2.7.4l.3.3v.4s0,0,0,0h.1c0,.1,0,.5,0,.5,0,1.1-.3,2-.6,2.9v.3c-.1,0-.3.2-.3.2-.2.2-.4.4-.7.6-.1.1-.2.3-.3.4-.3.4-.6.8-.9,1.2,0,.2,0,.4-.2.6,0,.8,0,1.5.3,1.9l.2.4-.2.4c-.1.2,0,.6,0,1.1,0,.2.1.5.2.8l.4.4v.5c0,.7.6,1.4,1.3,1.8l.5.3v.4c0,0,0,.1,0,.2,0,0,0,.2.1.2l.8.8-.2.6c-.1.3-.1.3,0,.7v.5s-.3.3-.3.3v.2l-.2.3c-.2.3-.4.5-.5.7,0,.1-.2.2-.3.4,0,0,0,0,0,.1.3,2-.7,3.6-1.6,5l-.3.4h-.1c-.2.3-.4.4-.6.4h0s0,.7,0,.7h-1.7c-.5,0-.9-.2-1.1-.3l-.8-.4h0s-.6,0-.6,0l-.3-.3c-.2,0-.3-.2-.4-.3h-.3c0,0-.3,0-.3,0-.1,0-.2,0-.4.1-.3,0-.6.2-.9.2-.8.5-1.8.5-2.3.5-.4,0-1.3,0-2.1-.4l-.2.2c0,.1.2.3.2.5,0,0,.1.2.2.2,0,0,.1.1.2.2l.5.3v2.3s-.8.8-.8.8h-.3s-.2.2-.2.2Z"/>
      <path class="cls-1" d="M202.5,26.9c-.2.2-.3.3-.6.5-.5.7-1.1,1.3-1.6,2.1,0,.4,0,.4-.2.6,0,.8,0,1.8.4,2.6-.4.9.2,1.8.2,2.8,0,0,.2.2.3.3,0,1.2.8,2.2,1.8,2.8,0,.2.2.3.2.5.2.2.2.3.3.7,0,0,.1,0,.2,0,0,0,.1.1.2.2-.2.4-.2.6-.2,1.1-.2.2-.3.5-.3.6-.3.5-.6.8-1,1.3q0,.2-.2.3c.5,1.9-.6,3.4-1.6,5-.2.2-1,.4-1,.8-.2,0-.4,0-.6,0-.3,0-.4,0-.6-.2,0-.3,0-.4-.2-.6-.3,0-.7,0-1,.1,0,0-.1,0-.2,0-.2-.2-.3-.2-.3-.3-.2-.2-.2-.3-.3-.3q0-.2,0-.3c0,0-.1,0-.2,0-.2.2-.3.2-.5.3-.8-.2-1.4.4-2.1.3-.6.7-3.3.7-4.1-.2-.2,0-.2-.2-.3-.2,0,0-.2,0-.3,0,0,0-.1.1-.2.2,0,.3-.2.5-.2.8,0,0-.1.1-.2.2-.2,0-.2.2-.3.2q-.2.2-.3.3t0,.3c.2,0,.3.2.5.2.2.2.3.3.3.6.3.2.6.7.8.8,0,.4,0,.8,0,1.1,0,0-.1.1-.2.2-.2,0-.3,0-.5.2-1.1-.2-2.1-.7-3.2-.7-.2-.2-.2-.2-.3-.3-.5-.3-.8-.1-1.5-.3-.4-.4-.8-1.3-1.2-1.8-.3-.2-.4-.5-.7-.8,0-.2,0-.3-.2-.5,0-.2-.2-.3-.2-.5,0,0-.1-.1-.2-.2,0-.2-.2-.4-.2-.7h-.2c-.3-.2-.4-.5-.5-1,0,0-.1,0-.2,0-.2-.2-.3-.5-.5-.7,0,0,0-.2-.2-.2,0-.2,0-.7-.2-1,0-.2,0-.5,0-.8,0,0-.2-.2-.3-.3,0-1.2.5-1.8-1.1-1.6-.4,0-1,.1-1.3-.2-.2,0-.2-.2-.3-.2,0-.2,0-.6,0-.8-.4-.4-.8-.8-1.3-1.1,0-.3-.2-.5-.2-.8-.3-.6-.8-1-1.3-1.5,0-.5-.2-.8-.2-1.3.3-.4.5-.8.8-1.3,0-.3.1-.9.3-1.1.3-.9.5-1.1-.2-1.9q0-.2,0-.3c.2-.3.4-.6.6-.8.5,0,.7-.2,1-.5,1-.1,2.2.4,3.1-.3,0-.2,0-.3,0-.5.2-.3.3-.3.6-.5.1,0,.2-.2.2-.3v-.2s-.2,0-.2-.2q-.2,0-.3,0c-.2-.2-.2-.5-.3-.7,0-.2.2-.2.2-.3.2-.2.2-.3.3-.5q0-.2,0-.3c.2-.2.3-.3.3-.5,0,0,0,.2.2.2.6-1.1.1-2.7,1.4-3.4,2.6.4,5.2.7,7.6,1.6.2.2.2.5.3.7,0-.5,0-1-.2-1.5,1-1,2.6-.5,3.9-.3,3.2-.8,6.1.2,9.2.8.2.2.5.2.7.3,0,.2,0,.5.2.6,0,.9-.3,1.7-.6,2.6Z"/>
      <path class="cls-2" d="M203.2,49.5s0,0,.1,0c.3-.2.5-.3.8-.5.3-.2.5-.3.6-.4l.2-.3h.2c.2-.2.6-.4,1.1-.2h.3c0,0,.2.3.2.3.1,0,.2.2.3.3.2,0,.6.1.8,0,0,0,.1,0,.2-.1,0,0,0,0,.1-.1.3-.3.7-.4.9-.4h.4s.3.2.3.2c.3.3.5.5.7.8h.9s.1,0,.1,0v-.2l.9-.2c0,0,.3-.1.4-.2.1,0,.2-.1.4-.2.2-.3.4-.6.5-.9,0-.2.1-.4.2-.6.2-.7.4-1.6,1-2.3.1-.3.2-.6.3-.8,0-.4.1-.8.2-1v-.2c0,0,1.1-1,1.1-1h.1c.3-.4.5-.8.7-1.2.1-.3.3-.6.5-.9v-1.3s.7,0,.7,0l.3-.3c0-.1.2-.3.3-.4h0s0-.2,0-.2c.2-.7.7-1,1.1-1.2,0-.2-.2-.5-.2-.7h0c-.1,0-.2.1-.4.3l-1.4.9-.3-1.6c-.1-.6,0-1,.2-1.2h0c0-.3,0-.7-.7-1.4,0,0-.2.1-.3.2l-2.5,1.2,1.1-2.8c0,0,0-.1,0-.2-1.4-.8-2.7-1.8-3.9-3.2-2-.5-4.3-1.1-6.4-2.4h0c0,.3-.2.6-.3.8-.1.3-.2.6-.3.8v.5c-.1,0-.6.2-.6.2-.7.3-1.2,1-1.7,1.7-.1.2-.2.3-.4.5,0,.2,0,.4-.2.6v.8c0,0,0,.1,0,.2.1.3.3.8.3,1.4v.2s0,.2,0,.2c-.1.2,0,.6,0,1.1,0,.2.1.5.2.7l.4.4v.5c-.1.4.4,1,1.3,1.8l.3.2v.4c.2.1.2.3.3.4l.9.9-.3.7c0,0,0,.4,0,.5v.2s0,.2,0,.2c-.2.7-.6,1.2-1,1.7-.1.2-.3.3-.4.5.4,1.7-.5,3.2-1.2,4.3-.2.3-.4.7-.6,1l-.2.3h-.1c0,0,.2.1.2.1,0,0,.2,0,.3,0h.5c0,0,.3.2.3.2ZM203.4,51.8h0c-.2,0-.5,0-.6-.2-.1,0-.3,0-.5-.1-.4,0-.7-.2-.9-.3,0,0-.2,0-.3,0h-.4l-.3-.2s0,0-.1,0c-.2-.1-.5-.3-.8-.5h0c-.5-.2-.8-.7-.8-1.2v-1.1s1.1,0,1.1,0l.2-.2c.2-.2.5-.3.6-.4.1-.3.3-.5.4-.8.8-1.3,1.2-2.1.9-3v-.2c0,0,0-.2,0-.2,0-.5.1-.7.4-1,.2-.3.4-.5.6-.7.2-.2.4-.5.5-.7,0-.2,0-.3,0-.5-.2-.3-.4-.7-.5-1.1-.7-.5-1.8-1.6-2-3l-.3-.3v-.4c0-.2,0-.5-.2-.8-.1-.6-.3-1.4,0-2.2,0,0,0-.2-.1-.3,0-.1-.1-.3-.2-.5h0c0-.1,0-1.6,0-1.6,0-.2,0-.4.2-.6v-.4l.2-.3c.2-.2.4-.5.5-.7.6-.8,1.2-1.6,2.1-2.2,0-.2.1-.4.2-.6.1-.3.2-.6.3-.8v-.3c0,0,.3-.2.3-.2,0,0,0,0,.1-.2.1-.2.2-.3.4-.5l.3-.3h.3s.5-.5.5-.5l.7.5c2,1.4,4.4,2,6.7,2.6h.4c0,0,.2.4.2.4,1.1,1.4,2.4,2.3,4.1,3.4l.5.3v.4s.2.1.2.1c.4.3,1,.9,1.5,1.6h.3c.5,0,.8.2,1,.4.2.2.2.3.3.4h0s.1.2.1.2v.2c.3.6.5,1.3.7,2,.1.4.3.9.4,1.3v.2s0,3.1,0,3.1l-1.3-1.3h0c0,.1,0,.2,0,.3v.3s-.3.3-.3.3h0s-.4.4-.4.4c0,.2-.2.4-.4.6v.2l-.2.3c-.2.3-.4.6-.5,1-.3.6-.6,1.3-1.1,1.9l-.3.4h-.2s0,0,0,0h-.1c0,.2,0,.3,0,.4v.5c0,0-.2.3-.2.3,0,.1-.2.5-.3.7v.3c-.1,0-.3.2-.3.2-.3.3-.4.9-.6,1.4,0,.3-.1.6-.2.9h0c0,0,0,.2,0,.2-.2.4-.5.8-.8,1.3l-.2.3h-.3c0,.2-.2.2-.4.3-.2,0-.3.2-.5.3,0,0-.1.2-.2.2h-.1c0,.1-.2.2-.2.2-.6.3-1.3.3-2,0h-1.3s-.3-.3-.3-.3c-.1-.1-.2-.2-.3-.3-.9.4-2.2.3-3-.2-.3.2-.5.3-.7.5-.3.1-.4.2-.6.4l-.3.3h-.1c-.2.1-.4.2-.6.2Z"/>
      <path class="cls-1" d="M221,36.8c-.3.4-.9.4-1.1.9,0,.2-.2.3-.2.5-.2.2-.3.2-.3.3-.2.2-.3.3-.3.3q0,.2-.2.3c-.2,0-.2.2-.3.2,0,.2,0,.3,0,.5-.6.9-.9,1.9-1.6,2.7-.2,0-.2.2-.3.2-.2.2-.3.3-.5.5-.1.3-.2.6-.2,1-.2.2-.4.8-.5,1.1-.7.7-.8,1.9-1.1,2.7-.3.5-.5.8-.8,1.3-.4.2-.9.6-1.3.6,0,.2-.2.3-.2.3-.4.2-.9.2-1.3,0-.3,0-.8,0-1.1,0-.3-.3-.5-.7-.8-1,0,0-.2,0-.2.2-.2.2-.3.2-.5.3-.6.3-1.6.1-2.1-.2,0,0,0-.2-.2-.2,0,0-.1-.1-.2-.2-.2,0-.3.1-.5.2-.5.6-1.2.7-1.8,1.3-.2,0-.2.2-.3.2-.2,0-.2-.2-.3-.2-.2,0-.3,0-.5-.2-.5,0-1-.3-1.5-.3-.2-.2-.7-.3-1-.7-.2,0-.2-.2-.3-.2,0,0-.2,0-.2-.2.2,0,.4,0,.6,0,.2-.2.3-.3.3-.5.2-.2.3-.2.6-.3.8-1.6,2.2-3.1,1.6-5q0-.2.2-.3c.4-.6,1.1-1.2,1.3-1.9,0-.3,0-.8.1-1.1,0,0-.1-.1-.2-.2h-.2c-.2-.2-.4-.8-.5-1.1-.8-.6-1.9-1.6-1.8-2.8,0,0-.2-.2-.3-.3,0-.9-.6-1.8-.2-2.8,0-.5-.2-.9-.3-1.3,0-.5,0-.7,0-1.3,0-.2.2-.2.2-.3,0-.2,0-.3,0-.3.8-1,1.5-2.3,2.7-2.9.2-.6.5-1.3.6-1.9.2-.2.3-.5.5-.6.2,0,.3,0,.5-.2,2.1,1.5,4.6,2.1,7,2.7,1.2,1.6,2.8,2.6,4.4,3.6,0,.5-.1.8-.3,1.3.3-.2.5-.5.8-.6.9.7,2.2,2,1.7,3.3-.1.2-.2.4-.2.6.3-.2.3-.3.5-.6,0-.5,0-1,.3-1.4.2,0,.3,0,.3,0,.2.2.2.3.3.5.4,1.1.7,2.2,1,3.2q0,.2,0,.3c-.2-.2-.2,0-.2,0Z"/>
      <path class="cls-2" d="M316.7,167.8h-1.8s0-.8,0-.8h-.1c0-.1,0-.3,0-.3-.2-.4-.2-.7-.1-1,0-.2.2-.5.6-.7l.3-.3h2v.9l.6.6-.7.7c0,.1-.2.3-.4.5l-.3.3ZM270.3,248.8l-1.6-1.2c-.1,0-.3,0-.5.1h-.5s-1.3-1.3-1.3-1.3l.5-.7c.4-.6.9-1.1,1.3-1.5l.8-.7,1.4,1.4v.2c.1.2.2.4.2.6v.4s-.2.2-.2.2v2.6ZM244.4,267.6v-.9s-.4.8-.4.8c-.6-.3-.9-.9-1.1-1.3,0,0,0-.1,0-.2l-.3-.7,2.3-2.3.8.8h0s.6,0,.6,0v1.1c0,.3,0,.6-.1.7h0c0,0,0,.5,0,.5l-.3.3c0,0,0,.1-.1.2-.1.3-.3.5-.4.6l-.3.3h-.5ZM243.6,279.1v-1.1c0-.7,0-1.4.2-2.2h0c.3-.8.7-1.4,1.2-1.9l.8-.8.8.8c.2.2.3.4.4.5h0s.3.3.3.3v.5c0,.9-.4,1.6-.8,2.3l.2.2-.8.8c-.2.2-.6.6-1.2.6h-1.1ZM86.7,61c.2,0,.4,0,.5,0l.2-.2h0c0,0,.2,0,.3-.1l.3-.3h.5c0,0,0,0,0,0,.1,0,.2-.1.4-.2v-.6l1.3.2c.3,0,.5.1.6.2,0-.1,0-.2-.1-.4h-.1c0-.1,0-.2,0-.2-.2,0-.4,0-.6,0h-.3c0,0,0-.1,0-.1,0,0-.2,0-.2,0-.1,0-.3,0-.4,0l-.6.4-.4-.3-1.1,1.5ZM233.8,65.5c.1,0,.2,0,.3,0v-.2c.1,0,0,0,0,0-.1,0-.3.1-.4.1ZM227.5,65.9c.1,0,.2,0,.3,0,0-.1,0-.3,0-.4-.2.1-.4.3-.6.4,0,0,.1,0,.2,0ZM226.2,66.2h0s0,0,0,0h0ZM226.3,71.9h0c0,0,0,0,0,0,0-.4,0-.8.1-1.3v-.3s-.5-.6-.5-.6c0,0-.1,0-.2-.1-.2-.1-.3-.2-.5-.4l-.2-.2v-.2c-.4-.6-.3-1.1-.1-1.4,0-.1,0-.3.1-.4h0c-.3.2-.7.3-1,.4h0c-.3,1-.8,1.7-1.3,2.3h0s.3,0,.3,0c.1,0,.3,0,.4,0,.2,0,.5,0,.9,0h.6s.3.6.3.6c0,0,.1.2.2.3.1.2.3.4.4.6l.2.4h0ZM222.3,73.4v.4c.4-.4.9-.7,1.4-1,0-.2.1-.5.2-.7-.1,0-.3,0-.4,0-.5.3-.8.7-1.2,1.3ZM226.8,74.3s0,0,0,0h0c0,0,0,0,0,0ZM271.1,76.3h0c0,0,.1,0,.1,0,0,0-.2,0-.2,0ZM230,78.1c0,0,0,.1.1.1h0c.7-.1,1.4-.1,2-.1l.2-.2h.4c.7-.2,1.3,0,1.7.3.1,0,.2,0,.3.1l.2-.2h.4s0,0,0,0l.9-.4h0c0,0,0-.2,0-.2v-1.7s1.5.7,1.5.7c0,0,.2,0,.3.1,0,0,.2,0,.3.1l.3-.2v.3c0,0,0,0,0,0l-.4-3,2.3,2.3h.6c0-.2,0-.4,0-.6v-.3s.2-.2.2-.2c0,0,.1-.2.2-.2v-.2c-.1,0,.5-.6.5-.6.2-.2.4-.4.6-.5h0s0-.6,0-.6l.3-.3v-.2l.2-.2c0,0,0-.1,0-.2v-1.2c-.1,0,.6,0,.6,0v-.3l.2-.3c0,0,.1-.2.2-.3-1.5-.4-3.2-.5-4.8-.6-.2,0-.3,0-.5,0,0,0-.2,0-.2,0l-.2.2h-.4c-.1,0-.2,0-.4,0-.5,0-1,.2-1.5,0h0c-1.7-.2-3.2-.6-5-1.3-.7.1-1.3.3-1.9.7,0,.1-.1.3-.2.4,0,0,0,.1,0,.2.1.3.1.5.1.7v.5s-.2.2-.2.2c0,.2-.1.4-.3.6,0,.6,0,1.1,0,1.6.4,0,.9,0,1.3.5.2.2.4.7.3,1.3l-.2.9h-.9c.1.3.3.7.5,1.1.2.4.4.8.5,1.2ZM270.6,78.5h.2s0,0,0,0h0c-.2,0-.3,0-.4,0,0,0,0,.1.1.2ZM221.2,304.9s0,.1,0,.2h0c0,.1.1,0,.1,0,.2-.2.4-.3.5-.4h0s.3-.3.3-.3h.4c0,0,.1,0,.2,0,0,0,0-.2,0-.2,0,0,0-.1,0-.2v-.5c0,0,.6-.2.6-.2.6-.3,1-.6,1.4-1.2,0-.3,0-.5,0-.8,0-.3,0-.6,0-.9-.4.2-.9.3-1.5.2l-.2.2c-.4.3-.4,1.5-.4,2h0c0,0-.5,0-.5,0,0,0,0,.2,0,.3,0,.2,0,.4,0,.6v.4s-.8.8-.8.8ZM217.3,308.9c-.1.7-.3,1.3-.6,1.9h.3s.2,0,.2,0c0,0,0,0,.2,0,.6-.8,1.3-1.3,2-1.8.6-.5,1.2-.9,1.6-1.5,0-.3,0-.7,0-1.1v-.2c-.7,1.1-1.8,1.6-2.7,2.1-.4.2-.7.4-1.1.6ZM206.2,324c-.2.7-.2,1.7-.2,2.6,0,.3,0,.6,0,.9.5-.5,1.1-1,1.6-1.5,1.1-.9,2-1.8,2.7-2.9.6-1,.9-2.1,1.3-3.3.5-1.7,1.1-3.5,2.3-4.9v-.2c-.6-2,0-3.2.6-4.3.3-.7.6-1.3.7-2.2v-.5s.4-.3.4-.3c.5-.4,1.2-.8,1.7-1.1.7-.3,1.3-.7,1.7-1.1,0-.4,0-.9.2-1.4h0c0-.1.5-.6.5-.6,0-.2,0-.3,0-.4,0-.2,0-.4,0-.5v-1.1s.6,0,.6,0c0-.5.3-1.1.6-1.5-.7-.8-1-1.8-.8-3.1v-.9c.1,0,1,0,1,0,.2,0,.4,0,.6.1h.3s.3.5.3.5c.3.4.3.8.4,1h0c0,0,1,.5,1,.5l.2.3s0,0,0,.1c0,0,.1,0,.2-.1.1,0,.3-.2.5-.3v-.5s.3.3.3.3c.6-.3,1.3-.4,2,0l.3.2v.3c.4-.5.6-1,.8-1.5,2.3-5,4.6-10.2,9.9-13.2v-.9s.3-.3.3-.3c1.5-1.7,1.3-4.4.9-6.5v-.3s0-.4,0-.4c.3-.7.4-1.2.3-1.6l-.2-.6.4-.4c-.2-.8-.3-1.4-.3-2.2,0,0,0-.2,0-.3-.2-.7-.5-1.4-.4-2.3h0c.1-.5.2-.9.2-1.4,0,0,0-.1-.1-.2-.2-.2-.4-.5-.5-.9l-.2-.6,1.2-1.2h.3c0,0,0-.2,0-.3,0,0,0-.1,0-.2h-2.3s1.7-1.7,1.7-1.7v-.7s1.1,0,1.1,0c0,0,.1,0,.2,0h0c0-.1.1-.2.2-.3-.2,0-.4,0-.6,0h-.6s-.3-.6-.3-.6c-.1-.3-.2-.5-.2-.7,0-.1,0-.2,0-.3l1.7-1.2s0,0,.2.1h0c0,0,0,0,0,0h0c0,0,0-.5,0-.5l.3-.3c.2-.2.4-.3.5-.4h0s.4-.5.4-.5l.6.2c.4.2.8.3,1.1.2h.4c0-.1.2-.2.3-.3l-.6-.6.8-.8c.2-.2.4-.3.5-.4h0s.3-.3.3-.3h.3s0,0,0,0c.9-.8,1.9-1.5,2.9-2.1,1.6-1.1,3.1-2.1,4.2-3.6l.2-.2h.2c.9-.5,1.7-1,2.6-1.6,2.2-1.3,4.6-2.8,7.4-2.5v-.2s.4-.4.4-.4c.4-.4,1-.8,1.8-1,.6-.6,1.2-1,1.8-1.5l.3-.2h.3c.5,0,.8,0,1.1-.1v-1.4s.3-.3.3-.3c0-.1.2-.3.4-.5l.3-.3h.4c.4,0,.8-.1,1.2-.2.7-.1,1.4-.2,2.2-.2.7-.4,1.4-.6,2.2-.8h.4c0,0,.3,0,.3,0,.1,0,.3.1.5.2.2,0,.4.2.6.3l.6.3h0c.4,0,.8,0,1.2,0,0-.3,0-.6,0-.8l.2-.9.7-.3c.4-.2.9-.3,1.5-.2h.4s.3.3.3.3c.1.1.5.5.5,1.1v.4c.9,0,1.8,0,2.8-.2,1-.1,2-.2,3-.2,0,0,0,0,0-.1h0c0,0,0-.5,0-.5,0-.5,0-1.1.3-1.7h0c0-.1,0-.2,0-.2,2.1-2.5,4.3-3.2,5.7-3.7,1.7-.6,2-.6,1.4-3.1-.4-1.6.4-2.9,1-4.1.3-.6.6-1.1.8-1.7v-.4c0,0,.7-.5.7-.5,1.4-1,3-2.2,3-3.7v-.4s.7-.7.7-.7c.4-2.4,1.9-4,3.2-5.2.4-1.1.3-2.4.1-3.8,0-.9-.2-1.9-.1-2.8h0c.4-3.9,1.7-5.4,4.1-7.5,0-.4-.1-.9-.2-1.3,0-.4,0-.7-.1-1v-.2s0-.2,0-.2c.5-2.9,1.3-5.7,2.1-8.5.2-.7.4-1.4.6-2v-.5c-.8-3.9-1.6-7.9-.8-11.9-.1-.1-.2-.3-.2-.3h0s-.7-.7-.7-.7l.6-.7c0-.1,0-.3,0-.5,0-.3,0-.7,0-1.1h0s-.2,0-.2,0v-1.1c0-.3,0-.6.1-.7h0c0,0,0-.2,0-.2h0c.3-.9.8-1.8,1.7-2.6,0-.4.2-.8.3-1.1,0,0,0-.2,0-.2l-2.1-2.1h2.5c0-.2.2-.5.3-.7l.3-.6h.7c.2,0,.4,0,.6.2h.1s1.1,1.1,1.1,1.1v-.6s.9.9.9.9c2.5-2.7,5.4-7,5.4-9.4v-.5l.3-.3c.1,0,.2-.2.3-.4.2-.3.4-.6.8-.9l.7-.6v-.9s1.1,0,1.1,0c1.3-1.9,3.1-3.3,5.2-4.1.6-.9,1.3-1.7,2-2.4.7-.8,1.4-1.5,1.9-2.4h.2c0,.1.7-1,.7-1h0s0,0,0,0h0c0,0,0,0,0,0,3.3-2.4,4.6-6.4,5.9-10.3.2-.5.3-.9.4-1.4,0-.2,0-.4-.1-.7-.1-.4-.2-.8-.2-1.4h0c0-.1,0-.2,0-.2.3-1.3.5-2.6.4-3.7h-.3s-.1-.9-.1-.9c0-.3,0-.5-.1-.8-.3-1.7-.5-3.4-1.4-4.7v-.2c-.1,0-.2-.2-.2-.2,0-.3-.1-.6-.2-1-.4-2.2-.9-4.6-2.5-5.9-.5,0-.9-.1-1.4-.2-.5,0-.9-.2-1.4-.2-2.5.5-4.4.5-5.9,0h-.3c0,0-.2-.3-.2-.3-.5-.5-1.2-.6-2.1-.6h-.8c0,0-1.1-1.6-1.1-1.6-3.5-1.4-6.1-4.4-8.5-7l-.3-.3c-1.8-.4-2.9-1.4-4.2-2.6-1-.7-2.1-1.2-3.2-1.8-1.2-.6-2.4-1.2-3.5-2-2.7-.5-5.8-.4-9.4.4h-.1s-.1,0-.1,0c-1.4,0-2.6-.6-3.7-1.2-.1,0-.3-.1-.4-.2l-.7.3h-.2c-2.1,0-3.9-.9-5.6-1.8-1.4-.7-2.7-1.4-4-1.5v.8s-.9.2-.9.2c-.7.1-1.3.2-1.9.2-.4.3-.9.6-1.5.6-.3.2-.5.4-.8.7-.2.2-.4.4-.6.6,0,.3,0,.5,0,.8v.5c-.1,0-.6.2-.6.2,0,0,0,0-.1.1-.2.2-.4.4-.7.5l-2.4,1.1.2-.4c-.2.1-.4.2-.7.3l-1.6.5.2-1.6c.1-.9.3-1.8.5-2.7.2-.7.3-1.3.4-2v-.3c-.2,0-.4-.2-.6-.5-.2-.1-.4-.3-.6-.5l-.8-.8.8-.8c0,0,.2-.2.4-.3.1-.1.3-.2.4-.2.1-.1.2-.2.3-.4,0,0,.2-.2.2-.3,0-.2,0-.3-.1-.5h-3.2c0,0,1.3-1.4,1.3-1.4-.2-.2-.3-.3-.7-.5,0,0-.2-.1-.3-.2-.2.4-.4.7-.6,1.1l-.3.4h-.3c-.2.1-.4.2-.6.1h-1s0-1,0-1c0-.6-.3-1.3-.6-1.8-.2,0-.3,0-.4,0l-.7.3-.5-.5c-.2-.2-.6-.4-1-.5-.5-.2-1.1-.4-1.6-.8-.4,0-.8-.1-1-.2l-.8-.3v-.2c-.7,0-1.5-.2-2.3-.4h-.3c0,0-.2-.3-.2-.3,0,0-.2-.2-.3-.5,0,0-.1,0-.2-.1-.2-.1-.5-.3-.7-.6h-1.2s0-.3,0-.3h-1.2s-.3-.4-.3-.4c0,0-.2-.2-.2-.2v2.1s-1.7-1.7-1.7-1.7h-.4s-.2-.4-.2-.4h0s-.8,0-.8,0h-.4s-.2-.2-.2-.2c-.1,0-.2,0-.3-.1h-.2c0,0-.1,0-.2.2l-.8.7-.3-.3h-.6c0,.2-.1.4-.3.6h0c0,.1-.1.3-.2.4,0,.2-.2.5-.5.8l.2.2-.7.7c0,0,.1,0,.2,0l1.3.7-1.1,1.1c-.2.2-.3.3-.5.3v1.5s-1.5-.7-1.5-.7c-.4-.2-.6-.4-.8-.6,0,0-.2,0-.3,0-.2.2-.3.4-.5.5-.4.4-.7.8-1,1.1l-.3.4h-.5c-.9,0-1.2.8-1.8,2.4-.3.9-.6,1.8-1.2,2.5,0,.2-.3.4-.6.6h0l-.3.3h-.3c-.1,0-.4.2-.7.2h-2.1s1.3-1.7,1.3-1.7c.1-.1.2-.3.3-.4,0-.1.1-.2.2-.4,0-.2,0-.4,0-.6,0-.3,0-.6.2-1h0c0-.1,0-.2,0-.2.2-.4.4-.9.6-1.4l-1.1.5-.5-.2c-.2,0-.4-.2-.7-.3-.3-.1-.6-.2-.9-.4,0,0-.2,0-.3,0,0,0-.1,0-.2,0h0s-.2.2-.2.2h-.4c-.3,0-.7.3-1.3.6l-.7.5-.6-.5c-.1-.1-.3-.2-.4-.4-.3-.3-.6-.6-.9-.7h-.2c0,0-1.2-1.3-1.2-1.3l.5-.6c0-.1-.1-.2-.2-.3,0-.1-.2-.3-.3-.4l-.2-.2v-.3c-.2-.4-.2-.7-.3-1.1,0-.2,0-.4,0-.6h-.1c-.7.9-1.5,1.4-2.3,2l-.3.2h-.4c-.4,0-.7,0-1,.3l-.3.2h-.3s0,0,0,0c-.2,0-.4.1-.7.1h-.7c0,0-.1,0-.2.1l-.3.2h-.3c-.4,0-1,.1-1.5.3l-.7.2-.4-.6c-.2-.3-.5-.3-1.4-.3-.4,0-.8,0-1.3,0l-.2-2.1c.6-.2,1.2-.5,1.9-.8.4-.2.9-.4,1.3-.6h.3c0-.1.3,0,.3,0,.4,0,.7.1.9.2.1,0,.2,0,.3,0,0,0,0-.1,0-.2v-.7s.6-.3.6-.3c.4-.2.7-.4,1-.7,0-.5,0-1.1.2-1.7h0c0-.1,0-.2,0-.2.5-.7.9-1.3,1.4-1.7.6-.7,1.2-1.3,1.5-2.2,0-.2,0-.3.1-.4h0c0,0,0-1.2,0-1.2h1.2c.3.1.9-.3,1.3-.8l.2-.3h.3c.4-.3.8-.4,1.3-.4h0c.5-.3.8-.9,1.2-1.6.4-.7.9-1.6,1.7-2.2.3-.7,1-1.2,1.5-1.5.2-.1.3-.2.5-.3v-.3s.7-.4.7-.4c.2-.1.3-.2.4-.3,0-.9,0-1.7-.2-2.5h0c0,0-.2-.1-.3-.2-.6-.2-1.3-.3-2-.3-.2,0-.4,0-.6,0h-.4c0,0-.3-.4-.3-.4-.3-.3-.5-.6-.7-.9,0,0-.1-.2-.2-.3l-.2-.3v-.2h-2.7c0,.1,1.8-1.7,1.8-1.7-.2-.4-.3-.9-.6-1.3v-.2c0,0-.1-.2-.1-.2-.2-1.4-.8-2.8-1.4-4.1h0c-.4-1.1-.6-2.4-.8-3.6-.3-2.3-.6-3.8-1.6-4.5-.2.3-.4.6-.5.9l-.3.5h-.4c-.2.2-.2.2-.2.2,0,0,0,0,0,.1h0c0,.3-.2.8-.7,1.1l.5,1h-1.1c-.4,1.2-1.4,2.4-2,3.1l-.3.4h0c0,.4-.1.9-.4,1.3,0,0,0,.1,0,.2v.4s-.4.3-.4.3c-.2.1-.3.4-.4.7,0,.2-.2.4-.3.6,0,.7-.3,1.2-.6,1.5,0,.1-.1.2-.2.3-.3.7-.9,1-1.2,1.2,0,0-.1,0-.1,0h-.2c0,.1-.2.1-.2.1v.3c0,0-.6.2-.6.2-.6.3-1.3.3-2,0h-1.4s-.5-.6-.5-.6c-1,.3-1.7.2-2.5,0l-.7-.2c-.6.5-1.2.9-1.9,1.2l-.5.2-.5-.2c-.2-.1-.6-.2-1-.3-.8-.2-1.7-.4-2.4-1.1h-.5s0-.2,0-.2c0,0-.2,0-.3-.1h-.9s0-.7,0-.7h0s0,0,0,0h-1.1s0-.6,0-.6c0,0,0,0-.1,0h-.9s-.2,0-.3,0c-.2,0-.5.2-.8.2l-.3.3h-.5c-.4,0-.7,0-1,0-.2,0-.5,0-.7,0-.3.2-.7.2-.8.2h-.4s-.3-.3-.3-.3c0,0-.2-.1-.3-.2h0s-.3.3-.3.3v.2s.1,0,.2.1c0,0,.1.1.2.2.2.1.3.3.5.5h0s.3.3.3.3v2.7s-.8,0-.8,0c-.1,0-.2.1-.4.1-.9.3-1.8,0-2.6-.2h0c-.3.7-.8.9-1.4,1.1l-1,.3-.2-.4c0,0-.1,0-.2,0h-.3c-.6.1-1.1,0-1.4-.2-.2,0-.4-.1-.5-.1h-1.1s0-.2,0-.2h-.2v-.3c-.2,0-.4,0-.6,0,0,0-.1,0-.2,0-.9,1.5-1.6,1.8-3.5,1.7-.1,0-.2,0-.3,0-.1,0-.2,0-.4.1,0,.1-.1.3-.2.5l-.3.3-.3.3h-1.8s-.2-.3-.2-.3l-.6.3h0c0,.2,0,.3,0,.5v.4c0,0-.8.7-.8.7h-.4c-.2,0-.4,0-.6,0-.1,0-.4,0-.5,0-.1.1-.3.2-.4.2h0s-.3.3-.3.3h-2.2s0-.6,0-.6h0s-.2-.2-.2-.2v-.2c-.2,0-.7-.2-.9-.2-.2,0-.5,0-.7-.1h-.3c0,0-2.5-2.6-2.5-2.6-.1,0-.2,0-.3-.1-.1,0-.3-.1-.4-.1l-.8-.2v-.9c-.4-.2-.7-.6-.7-1.1v-2.1c-.5-.4-1-1-1.4-2-.7-2.1-.1-5.1.8-6.7,0-.4-.1-1-.2-1.3v-.6c-.1,0,.4-.4.4-.4.3-.3.6-.5.9-.7h0c0,0,.6-.7.6-.7h0c-.2-.4-.3-.7-.5-.9,0-.2-.2-.3-.2-.4h0c-.5-.7-.4-1.4-.3-1.8,0,0-.1,0-.2-.1h0c-.3,0-.6-.1-.8-.2,0,0-.2,0-.3,0-.4,0-.9,0-1.5-.3l-.5-.3v-1.4s.3-.3.3-.3c.2-.2.4-.4.6-.6,0-.4,0-.8,0-1.1,0-.2,0-.3,0-.4-.2-.1-.4-.3-.6-.7h0s0,0,0,0l-.3.3h-.6c-.2,0-.4.1-.6.1.2,1,0,1.8-.8,2.5h-.1c0,0-.1.2-.1.2-.4.2-.9.5-1.3.8-.2.3-.4.6-.7,1,0,.1-.1.2-.2.3-.2.2-.3.2-.5.3-.6.3-1.2.3-1.6.2h0c-.1.1-.2.2-.3.3h0c0,0-.3.4-.3.4h-.4s0,0,0,0h0s0,0,0,0c0,.1-.1.2-.2.3l-.2.4-.4.2c-3.5,1.4-5,1.2-6.2,1-.5-.1-.6-.1-1.3.4l-.3.3h-.2c0,.1,0,.2,0,.4,0,.8,0,2.1-1.3,2.8h-.2c0,0-.2.1-.2.1-1,.2-1.9-.2-2.4-1-.6-.4-1.1-.9-1.5-1.4h0c-.1,0-.4,0-.6,0l-.5.3-.5-.2c-.6-.3-1.4-.3-2.2-.3-.4,0-.7,0-1.1,0h-1c0,0,0-.6,0-.6h0s-.3-.3-.3-.3v-.3h0c0,0,0,0-.1-.1h0c-.2-.1-.6-.1-1,0,0,0-.2,0-.2,0,.2.2.4.4.7.6.4.3.8.6,1.1,1l.3.3v.2s0,0,0,0l.3.3v.5c-.2,2.2.2,3.7,1.1,5v.2c.1,0,.2.4.2.4,0,.4.2.9,0,1.5.6,0,1.2.1,1.8.2.7,0,1.4,0,2.1.2h.4c0,0,.3.4.3.4.6.7.4,1.4.3,1.8,0,.1,0,.2,0,.2v.4s-.2.3-.2.3c0,0,0,0,0,.1-.1.2-.3.5-.6.7l-.2.2h-.3c-.4,0-.7.3-1.1.5-.6.3-1.2.6-2,.7-.3,1.9-1.1,3.1-2.6,3.6h-.2c0,0-.2,0-.2,0-.3,0-.5,0-.7,0-.2,0-.4,0-.5,0-.5.5-1,.8-1.4,1.1l-.4.3h-.7c-.1,0-.3.2-.4.2-.2.1-.5.3-.8.4h-.2c0,.1-.1.1-.1.1,0,0,0,.1-.1.2,0,.1-.2.3-.4.5-.3.4-.8.8-1.2,1.1-.2.4-.3.6-.5.8,0,.1-.2.3-.3.4l-.3.6h-2.4s0-2,0-2h.1c0-.2-.1-.2-.2-.2,0,0-.2,0-.2.1-.4.2-.8.4-1.2.7h-.1c0,.1-.2.2-.2.2-.9.3-1.8.4-2.7.4h-.2s-.2,0-.2,0c-1.2-.5-2.1-1.4-3-2.2-.4-.4-.8-.7-1.2-1-.4,0-.8.2-1.2.2l-1.3.2v-1.7q0-2.7-1.1-4.5c0-.2-.2-.3-.3-.5h0c0,0-.1,0-.2.1-.1.2-.3.3-.5.5-.5.5-.9,1-1.3,1.5l-.2.2h-.3c-.3.2-.5.3-.8.3l.5.5h-2.8c-1.2-.2-2.5-.2-3.7-.1-2,0-4,0-6-.2h-.3s-.1-.2-.1-.2c0,0-.2,0-.3,0h-.4c0,.1-.3,0-.3,0,0,0-.1,0-.2,0v2.6c.4,0,.7,0,1,0,.2,0,.3,0,.4,0h.5s0,0,0,0l1.4-.7v.8h.3v.6c.1.1.3.2.4.4h0s.1.1.1.1v.2c.4.7.5,1.2.5,1.9.1.2.2.5.2.7l.6,1.3h-3.1s-.2-.2-.2-.2h-.9v-.2c-.2.1-.4.3-.8.3-.1,0-.2.1-.4.1,0,0-.2,0-.3.1-.5.2-.9.3-1.4.2,0,.4,0,.8,0,1.2,0,1.1,0,2.1.1,3.1.4.4.9.8,1.3,1.1.1,0,.2.2.4.3.2,0,.3,0,.4.1h.3l.5.6h0c.4.7.4,1.3.4,1.7,0,0,0,.2,0,.3v.3s0,.1,0,.1h.1c0,.1,0,.6,0,.6,0,0,0,.2.1.3h.7s0,1.4,0,1.4c0,0,0,0,0,0h0s.3.3.3.3v.9h0c-.5,2.6-1,5.3-1.4,7.8-.9,5-1.8,10.2-2.9,15.1v.3c0,0-.8.7-.8.7h-1.2s-.3-.3-.3-.3c0,0,0,0,0,0h0c-.5,0-1.7,0-2.3-.9-.4,0-.8,0-1.2,0-.4,0-.7,0-1.1,0h0c-.1.4-.4.6-.5.7h0c0,0-.1.2-.1.2-.8.5-1.8.8-2.8.8-1.2.5-2.3.7-3.5.8-.4,0-.8,0-1.2.2-1.8.6-3.3,1.9-4.9,3.2-.4.3-.7.6-1.1.9l-.2.2h-.3c-.2,0-.5.1-.7.2-.2.9-.5,2-.5,3v.3s-.1.2-.1.2c-.3.5-.5,1-.8,1.4-.3.5-.6.9-.8,1.3h0s0,0,0,0c.5,1,.7,2,.6,3v.2s-.1.2-.1.2c-.3.6-.7.9-1.2,1.2h-.2c0,.1-.6.1-.6.1-.8.5-1.8,1.1-2.6,1.9h0c0,.3-.1.5-.2.6.2.2.3.5.4.7,0,0,0,.1.1.2v.2c.1,0,.1,1.1.1,1.1l-.8.8h-1c0,0-.1,0-.2,0h0c0,.1.1.2.2.3.1.2.3.3.4.5,0,0,.2,0,.2,0h.6s.1.9.1.9c0,.5,0,.9-.2,1.1.3.2.5.5.6.8,0,0,0,.1,0,.2l.3.3v.4c.1.2.3.5.4.8,0,0,.1.1.2.2l.2.2s0,0,.1,0c0,0,.2,0,.2.1h1l-.3,1.3c0,.1,0,.2,0,.2,0,0,.3.2.5.4.4.2.9.6,1.2,1.1h0c0,.2.2.4.3.6.4.5,1.1,1.4.7,2.6v.2c0,0-.2.2-.2.2-.1.2-.3.4-.4.6,1.5.1,2.9.4,4.2.9h.2c0,0,.1.2.1.2.1,0,.3.2.5.4l.2.2.2.4c.1.4.3.8.3,1.2.1,0,.2.2.3.3l.3.3v.5c.3,0,.5,0,.8,0,1.7,0,3.3,0,4.8-.2.5-.4.9-.7,1.4-1h.1c0,0,.1-.1.1-.1,0,0,.3-.2.4-.4.3-.3.6-.7,1.1-.9h.1c0,0,0-.1,0-.1l.3-.3h.3s0,0,.2-.2c0-.1.1-.2.2-.3.2-.2.5-.3.7-.3.1,0,.4-.2.7-.2h4s-3.1,1.8-3.1,1.8l-.2.2c0,0,0,.2,0,.3,0,.4.2,1.1-.2,1.8v.2c-.1,0-.1,0-.2,0v7.1h.2l.4.4c.3.3.4.4.6.5.5,0,.9-.2,1.4-.4,1-.4,2.1-.8,3.7-.4,5,0,6.7.6,7.2,1.2.5,0,1.2-.3,1.8-.6.2,0,.3-.2.5-.2.2-.2.3-.4.5-.7.3-.5.7-1.1,1.3-1.4h.1c0,0,.2-.1.2-.1.8-.2,1.4-.2,2.1-.2h.2c.4-.5.9-.8,1.3-1.1.3-.2.5-.3.7-.5l.3-.3h.4s0,0,0,0c0,0,.1-.1.2-.2h0s.3-.3.3-.3h.5c.6,0,1.1-.4,1.8-1,.5-.4,1-.9,1.7-1.3h0c2.4-1.2,5-1.5,7.8-1.7h.5s.3.3.3.3h0c.3-.3.9-.7,1.7-.6h.5c0,0,.2.6.2.6,0,.2.2.2.3.4l.2.2v.3c0,0,.1.2.1.2.1.4.2.8,0,1.3,0,.2,0,.4,0,.5,0,.6.1,1.2,0,1.9v.3c0,0-.3.2-.3.2-.2.2-.3.4-.4.6,0,.1-.2.3-.3.5,0,.5.2.9.4,1.5.3.7.6,1.6.5,2.6v.4s-.2.2-.2.2h0c0,.1-.1.3-.2.5,0,0,0,.1,0,.1.3.3.5.8.5,1.3.1.2.3.3.4.5l.4.3v.3c0,0,0,.1,0,.2h.6v.9h0s.3.3.3.3v.4s0,.1,0,.2h0c.4.2.7.3,1.1.5h.2c0,0,.1.2.1.2.6.6,1.1,1,1.7,1.2l.6.2v.6c.2.2.3.4.4.6h0c.5.2,1.1.2,1.7.3.3,0,.6,0,.9.1,1.3-.6,2.7-.5,3.9.2h.1c0,0,0,.2,0,.2.2.2.5.5.9.7.3-.2.7-.5,1.3-.4h.4s.1.2.1.2h.7v.9c.1.2.2.3.2.5,0,0,0,0,0,.1.3.2.5.4.7.6.2.2.4.3.6.5.8,0,1.5.4,2.1.6.3.1.6.3.9.4,0,0,.2,0,.3,0,.5,0,1.2,0,1.8.3l.6.3v.7h0c0,0,0,.1,0,.2.5.6,1.1,1.2,1.7,1.7.1,0,.2,0,.3,0,.4,0,.9,0,1.4.1.6-.2,1.2-.2,1.7-.2.3,0,.6,0,.9,0h.1s.1,0,.1,0c1,0,1.9.6,2.7,1,.2.1.5.3.7.4h.1c0,0,0,.1,0,.1.3.2.5.4.8.5.7.4,1.3.8,1.8,2h0c.2.7.3,1.4,0,2.1v.2c0,0,.3.4.3.4v.3c.1.2.2.4.2.7,0,.3.1.5.2.8,0,0,.1.2.2.2h0s.3.3.3.3v.4c0,.5,0,1.1,0,1.7,0,.6,0,1.3,0,1.9v1.1h-.9c.3.4.6.8.9,1.2l.2.2v.3c0,.7.2,1.5.2,2.2.1.9.2,1.9.3,2.9,2.7.2,5.4.3,8.1.4,1,0,2.1,0,3.1.1h0s.1,0,.2,0c.2-.1.5-.2.9-.3h1.1s0,3.1,0,3.1l-.3.3c-.1.1-.3.3-.4.5,0,.1-.2.2-.2.3,0,.7.2,1.3.3,2.1,0,.4.2.9.3,1.3.3.3.8.6,1.2.8.4.3.9.6,1.2.9,0,0,.1,0,.1,0l.7-.4.5.6c.2.2.3.4.4.5h0s.3.3.3.3v.5c0,1.1.5,2.3,1.1,3.5,0,.1.1.2.2.3h.8v2.3h-.7c-.3.8-.6,1.7-.9,2.5,0,.3-.2.6-.3.8v2.8h-.9c-.3.6-.6,1.3-.9,2-.3.7-.6,1.4-1,2,.2.2.4.4.6.5.3.2.5.5.8.7l.4.3v.5c0,.2,0,.4-.2.6v.8h-.9c0,0-.1,0-.2,0-.1,0-.2.1-.3.2h0c0,0,0,0,0,.1v.2l-.2.2c0,.1,0,.2,0,.3,0,.2.2.3.2.5.4.5.5,1.1.5,1.6,0,0,0,.2,0,.3h.7s0,.9,0,.9c0,.1.2.4.2.7v.4h0s.5,1.1.5,1.1h-.4c.1,1,0,1.9-.3,2.8h0c0,.2,0,.2,0,.3v.3c0,0,0,.4,0,.4-.1.4-.3.7-.4,1v1.8s-.2.2-.2.2v.5h-.1c0,.1,0,.2,0,.2v.4c.1,0,0,.3,0,.3h0c0,0,.1,0,.1,0,.5,0,1,0,1.4.2h.4c0,.1.4.5.4.5.4,0,.9,0,1.4.1.5-.1,1,0,1.5,0,.3,0,.6.1.9.2.2,0,.3,0,.5.1.3,0,.6,0,.9,0,.1,0,.2,0,.4,0,0,0,0,0,.1-.1,0-.1,0-.2.1-.3v-.8s.9,0,.9,0c0,0,.2,0,.4-.1l.5-.2.4.4h.2l.3.3c.2.2.3.4.4.6.2.1.3.3.4.4h.1c.3.2.7.2,1.1.2.5,0,.9,0,1.4.1h.2s.2.1.2.1c.5.3,1,1.2,1,1.2l.2.3v.8s0,0,0,0h.1l.3.3c.5.5.7,1.3.4,2.3,0,.5,0,.9.2,1.4.5.7.6,1.5.6,2,.2.4.2.8.1,1.1v.4s-.2.1-.2.1c0,0,0,.1,0,.2,0,0,0,0,0,.1h0c0,0,.5.6.5.6v.3c.2.4.2.8.3,1.1,0,.2,0,.5,0,.7h.3s.3.1.3.1c0,0,.4,0,.6-.1.3,0,.5-.2.9-.2.4-.1.7-.3,1.1-.6.4-.2.8-.5,1.3-.7l.7-.3.4.4h0c.1,0,.3,0,.5.2.6.2,1,.6,1.4.9.2.2.4.4.5.4l1.7.5-1.2,1.3c0,.1-.1.2-.2.3,0,.1,0,.2.2.5v.3c.1,0,.2.2.2.2,0,1.3-.3,2.4-.7,3.6-.3,1.1-.7,2.1-.5,3v.2s0,.2,0,.2c-.2.6-.5,1.1-.7,1.5-.2.3-.3.6-.4.9l.2.2c.4-.2.7-.3,1.1-.3h0l.2-.2h.3c.5-.2,1,0,1.3.2,0,0,.1,0,.2,0l.8-.2.4.8c0,0,0,.1.1.2h0s.8,0,.8,0v1c.1.8.4,1.7.8,2.5.3.7.6,1.5.7,2.3v.6c.1,0-.3.4-.3.4h0c0,.5,0,1-.1,1.4,0,.6-.2,1.3,0,1.7h0c0,.1,0,.2,0,.2.2,1-.3,1.9-.7,2.5-.1.2-.3.5-.3.6l-.2.4-.4.2c-.2,0-.3.1-.4.2h0s-.2.2-.2.2h-.3c0,0-.2.2-.3.3-.2.2-.5.5-1,.7h-.2c-.2.6-.6,1-1.2,1.3h-.1c0,0-.1,0-.1,0-.5.1-.9.2-1.3.2-.3,0-.5,0-.7,0-.2.2-.6.6-1.1.6h-.3s0,.1,0,.1v.5c0,0-1,1-1,1h-.2s-.3.3-.3.3c-.5.5-1.1.7-1.5.9-.2,0-.4.2-.6.2-.6.9-1.5,1.4-2.3,1.8,0,0-.2,0-.3.1.1.2.2.4.2.6v.4s-.2.2-.2.2v.6s-.9.2-.9.2c-.2,0-.5,0-.6,0h0s-.3.3-.3.3c-.1.2-.3.3-.6.4h0c0,0-.2.4-.2.4-.4.8-1,1.2-1.5,1.5,0,0-.1,0-.2.1-.2.3-.4.7-.6,1.1-.3.6-.7,1.2-1.1,1.8l-.2.3h-.3c-.3.2-.5.5-.9,1.1-.2.4-.5.8-.8,1.2-.7,1-1.6,1.7-2.5,2.4-.5.4-.9.7-1.3,1.1-.2.8-.8,1.5-1.3,2,.2,0,.4,0,.5,0h0c.3-.5.6-1.2,1.6-1.5h.2c.9,0,2.1-.2,3.2,1,.6.7,1.3,1.4,2.1,2.1,1.2,1.1,2.4,2.3,3.3,3.7l.2.3v.4s0,0,0,0h0l.3-.3h0s0-.6,0-.6l.8-.2c.5-.1.9,0,1.1.2h.2s.2.3.2.3c.2.2.3.3.5.5.5.4,1.1,1,1.4,1.8.2.2.3.3.4.6,0,0,.2.1.3.2l.7-.7.7,1.1c.3.4.7.6,1.4.8.7.2,1.5.5,2.2,1.2l.2.2v.2c.3.8,1,1.4,1.8,2,.3,0,.5.2.8.2.2,0,.4.2.6.2h.2s.1,0,.1,0c0,0,0,0,.1,0,.3,0,.6.2,1,.5.2,0,.3.2.4.3h0s.3,0,.3,0l.3.5c.4.7.6,1.3.8,2,0,.4.2.7.3,1,.1.1.3.3.4.4.3.2.5.5.8.6.7,0,1.4.5,2,1.2h0c.7,1.2,0,2.1-.3,2.4,0,0-.1.2-.2.2h0c-.5.9-1.1,1.8-2,2.4ZM206,330.2c-.3,0-.6-.1-.7-.2h0s-.3,0-.3,0l-.2-.2c0,0-.2-.1-.3-.2h-.7s.1-1.2.1-1.2c0-.5,0-1.1,0-1.7,0-1.2-.1-2.6.5-3.8v-.3c.1,0,.4-.2.4-.2.6-.4,1.1-1.2,1.6-1.9h0c0-.2.2-.3.2-.4-.1,0-.2-.1-.3-.1h-.4c-.6-.4-1.1-.8-1.5-1.2-.2-.2-.3-.3-.5-.4l-.2-.2v-.2c-.4-.5-.5-1.1-.6-1.6-.1-.4-.2-.7-.3-1h0l-.3-.3h-.3s-.3-.5-.3-.5h0s0,0,0,0c-.4,0-.8-.2-1.1-.3-.2,0-.4-.1-.5-.2h-.3s-.3-.2-.3-.2c-.8-.7-1.9-1.6-2.5-2.9-.3-.2-.7-.4-1.1-.5-.3-.1-.6-.2-.9-.3h0c0,.1-1.5-.7-1.5-.7-.5-.2-.9-.5-1.4-.9l-.3-.2v-.4c-.1,0-.1,0-.1,0l-.4-.2v-.6c-.2-.3-.4-.6-.9-1h0s-.2.2-.2.2h-.1s0,0,0,0l-.2.2v.2s-.3.3-.3.3c-.2.2-.4.3-.5.4h0s-.5.5-.5.5l-.4-.2c-.4.1-.7.2-1.1,0l-.7-.2v-.7c-.1-.6,0-1.2,0-1.8,0,0,0,0,0-.1-.7-1-1.7-2-2.8-2.9-.8-.7-1.5-1.4-2.2-2.2-.2-.3-.5-.3-1.2-.3,0,0-.2.2-.2.3-.1.2-.3.5-.5.8l-.3.3h-.5c-1,0-2,0-2.8-.1h-.4c0,0-.3-.3-.3-.3-.2-.2-.3-.3-.4-.5,0,0,0-.1-.1-.2l-.8-.8.7-.7c.2-.2.3-.4.6-.5.1-.1.2-.2.4-.3.5-.4,1-.9,1.1-1.3v-.3s.3-.3.3-.3c.5-.6,1.2-1.1,1.8-1.5.8-.6,1.5-1.2,2-1.9h.1c.2-.3.4-.7.6-1,.4-.7.9-1.6,1.9-2,.2-.3.5-.7.7-1.2.3-.5.5-1,.9-1.5h.1c0-.1.1-.2.1-.2.1-.1.3-.2.4-.3.3-.2.5-.3.6-.5,0-.6.5-1,.7-1.2l.3-.3c0-.3.3-.5.6-.7l.3-.3h.3c0-.2,0-.4.1-.5v-.4s.5-.3.5-.3c.4-.3.8-.5,1.1-.6.6-.3,1.2-.6,1.4-1.1v-.2c0,0,.3-.1.3-.1.5-.4,1-.6,1.4-.7.1,0,.3-.1.4-.2v-.2l.8-.8h.3s0,0,0,0c0-.3.1-.5.2-.8h0c.3-.6.7-.8,1-1l.2-.2h.4c0,0,.2,0,.3,0,0,0,.2-.2.3-.2h.1c.5-.3,1.1-.3,1.5-.3.3,0,.5,0,.7,0,.1,0,.2-.1.2-.2v-.4s.3-.3.3-.3h0s0-.6,0-.6h1.1c0,0,.1,0,.2,0h0c.3-.3.6-.6,1-.7.1,0,.2-.1.4-.2,0-.2.2-.3.3-.5.2-.4.4-.8.4-1-.3-.9-.2-1.8,0-2.6,0-.5.1-.9,0-1.2v-.5c0,0,.2-.3.2-.3-.1-.5-.3-1-.5-1.6-.3-.7-.6-1.5-.7-2.3l-.3-.3c0,0-.2-.2-.3-.4-.2,0-.4-.1-.5-.2l-.3.3h-.5c-.2-.1-.4,0-.6.2l-.3.3h-.4c-.3,0-.5,0-.7-.2h-.3s-.3-.3-.3-.3h-1.1s-.2-.9-.2-.9c-.2-1.3.4-2.3.8-3.1.2-.3.4-.6.5-.9-.1-1.3.3-2.5.6-3.7.3-.9.6-1.8.6-2.6-.2-.5-.4-.9-.3-1.8v-.3c0,0-.1-.1-.2-.2-.2-.2-.4-.4-.6-.5h-.3c0,0-.1-.2-.1-.2-.2.1-.4.2-.6.4-.5.3-1,.6-1.6.8h-.1s-.1,0-.1,0c-.1,0-.3,0-.6.1-.5.1-1.3.4-2,0-1.8-.1-1.9-1.9-2-2.7,0-.2,0-.3,0-.5l-.6-.6v-.2l-.2-.2v-.5c0,0,0-.2,0-.2,0-.3,0-.8.2-1.2l-.2-.3v-.4c0-.6,0-.8-.2-1l-.2-.2v-.3c-.3-.7-.4-1.4-.4-2.4v-.2s0-.2,0-.2h0s-.3-.3-.3-.3c-.3-.3-.4-.6-.4-.7l-.2-.2v-.9s0,0,0-.1c-.3,0-.5,0-.8,0-.7,0-1.3,0-2-.2l-.8-.2v-.4s0,0,0,0l-.3-.3v.8s-1,0-1,0c-.2,0-.5,0-.7,0-.5,0-1,.2-1.6,0h0c-.2,0-.4-.1-.6-.2-.3,0-.5-.1-.8-.2h-.1s-.1,0-.1,0c-.2,0-.4,0-.5,0l-.4.2-.4-.2c-.2,0-.5,0-.9,0-.2,0-.3,0-.5,0h-.4s-.6-.6-.6-.6c0,0,0,0-.1,0h0s0,0,0,0l-.2.2h-.4c-.6.1-1.1,0-1.5-.2h-.4c0-.1-.2-.5-.2-.5-.5-1-.2-1.6,0-2.1h0c-.1-.5-.3-1.2.1-1.8,0-.1,0-.2.1-.3v-1.7s.3-.3.3-.3c0,0,.1-.3.2-.4,0-.2-.2-.6,0-1h0c0-.1,0-.2,0-.2.3-.6.3-1.3.2-1.9l-.4-.4v-.5c0-.1,0-.2.1-.3,0-.2,0-.3,0-.6l-.3-.3h0c-.2-.6-.3-1-.3-1.4,0-.2,0-.4,0-.6l-.2-.2v-.4c0,0-.2-.2-.2-.4,0,0,0-.2-.1-.2v-.2c0,0,0-.1,0-.1l-.2-.2v-.3c0-.2-.2-.4-.2-.8v-1.1h.9c0-.3.2-.5.4-.7h0c-.3-.3-.6-.6-.9-.8l-.8-.6.5-.9c.5-.8.9-1.7,1.3-2.7.3-.7.6-1.4,1-2h0l.5-1.4c.2-.6.4-1.3.6-1.9.3-.9.6-1.9,1-2.9-.1-.2-.2-.4-.3-.6-.6-1.1-1.2-2.4-1.3-3.7-.3,0-.6-.1-.7-.2h-.2c0,0-.2-.2-.2-.2-.3-.3-.8-.6-1.2-.9-.6-.4-1.2-.8-1.7-1.3l-.3-.3v-.4c-.1-.5-.2-1-.3-1.6-.2-.9-.4-1.9-.4-2.9v-.4s.3-.3.3-.3c.1-.1.3-.3.4-.5,0,0,0,0,0-.1,0,0-.1,0-.2,0-1,0-2,0-3.1-.1-3-.1-6.1-.3-9.1-.5h-1c0,0,0-1.1,0-1.1,0-1.2-.1-2.3-.3-3.6,0-.7-.2-1.3-.2-2-.7-1-1.5-1.9-2.1-2.5l-1.9-1.9h3.8c0-.2,0-.4,0-.6,0-.4,0-.7,0-1.1h0l-.2-.7c-.1-.4-.2-.8-.3-1.2,0-.1,0-.2,0-.3l-.8-.8.2-.4c-.1-.4-.2-.7,0-1.1l.2-.8h.1,0c-.2-.6-.3-.7-.8-.9-.3-.2-.7-.4-1.1-.7-.2-.1-.4-.2-.7-.4-.6-.3-1.2-.7-1.7-.8-.3,0-.6,0-1,0-.5,0-1.1,0-1.4.2l-.4.2-.4-.2c-.3-.1-.5-.1-.9,0-.2,0-.5,0-.8,0h-.3s-.3-.2-.3-.2c-.9-.6-1.6-1.5-2.3-2.3l-.4-.5h0c-.1-.1-.3-.1-.4-.1-.2,0-.3,0-.5,0h-.1s-.1,0-.1,0c-.5-.1-.9-.3-1.3-.5-.5-.2-1-.4-1.5-.4h-.3s-.3-.2-.3-.2c-.4-.3-.8-.5-1.1-.8-.3-.2-.6-.5-.9-.7l-.4-.2v-.4c-.1,0-.1-.1-.2-.2l-.3.2h-.4c-.9-.2-1.8-.7-2.5-1.4-.7-.4-1.4-.2-1.8,0l-.4.2h-.4c-.4-.1-.8-.2-1.2-.3-.8-.1-1.7-.2-2.6-.5h-.4c0-.1-.2-.5-.2-.5,0-.1-.1-.2-.2-.3-.1-.2-.3-.4-.4-.7-.6-.3-1.3-.7-1.9-1.4-.4-.1-.7-.2-1.2-.3l-1-.2.2-1s0-.1,0-.2h0c-.5,0-.9-.4-1-.9-.1-.3-.1-.8,0-1.2-.3-.3-.5-.6-.7-.9l-.2-.3v-.4s0,0,0,0h0s-.1-.2-.1-.2c-.4-.6-.5-1.4-.1-2.3v-.2c0,0,.1,0,.1,0,0,0,0-.2.1-.3,0-.5-.2-.9-.4-1.4-.3-.8-.6-1.7-.5-2.8v-.3s.2-.2.2-.2c.1-.1.2-.3.3-.5.1-.2.3-.5.5-.8,0-.3,0-.6,0-1,0-.3,0-.6,0-.9v-.2h-.1c0,.1-1.5.1-1.5.1l-.3-.3h0c-2.5.2-4.7.5-6.7,1.5-.4.2-.8.6-1.2,1-.7.6-1.5,1.3-2.5,1.5v.4h-1s0,0,0,0c0,0-.1,0-.2,0-.2.2-.5.4-.7.5-.5.3-.8.6-.9.8l-.2.8h-.8c-.2,0-.8,0-1.2-.1-.4,0-.6,0-1,0-.2.2-.4.5-.6.7-.3.4-.6.8-1,1.2h-.1c0,.1-.1.2-.1.2-.2,0-.4.2-.6.3-1.1.5-2.5,1.2-3.9.5l-.5-.2v-.2c-.8-.3-3.3-.5-5.7-.4h-.2s-.2,0-.2,0c-.9-.3-1.6,0-2.5.3-.7.3-1.4.6-2.4.6h-.3s-.3-.2-.3-.2c-.3-.2-.5-.4-.7-.5l-1.7,1.7v-12s.3-.3.3-.3h0c0,0-.2,0-.3.1-.1,0-.3.2-.4.4-.3.3-.6.6-1.1.9-.4.3-.8.6-1.3,1l-.2.2h-.3c-1.8.4-3.7.4-5.5.4-.6,0-1.2,0-1.8,0h-1.1s0-1.7,0-1.7c-.1,0-.2-.2-.3-.3l-.4-.4v-.5c0-.2,0-.5,0-.8,0,0,0,0-.1,0-1.7-.6-3.5-.8-5.6-.7l-2.7.2,1.9-2c.6-.7,1.2-1.3,1.7-2,0-.1-.1-.2-.4-.5-.2-.2-.4-.5-.5-.8-.1-.1-.3-.3-.6-.4-.5-.3-1.2-.8-1.4-1.8h0l-.3-.3c-.2-.1-.3-.2-.4-.4-.1,0-.3-.2-.4-.3l-.4-.4v-.5s0-.1,0-.2c0-.1-.2-.2-.2-.3l-.2-.3v-.3s0,0,0-.1h0c0,0,0,0,0,0l-1.2-1.2v-1.3s0,0,0-.1c0,0-.2-.3-.3-.4,0,0-.1-.1-.2-.2h-.1l-1.2-1.2.8-.8v-1.6h1.2s0,0,0,0v-.5c0-.7.1-1.2.3-1.7,0,0,0-.2,0-.3v-.3c0,0,.3-.2.3-.2,1.1-1.1,2.4-2,3.5-2.6l.3-.2h.7c0-.6-.1-1.1-.4-1.7-.3-.7-.3-1.2,0-1.9.3-.6.6-1.1.9-1.6.2-.3.4-.7.6-1,0-1.4.4-2.9.7-3.9v-.6c.1,0,.7-.2.7-.2.4-.1.9-.3,1.4-.3.3-.2.5-.4.8-.7,1.7-1.4,3.4-2.8,5.6-3.5h.2c.5-.1.9-.2,1.4-.2,1.1-.1,2.1-.2,3-.7h.3c0-.1.3-.1.3-.1.5,0,1.1-.1,1.6-.4h0c0-.1,1-1.1,1-1.1h.3c.6-.2,1.2-.2,1.8-.3.5,0,1,0,1.3-.1h.6c0-.1.4.3.4.3.1,0,.3.2.5.4l.2.2h0c.1.1.3.1.4.1.2,0,.3,0,.4,0h.1c1-4.6,1.9-9.4,2.7-14,.4-2.5.9-5.1,1.4-7.6h0c0,0,0,0,0,0l-.3-.3v-.5s-.7-.7-.7-.7v-.5c0-.1,0-.2,0-.4h-.1c0-.1,0-.5,0-.5,0-.5,0-.8.1-1.1,0,0,0-.1,0-.2,0,0,0,0,0-.1h-.3s-.3-.2-.3-.2c-.2-.1-.4-.3-.6-.4-.6-.5-1.3-1-1.9-1.7l-.2-.2v-.3c-.3-1.3-.3-2.6-.3-3.9,0-.8,0-1.5,0-2.1v-1c0,0,.9-.1.9-.1.2,0,.5,0,.7,0v-8.3s1.1,0,1.1,0c.1,0,.2,0,.4,0,.2,0,.5-.1.9-.1.4-.1,1.1-.3,1.8,0,1.7.2,3.5.2,5.4.2.7,0,1.4,0,2.1,0,0-.2.1-.4.2-.6,0-.1.1-.3.1-.4v-.3c0,0,.8-.7.8-.7h.5c.3,0,.5.1.7.2h.3s.3.3.3.3c.2.2.5.6.6,1,0,0,0,.1.1.2,0,0,.1,0,.2,0,.4-.5.9-1,1.3-1.4.2-.2.3-.3.5-.5.2-.2.4-.3.5-.4l.3-.3h.3c0-.1.4-.2.4-.2.3,0,1.3,0,1.8.7.2.3.4.6.6.9,1.3,2.1,1.5,2.5,1.4,4.9,0,0,.2,0,.3,0h.5c0-.1.4.2.4.2.6.5,1.2,1,1.8,1.5.8.7,1.5,1.4,2.3,1.8.5,0,1,0,1.5-.2.5-.4,1-.6,1.4-.8.2,0,.4-.2.5-.3l.3-.2h.3s0,0,0,0c.2,0,.7,0,1.2.4h0c.2.2.5.3.8.6.4-.3.8-.6,1.1-.9,0,0,.1-.1.2-.2.2-.3.6-.9,1.5-1.1.2,0,.3-.2.5-.3.3-.2.5-.3.9-.5h.2c0,0,.5,0,.5,0,.4-.3.8-.6,1.2-1h0c0,0,.1-.2.1-.2.6-.4,1.3-.4,1.8-.3.1,0,.2,0,.3,0,.5-.2,1-.7,1.1-2.3v-.4s1-.9,1-.9h.2l.2-.2h.5c.4,0,.8-.1,1.3-.4.4-.2.9-.4,1.4-.6h0c-.3,0-.7,0-1,0-1,0-2-.1-3.1-.4h-.3c0,0-.6-.6-.6-.6v-.2c-.3-.6,0-1.2.1-1.4,0-.2,0-.4,0-.7-1.3-2-1.5-4.1-1.4-5.7,0,0-.1-.2-.2-.3-.3-.2-.6-.5-.8-.7-.7-.5-1.3-1.1-2-1.8l-.3-.3v-.3c0,0,0-.2-.1-.3,0-.1-.2-.2-.3-.3-.1-.1-.2-.3-.3-.4l-.3-.3v-.4c0-.2,0-.4.2-.6v-.8s1.9,0,1.9,0l.3.2c0,0,.1,0,.2.1.2.1.6.4.9.8.2,0,.4,0,.6,0,.6,0,1.3,0,2,.2,0,0,.2,0,.3.1h0l.3.3c.2.2.5.5.7.9.2,0,.3,0,.5,0,.8,0,1.7,0,2.6.3.8-.3,1.7-.4,2.4.1h0c0,0,.3.4.3.4.5.5.9,1,1.4,1.3l.2.2v.2c.2,0,.2,0,.2,0,0-.2,0-.4.1-.9,0-.5,0-1.1.3-1.6v-.3c.1,0,.4-.2.4-.2.4-.2.7-.3,1-.3,1.2-.8,1.9-.8,2.8-.6.7.1,1.7.4,4.6-.7,0,0,0,0,0-.1,0-.1.1-.2.2-.3l.3-.6h.7s0,0,0,0c0,0,.2,0,.3,0,0,0,.1,0,.1-.1l.3-.5h.6c.3,0,.6,0,.9,0,.1,0,.3,0,.4,0h0c.2-.2.3-.4.5-.7l.2-.4h.2c.4-.4,1-.8,1.5-1,0,0,.1-.3,0-.6-.1-.2-.2-.3-.2-.5,0,0,0-.1,0-.2l.5-.2-.5-1.4c.6-.3,1.3-.2,1.8-.1.1,0,.3,0,.4,0l.2-.2h.5s0,0,0,0c0,0,.1,0,.2-.1l.4-.4.6.2c0,0,.2,0,.3,0,0,0,0,0,.1,0h.5c0,0,.9.9.9.9v.2s0,0,0,0c.1,0,.4.2.6.4l.3.3v.4c0,.5,0,1,0,1.4,0,.4,0,.7,0,1v.4s-.1.3-.1.3h0c.2.2.4.2.5.2h.4c0,0,.3.2.3.2,0,0,.2.1.3.2.3.2.6.4.9.8l.3.3v.4c0,.2-.1.4-.1.6,0,0,0,.1,0,.2.2.3.4.6.5.8,0,.1.1.2.2.3.3.2.6.5.6.9,0,.3,0,.8-.2,1.2,0,0,0,.1,0,.1v.3s-.5.5-.5.5v.6s-.7.3-.7.3c-.2,0-.4.2-.5.3,0,.5.1,1,0,1.4v.3s-.2.2-.2.2c-.6.9-1.2,3.5-.7,5.2.2.5.4.9.8,1l.7.3v2.9c.1,0,.2.2.3.2h0c0,0,.3.4.3.4v.4c0,0,.1,0,.2,0h.3c0,0,1.3,1.4,1.3,1.4h0s.8,0,.8,0v.8s0,0,0,0l.3.3c0,0,.1,0,.2,0,.7.1,1.8.3,2.3,1.1h0c.4-.3.8-.4,1.1-.4v-.4c0,0,.8-.9.8-.9h.3c.1-.1.2-.3.3-.3h0c0,0,.3-.5.3-.5h1.1s.2.2.2.2c.2,0,.5,0,.7.2,0-.1.1-.3.3-.4l.4-.4h.6c0,0,0,0,.3,0,.2,0,.5-.2,1-.2h0s0,0,0,0c.3,0,1,0,1.1,0,.1,0,.5-.6.6-.9l.2-.3h.3c0-.2.2-.2.3-.3,0,0,0,0,.1,0l.3-.3h.6c0,0,.3,0,.5,0,.3,0,.6-.2,1-.2h.5s.3.3.3.3c.1.1.2.2.4.4.2,0,.4.1.6.2.2,0,.3.1.4.1.2,0,.5-.1.8-.2l-.6-1.1,1.6-.2c.8,0,1.5.2,2.2.4.3,0,.5.2.8.2,0,0,0,0-.1-.1-.2-.2-.4-.4-.6-.7h-.7s0-1.8,0-1.8l.9-.9h0c0,0,0-.5,0-.5l.8-.8h1.1s.2.2.2.2c.1,0,.2.1.4.2.2,0,.4.2.7.3h.4c.2,0,.5,0,.8,0,.3,0,.5,0,.8,0l.4-.4h.6c0,.1.2,0,.3,0,.3-.1.7-.3,1.2-.2h.3s0,0,0,0l.3-.3h1.7s0,.8,0,.8h.4c.5,0,.8.2,1.1.5h.1c0,.1.1.4.1.4,0,0,0,.1,0,.2.2,0,.4.2.6.3h.2s.3.4.3.4c.2.3.7.4,1.4.6.3,0,.7.1,1,.3.5-.3,1-.6,1.4-1l.2-.2h.2c.2-.2.6-.3,1.1-.2h.3c0,0,.3.4.3.4.2,0,.3.1.4.2.4,0,.6,0,.9,0h0s0-1.4,0-1.4l1.7,1c.4.3.6.6.8.8h.7s.2.1.2.1c0,0,0,0,.1,0,.3-.3.7-.6,1.1-.7,0,0,0,0,.1,0,0,0,.2-.1.3-.1h0c0-.3.2-.4.3-.6.1-.2.2-.4.2-.4v-.4c0,0,.2-.4.2-.4,0-.1.2-.4.3-.6.2-.4.4-.9.8-1.3h0c0,0,0-.3,0-.3l.3-.3c0,0,0-.2,0-.4,0-.3,0-.6.2-1v-.2c0,0,.2-.1.2-.1.1-.1.3-.3.6-.5.8-1,1.4-1.9,1.5-2.6v-1c.1,0,.7,0,.7,0,0-.1.2-.2.3-.3h0c0-.1.3-.3.3-.3h0c0,0,0-.2,0-.2h0c0-.1,0-.2,0-.2.3-.5.5-.8,1.2-1.1.2-.3.4-.7.4-.9v-1.4c-.1,0,1.2.2,1.2.2,3.6.6,4,4,4.4,6.7.1,1.1.3,2.2.6,3,.6,1.3,1.3,2.8,1.6,4.5.3.7.6,1.3.8,1.9h0s.3-.1.3-.1c.8-.3,1.5-.3,2,0,.9.5.9,1.7,1,2.4h0c.1,0,.3.1.4.2h.2c0,0,.2.3.2.3,0,0,.1,0,.2.1.2.1.3.2.5.4h.1c0,.1,0,.3,0,.3.6,1.4.5,2.7.5,3.9v.6s-.3.3-.3.3c-.3.4-.7.6-1,.8h0s-.3.3-.3.3c-.3.3-.7.6-1,.8-.3.2-.7.4-.7.6v.2s.4,0,.4,0c0,0,.1,0,.2,0,0,0,.1,0,.2,0,0,0,.2,0,.2-.1l.7-1.2.9,1.5c.4.5.4,1.1.3,1.4l.4-.2.6.9c0,.1.1.2.1.2h.4s.3.3.3.3h1.5s-.8,1.2-.8,1.2c.5,0,1,0,1.4.2l.5.2.2.5c.1.3.2.6.2,1,0,0,0,0,.1,0,2.1.1,4.4.3,6.4,1.1l.6.3h1s-1,1.6-1,1.6c0,.1-.2.3-.3.5h.2s0,.1,0,.1c.4-.2.7-.3,1.1-.3.3,0,.6.1.8.3,0,0,.1,0,.2,0,0,0,0,0,.1,0,.3-.1.5-.2.8-.2h.5s0,0,0,0c.6-.3,1.1-.1,1.4,0,0,0,.2,0,.2,0h.3s.2.2.2.2c.3.2.6.4.9.7h1.5s.3.3.3.3h0s.9,0,.9,0l.3.6c0,0,0,0,.3.2.2.1.5.3.8.6l.2.2c.8.2,1.5.3,2.3.2h1.1c0,0,0,.3,0,.3l.4-.3.6,1.1c.1.2.5.4,1,.6.4.1.8.3,1.3.6.5,0,1,0,1.5.2h.4c0,.1.2.5.2.5.1.2.3.5.5.9h.2c.2-.2.4-.3.5-.3.1,0,.2,0,.3,0l.7-.3.5.5c.2.1.3.2.4.3,0,0,0,0,.1,0,0,0,.2,0,.3.1v-1.6s.3,0,.3,0v-.6s2.8,0,2.8,0v2.1s-.4.3-.4.3c-.1.1-.3.2-.4.3h0c0,.1-.2.1-.2.1l-.2.3h0,0c0,0,1.8.1,1.8.1l-.9.9c.5.7.8,1.5.8,2.3h.6s.3.6.3.6c.2.5.5,1.1.5,1.7.5-.1,1,0,1.5.2l.6.3h0c0,.1,0,.1,0,.1h.4c0,0,.2,0,.6-.3l.3-.3h.4c.4,0,.8,0,1.2,0h0c0-.1.3-.4.3-.4v-.6s1,0,1,0c2.1,0,3.9.9,5.7,1.8,1.5.8,2.9,1.5,4.4,1.6l1.2-.6.5.2c.3.1.6.3.9.5.9.5,1.7.9,2.6.9,3.9-.8,7.3-.9,10.4-.3h.2s.2.2.2.2c1.1.7,2.2,1.3,3.5,1.9,1.2.6,2.4,1.2,3.6,2h.1c1.2,1.2,2,2,3.5,2.3h.4c0,0,.8.9.8.9,2.3,2.7,4.7,5.4,7.9,6.6h.3c0,.1.9,1.4.9,1.4,1,0,2.1.2,3.1,1.1,1.1.3,2.7.3,4.7-.2h.2s.2,0,.2,0c.6,0,1.1.2,1.6.3.5,0,1.1.2,1.6.3h.3s.2.2.2.2c2.5,1.8,3.1,4.9,3.6,7.4,0,.3,0,.5.1.8,1,1.7,1.3,3.6,1.6,5.3h0c0,0,.3,0,.3,0v.9c.4,1.6.3,3.3-.1,5.2,0,.2,0,.4.1.6.1.4.3,1,.2,1.7v.2c-.2.5-.4,1-.5,1.5-1.4,4.3-2.8,8.7-6.8,11.5h0c0,0,0,.1,0,.1h0s0,.2,0,.2c-.6,1.1-1.4,1.9-2.2,2.8-.8.8-1.5,1.5-2,2.4l-.3.5h-.6c-1.9.7-3.4,2-4.5,3.9l-.3.5h0s-1.5,2.2-1.5,2.2h-.3c-.1,0-.3.1-.4.1-.6,3.2-3.4,7.2-5.7,9.7v1.7s-.5.3-.5.3c-.2.1-.3.2-.5.4-.2.2-.5.4-.8.5h0c-.2.2-.5.3-.7.3h-1.1s0-1.3,0-1.3h-.5v-.8c0,.2-.1.3-.2.5,0,.1-.1.3-.1.4l.2.6-.6.5c-.7.6-1.1,1.1-1.4,1.6h0c0,0,.1.3.1.3.1.3.4.8.1,1.4,0,.1-.2.3-.3.4,0,0,0,.1,0,.2,0,.1,0,.3,0,.4h0c0,0,.8.9.8.9l-.2.6c-1.2,4-.4,8.3.4,12.4l.2,1v.2c-.3.8-.5,1.5-.7,2.3-.8,2.6-1.6,5.4-2.1,8.1,0,.4,0,.7.1,1,0,.5,0,1,.3,1.4l.3.7-.6.5c-2.5,2.1-3.5,3.1-3.9,6.5,0,.8,0,1.6.1,2.4.2,1.7.3,3.4-.4,5v.2c0,0-.3.2-.3.2-1.7,1.5-2.6,2.9-2.7,4.4v.4s-.7.6-.7.6c-.3,2.3-2.3,3.8-3.8,5h0c-.2.7-.5,1.2-.9,1.8-.5,1-1,1.8-.8,2.6.9,4.1-.6,4.9-2.9,5.7-1.3.4-3,.9-4.6,2.9,0,.1,0,.2,0,.4,0,0,0,0,0,0l.6.6-.5.7c0,0-.1.2-.2.3-.1.1-.3.4-.3.5v1.1c0,0-1.2-.1-1.2-.1-1.1-.1-2.2,0-3.4.1-1.3.1-2.7.3-3.9,0h-.2s0,.3,0,.3h-1c-.6,0-1.3.2-2.1.3l1.5,1.5-3-.3c-.2,0-.4,0-.6.1-.3,0-.6.2-.9.2h-.5s-1.5-1.4-1.5-1.4l.4-.4h0c-.6,0-1.3,0-2,.2-.1,0-.3,0-.4,0l1,.5-1.1,1h0v.2l-.6.3c-.6.3-1.5.5-2.5.6-.5.4-1.1.8-1.6,1.3l-.3.3h-.4c-.2,0-.3,0-.6.3,0,.5-.2,1.1-.7,1.4l-.4.2h-.4c-2.3-.9-4.5.5-6.8,1.9-.8.5-1.7,1-2.6,1.5-1.3,1.6-2.9,2.7-4.5,3.8-.9.6-1.8,1.2-2.6,1.9-.1.2-.3.3-.4.4,0,.2,0,.3-.1.4h0c0,0,0,.7,0,.7l-.5.3c-.4.3-.8.7-1.2,1.1-.2.2-.4.4-.6.7l-.3.3h-.4c-.2,0-.3,0-.4,0h0s-.3.8-.3.8c-.2.3-.4.7-.5.9-.2.3-.3.5-.5.8v.2c-.1,0-.2.5-.2.5,0,.3-.1.5-.1.8,0,.4,0,.7-.2,1.1v.2c0,0-.2.2-.2.2-.1.2-.3.3-.4.4,0,0,0,.2.1.3v.2c0,0,0,.2,0,.2,0,.7,0,1.3-.2,2,0,.4.1.8.3,1.3,0,.1.1.3.1.4h0c0,.1,0,.2,0,.2,0,.9.1,1.5.4,2.3l.2.6-.4.4c.1.9-.1,1.6-.4,2.3.4,2.3.6,5.4-1.2,7.7v1.4s-.6.3-.6.3c-5,2.6-7.2,7.4-9.5,12.5-1.6,3.4-3.2,6.9-5.7,9.8v.2h-.1s0,0-.1,0c-1.2,1.7-2.9,2.9-4.4,4.1-1.3,1-2.6,1.9-3.5,3.1l.3.3-.8.8c-1.2,1.2-1.7,2.9-2.3,4.7-.4,1.3-.8,2.6-1.5,3.7h0c-.9,1.4-2,2.4-3.2,3.4-.8.7-1.5,1.4-2.2,2.1l-.2.3h-.4c-.1.1-.2.1-.3.1Z"/>
      <path class="cls-1" d="M245.1,277.6c-.2.2-.3.3-.5.3,0-.6,0-1.3.2-1.9.2-.5.6-1.1,1-1.5.2.2.2.3.3.5,0,.8-.4,1.5-.8,2.1-.3.2-.3.3-.2.5ZM244.4,266.6c-.3-.2-.5-.6-.6-1,.3-.3.7-.7,1-1,.2.2.2.3.3.3,0,.3-.2.5-.2.8-.2.2-.2.3-.3.5,0,.2-.2.3-.2.3ZM269.3,246.1c0,.2,0,.3,0,.5-.4-.3-.7,0-1.1,0q-.2-.2-.3-.3c.3-.5.8-1,1.1-1.3,0,0,.2.2.3.3,0,.2.2.2.2.3,0,0-.1.1-.2.2v.3ZM277.6,240.1c0,0,.1.1.2.2-.6,0-1.2.3-1.8.3q-.2-.2-.3-.3c.2-.2.5-.3.7-.5,0-.2.2-.2.2-.3,0,0,.1,0,.2,0,.3.3.9.7,1,.6ZM316.6,166.3c-.2.2-.2.3-.3.5h-.3q0-.2-.2-.3c0-.2-.4-.4,0-.5,0,0,.1-.1.2-.2.2,0,.3,0,.5,0,0,.2,0,.3.2.5ZM317.8,163.4c-.2,0-.2.2-.3.2v-.5c.3-.2.5-.3.8-.6,0-.2.2-.5.2-.6.2.2.3.2.3.3s0,.3.2.3v.2c-.5.3-.8.6-1.1.8ZM274.5,88.8c-.3.2-.5.5-.8.6.4-1.1-.6-1.5.6-2.4h.2c0,.6.1,1.3,0,1.8ZM271.6,76.9c-.2.2-.5.2-.6.5-.2,0-.3-.2-.3-.2v-.2h.2c0-.2.2-.3.2-.6.2,0,.5,0,.6,0,0,.3,0,.5,0,.5ZM220.1,77.1c-.3,0-.5.2-.8.2.5-1.1,1-1.9,1.9-2.6,0-.5,0-1.1,0-1.6.5-.9,1-1.5,1.9-2.1.5,0,.8-.2,1.3-.1.2.3.5.7.7,1-.3.8-.5,1.8-.8,2.6,0,0-.1,0-.2,0-.7,1-1.5,1.6-2.4,2.2-.7,0-1.1.1-1.6.5ZM236.3,68.4c.5,0,1.1,0,1.6-.1.2-.2.5-.2.6-.3,2.2.2,4.8.2,6.8,1.1,0,.2,0,.3.2.3-.2.4-.4.9-.6,1.3,0,.3-.2.6-.2,1,0,0-.1.1-.2.2q-.2,0-.3,0c0,.6.4,1,0,1.4-.4.5-.4,1.2-1,1.4-.2.2-.8.6-1,.8,0,.3,0,.5.2.6,0,.2-.2.3-.2.5-.2.2-.5.5-.6.6-.3.1-.9.2-1.1.1-.2-.2-.5-.5-.7-.7,0,.5-.1.9-.3,1.3-.3,0-.5,0-.8,0-.4-.3-.8-.5-1.3-.7,0,.3-.2.6-.2.8-.2.2-.3.3-.5.6-.4.1-.8.3-1.3.3-.2.2-.3.2-.5.3-.8,0-1.3-.6-2.1-.5q-.2.2-.3.3c-.8,0-1.7-.1-2.4.3-.5,0-.8-.6-1.1-.8-.4-1.4-1.6-2.7-1.2-4.2.4,0,.7.1,1.1.2.2-.7-.6-.4-1-.5-.2-.2-.3-.3-.5-.5-.2-.9-.2-1.8,0-2.7.3-.2.3-.6.5-.8,0-.2,0-.3-.2-.5,0-.3.2-.5.2-.8.2-.2.3-.5.3-.6,1-.7,1.8-1,2.9-1.1,2.1.8,3.6,1.2,5,1.4ZM228.8,67.7c-.6.5-1.3.9-2.1,1.4-.2-.2-.5-.3-.7-.5,0-.3-.3-.4,0-.6,0-.1.1-.5.2-.6.8-.4,1.7-.4,2.6-.1-.2,0,0,.2,0,.5q0-.2,0,0ZM237.8,67.7c-1,.1-2,.2-2.9-.2,0-.2.2-.2.2-.3.8-.7,2-1.1,3.1-.8.1.3.2.6.2,1-.2,0-.3.2-.5.3ZM235.5,64.7c.2.2.2.3.3.3-.3.5-.6,1-1,1.4-.7.3-1.5.2-2.1-.4-.8-.1-1.8.4-1.6-.8.2-.2.3-.5.5-.6.9,0,2.2-.1,2.9-.6.3.5.7.7,1,.7ZM230.4,65.6c0,.3-.2.6-.1,1.1-.5-.2-.8-.3-1.3-.5-.2-2,1.7-.8,1.4-3.7,0,0,.1-.1.2-.2,0,0,.2,0,.3,0-.1,1.1.4,2.3-.5,3.2ZM232.5,63.9c-.3,0-.5.2-.8.2,0,0-.1-.1-.2-.2,0-.5,0-1,.1-1.4.3,0,.6-.2,1-.1,0-.2.3,0,.5-.3.2.3.2.5.2.8-.3.5-.6.8-.8,1.1ZM231.3,52.6c-.5.2-.8.4-1.3.1-.4-.7-.3-1-.2-1.6,1.3-.6,1.4.4,1.5,1.5ZM185.5,51.9c1.3-.1,2.6,1,3.7.5.2,0,.2-.2.3-.2,0-.4,0-.8,0-1.1-.2-.2-.2-.3-.3-.3-.3-.4-.8-.6-.8-1.1-.2,0-.3-.2-.5-.2q0-.2,0-.3t.3-.3c.2,0,.2-.2.3-.2,0,0,.1-.1.2-.2,0-.3.2-.5.2-.8,0,0,.1-.1.2-.2,0,0,.2,0,.3,0,.5.3,1,.4,1.5.8.2,0,.3,0,.5-.2.6,0,1.3-.1,2.1-.1q.2-.2.3-.3c.6.1,1-.4,1.6-.3.2,0,.4,0,.6,0,.2-.2.3-.2.5-.3,0,0,.1,0,.2,0,0,.2,0,.3,0,.3.2.2.2.3.3.3.2.2.3.2.3.3.2,0,.6,0,.8-.2q.2,0,.3.2c.1.2.2.4.2.6.2,0,.2.2.3.2.2,0,.4-.1.5.2.2,0,.2.2.3.2.8,1,2.3.8,3.3,1.3.7-.3,1.5-.8,2.1-1.4.2,0,.3-.2.5-.2,0,0,.1.1.2.2,0,.2.5,0,.5.3.7.2,1.2.3,1.9,0,.2-.2.3-.2.5-.3,0,0,.2,0,.2-.2.4.2.4.5.5.8,0,0,.1.1.2.2.5,0,.7,0,1.1,0,.4.2.9.2,1.3,0,0-.4.5-.6.8-.6.3-.2.8-.3,1-.8.3-.5.7-1,.6-1.6.4-.6.5-1.4,1.1-1.9,0-.2.2-.3.2-.5.4-.4.3-1.1.5-1.6.2-.2.3-.3.5-.3.8-.9,1.8-2.2,1.9-3.4.2,0,.2-.2.3-.2,0-.2.5-.6.5-.6.4-.2.4-.5.5-.8.3-.4.4-.6,1-.8.4-.6.9-1.2.8-1.9,4.1.7,2.9,6.2,4.2,9.1.7,1.4,1.3,2.8,1.5,4.4.3.7.6,1.4.8,2.1q-.2.2-.3.3c.2,0,.7,0,.8.2,0,.3.2.5.2.8.3.4.5.8.8,1.1,1,.1,2,.2,2.9.5.2.2.5.3.7.5.5,1.3.4,2.4.4,3.7-.3.4-.7.5-1.1.8,0,.2-.2.2-.2.3-.6.6-1.8,1-1.9,1.9-1.6,1-1.8,3.3-3.5,4.1-.4,0-.8,0-1.1.1-.5.7-1.4,1.5-2.3,1.4,0,.2-.2.5-.2.6-.7,1.9-2,2.7-3,4.3-.2.5-.2,1.2-.1,1.8-.5.5-1,1-1.6,1.3,0,.5,0,1-.5,1.3-.6.3-1.2,0-1.9-.2-1.1.4-2.1,1-3.2,1.4,1.2.1,2.6-.4,3.4.7.6-.2,1.3-.3,1.8-.3,1.6-1.1,3.2-1.8,4.8-2.7.5-.6,1.2-1,1.9-1.4.2-.3.6-.6,1-.6.3.3.4.5.3.8-.2.2-.3.3-.6.5,0,.4.5.5.5.8.2.6.2,1.3.3,1.9.3.3.5.8.8,1.1,0,.4,0,.5-.2.8.2.2.3.3.3.3.7.3,1.2.9,1.6,1.3.4-.3,1.1-.7,1.8-.8.2-.2.3-.2.5-.3.3,0,.6-.2.8-.2.6.3,1.5.6,2,.8,1-.5,1.9-.9,2.9-1.4-.5,1.3-.8,2.8-1.4,4-.2.6-.2,1.1-.3,1.8-.2.3-.4.6-.6,1,.2,0,.3-.2.5-.2.2-.2.3-.2.3-.3,1.4-1.6,1.1-5.3,3.9-5.4.6-.8,1.4-1.6,2.1-2.4.3,0,.5,0,.8,0,.3.3.5.8,1,1,0-.2.2-.5.2-.6.2-.2.5-.2.6-.3-.3-.2-.5-.2-.8-.3-.2-.3-.2-.5-.2-.8.2-.2.3-.5.5-.6-.2-.2-.2-.3-.3-.6.3-.3.6-.5,1-.8,0-.2,0-.3,0-.6.2-.2.3-.3.3-.5.2-.2.3-.3.5-.5.2,0,.3-.2.5-.2,0-.2,0-.3.2-.5.2-.1.4-.2.6-.2.2.2.3.3.5.5.3-.2,1-.9,1.5-.5.2,0,.2.2.3.2q.2,0,.3.2.2,0,.3,0c.2-.2.5-.3.6-.3.2.2.5.3.7.6.2,0,.3.2.3.2q0-.2-.2-.3c0-.2-.2-.2-.2-.3,0,0,.1-.1.2-.2.4-.3.8,0,1.3,0,.4.2.7.5,1,.8.6,0,.8,0,1.5,0,.2.2.3.2.3.3.2,0,.3,0,.6,0,.3.6.8.6,1.3,1.1,0,.2.2.3.2.3,1,.3,2,.4,3.1.4,0,.2,0,.3,0,.5.4.1.8.3,1.1,0,.6,1.1,2.1,1,2.9,1.8.5-.2,1-.1,1.5,0,.5.7,1,1.8,1,2.7.2,0,.2-.2.3-.2.3-.4.5-.9.8-1.4.3-.2.5-.2.8-.3.2.2.3.2.3.3.6.4,1.1.5,1.5,1.1.2.4.4.3.8.3-.2.2-.3.3-.5.5.2,0,.3,0,.5,0,.2-.2.3-.2.5-.3.6.6.9,1.4.8,2.3-.3.5-.7.8-1,1.3-.2,0-.3,0-.3.2-.2,0-.3.2-.3.2.2.2.3.3.5.3.2.2.2.3.3.3.2-.5.6-1,1.1-1.3.2,0,.5-.2.6-.2.2.5.4.9.3,1.4-.3.2-.6.2-1,.3,0,.2,0,.3,0,.5q-.2.2-.3.3c0,.2-.2.3-.2.3-.2,1.6-.8,3-.9,4.6,3-.9,2.1-6.1,4.5-5.1,0,.7,0,1.1-.6,1.6,0,.2-.2.3-.2.3,0,.2.2.3.2.3.7-.6,1.1-1.2,1.9-1.7.6,0,1-.2,1.5-.6.6,0,1.3,0,2.1-.1,0-.2.2-.5.2-.6.2-.2.3-.2.3-.3,3.7-.1,6.5,3.4,10.3,3.4.3-.2.6-.3,1-.5,1.3.6,2.5,1.5,4.1,1.5,3.2-.7,6.7-1,10.1-.3,2.2,1.6,4.8,2.4,7,3.9,1.2,1.2,2.3,2.1,4.1,2.5,2.5,2.8,5.2,6.1,8.9,7.4.3.5.7,1,1,1.4,1.1.1,2.3.1,3.1,1,1.7.6,3.8.3,5.5,0,1.1.2,2.1.4,3.3.5,2.4,1.7,2.8,5,3.3,7.7,1.1,1.7,1.3,3.9,1.7,5.9.2,0,.2.2.3.2.3,1.7.1,3.3-.3,4.9,0,.8.5,1.4.3,2.2-1.5,4.5-2.7,9.5-6.9,12.4-.4.2-.6.2-1,0,.2.2.2.5.3.6-1.2,2-3.1,3.2-4.2,5.2h-.2c-2.3.8-4,2.4-5.2,4.4-.2,0-.3-.2-.5-.2,0,.3,0,.6,0,1-.3.5-.6.9-1,1.4-.2,0-.2.2-.3.2,0-.4,0-.4.2-.6,0-.2,0-.6,0-.6-.5.4-.5.8-1,1.3,0,3.5-4.4,9.2-7.1,11.6-.2,0-.6,0-.7,0,0-.5-.2-1-.2-1.4-.3-.3-.7-.6-1-1-.2,0-.2-.2-.3-.2-.2.3-.3.6-.3,1q-.2.2-.3.3h-.5c.2.2.3.3.5.5.4.7-.6,1.5-.3,2.2-.7.6-1.5,1.5-1.8,2.4,0,.3-.2.5-.2.8.2,0,.3-.2.3-.2,0,0,.1.1.2.2,0,.2.3.6,0,.6-.2.2-.2.5-.3.6-.1.6.3,1.6-.2,2.1.2.2.2.3.3.5.2-.3.2-.5.3-.8,0,0,.1.1.2.2-1.3,4.5-.3,9.2.5,13.7-1,3.5-2.1,7.1-2.8,10.7.2,1,.1,2,.5,2.9-2.6,2.2-3.8,3.4-4.2,7.2-.1,2.4.8,4.9-.2,7.2-1.6,1.4-2.9,2.9-3.1,5.1-.2.2-.5.5-.7.6,0,2.2-2.2,3.6-3.8,4.8-.5,1.7-2.3,3.4-1.8,5.3,1.4,6.1-3.1,2.5-7.4,7.7-.2.4-.2.8-.2,1.3.2.2.2.3.3.5-.3.4-.6.8-.7,1.3-2.4-.3-5.1.5-7.3.2-.2-.2-.3-.2-.5-.3,0-.2-.2-.3-.2-.5.2-.2.2-.5.3-.6,0-.2-.2-.3-.2-.3-.3,0-.7,0-1,.2,0,.2,0,.3-.2.3,0,.2,0,.6.2.6,0,.2,0,.3.2.5,0,.2-.2.3-.2.5-1.6,0-3.3.4-4.9.8-.2-.2-.3-.2-.5-.3.7-.3,1.4,0,2.1-.5,0-.2-.2-.2-.2-.3-.3-.2-.8-.3-1.1-.5-.9.2-1.4.3-2.1.8-1.2-.1-2.4.3-3.6.3-.2.2-.2.3-.3.5,0,.3,0,.5,0,.8.3,0,.6.4.6.5-.2.2-.3.2-.3.3-.7.3-1.7.5-2.4.5-.7.5-1.3,1-2,1.6-.7,0-1.1.4-1.6.8,0,.1,0,.8-.2,1-3.9-1.2-7,2.1-10.4,3.6-1.9,2.5-4.9,3.8-7.2,5.8-.2.3-.3.4-.7.3-.2.2-.3.2-.5.3,0,0,.1.1.2.2.2,0,.3,0,.3,0,0,.3-.2.5-.2.8-.8.5-1.3,1.3-2,1.9q-.2,0-.3-.2c.2-.3.3-.5.5-.8-.6,0-1.1-.1-1.6-.3-.2.2-.3.2-.5.3,0,.3.2.5.2.8-.2.2-.3.2-.3.3-.5,0-.7,0-1.3,0-.2-.2-.5-.3-.7-.5.2.3.2.6.3,1,.9,0,1.2.2,2,.3,0,.2.2.3.2.3-.3.6-.7,1.1-1,1.8-.3,0-.7.2-1,.2q0,.2-.2.3c.2,0,.3,0,.5,0,.2.2.2.3.3.5-.2.6-.2,1.3-.3,1.9-.3.3-.5.4-.8.3q-.2.2-.3.3c.1.4.5.8.6,1.1,0,.6,0,1.2-.2,1.8-.1.8.2,1.5.5,2.2,0,.9.2,1.6.5,2.6-.2.2-.2.3-.3.5.3.9,0,1.6-.3,2.4.4,2.5.6,5.4-1.2,7.4,0,.3,0,.8,0,1.1-9,4.7-9.4,15.9-15.8,22.9-2.3,3.1-6.1,4.6-8.3,7.7-.2-.5,0-.8,0-1.3-.1-.3-.2-.7-.2-1.1.5-.3.8,0,1.3.3.2-.2.3-.2.3-.3.2-.2.2-.2.3-.3.3,0,.7-.2,1-.2,1.1-1.6,2.9-2.2,3.9-3.8.2-.6.2-1.3.2-1.9.2-.2.3-.2.5-.3.3,0,.7,0,1,.2,0-.2.2-.3.2-.3,0-.4.1-.9.2-1.1.9-.5,1.4-.9,2-1.8,0-.8-.1-1.6-.1-2.4,0,0,.2,0,.2-.2.2.2.3.3.5.3.4-.4.6-1.1.3-1.6-1.1-.5-2.2,1.3-3.4,1,0-.3,0-.6-.2-1-.3-.2-.6-.3-1-.5-.4-.5-.2-.8-.5-1.3-.2,0-.2-.2-.3-.2-.2,1.2.2,2,1.1,2.7,0,.2-.2.3-.2.5-.9.6-.9,2-.8,2.9,0-.2-.2-.3-.2-.5-.2,0-.2-.2-.3-.2,0,.5-.2,1-.2,1.5-.2.2-.3.3-.7.7-.2.4-.1.7,0,1.1-.8,1.4-2.7,1.8-3.9,2.8-.1,2.5-2.1,3.4-1.4,6.1.2.2.2.5.3.6-2.3,2.3-2.4,5.9-4,8.6-1.4,2.1-3.6,3.5-5.2,5.4-.2,0-.4-.1-.6-.2-.2-.2-.3-.2-.3-.3,0,0,0-.2-.2-.2.2-1.6-.3-3.7.4-5.2.9-.6,1.4-1.4,2-2.3.3-.5.9-.7.5-1.3-.4-.4-.9-.8-1.5-.8-.7-.3-1.2-1-1.8-1.4-.5-1-.5-2.1-1.1-3.1-.2,0-.2-.2-.3-.2-.2-.2-.3-.3-.5-.3-.2-.4-.5-.4-.8-.5-.6,0-1.2-.4-1.8-.5-.9-.7-1.9-1.6-2.2-2.7-1-1.1-2.8-.8-3.7-2.2-.2.2-.3.2-.3.3-.4-.2-.8-.5-1.3-.8-.1-.3-.3-.6-.5-.6-.2-1-1.1-1.5-1.8-2.2-.2,0-.3-.2-.5-.2,0,.2-.2.2-.2.3q0,.2-.2.3c-.2,0-.2.2-.3.2-.2.2-.3.2-.3.3-.2.2-.3.3-.3.5-.2.2-.3.2-.5.3-.1,0-.8.2-1,.2,0-.6.1-1.4.2-2.1-1.4-2.1-3.7-3.7-5.3-5.6-.6-.7-1.4-.7-2.3-.6-.8.2-.9.9-1.3,1.5-.9,0-1.7,0-2.6-.1-.2-.2-.3-.5-.5-.6.2-.2.2-.3.3-.3.8-.7,1.8-1.4,2-2.4,1.2-1.3,2.9-2,3.9-3.6.8-.8,1.1-2.3,2.3-2.6.7-.8,1.1-2,1.8-2.9.6-.4,1.1-.6,1.5-1.3,0-.3.3-.6.5-.8.3,0,.3-.2.5-.3,0-.3-.1-.4.2-.5,0,0,.1-.1.2-.2.5,0,.7.2,1.1.1q0-.2.2-.3c0-.2-.2-.2-.2-.3-.2-.2-.3-.3-.3-.3,0-.2.2-.3.2-.5.9-.7,2.4-1,2.9-2.1.6-.6,1.5-.5,2.1-1.1v-.3c0,0,.1-.1.2-.2.2,0,.5-.2.6-.2q.2-.2.3-.3c0-.3,0-.7.2-1,.1-.3.5-.3.7-.5.2,0,.3,0,.5.2.3,0,.6-.4.7-.5.7-.3,1.5-.1,2.3-.3.4-.2.8-.6.8-1.1.2-.2.3-.2.3-.3.2,0,.2.2.3.2.5-.2.9-.9,1.5-1,.2-.2.3-.2.7-.3.3-.8,1.1-1.6,1-2.6-.4-1.2.1-2.5,0-3.7.2-.2.2-.3.3-.5-.3-1.7-1.3-3.2-1.4-5-.2,0-.3-.2-.5-.2-.2-.2-.3-.3-.5-.6-.5.1-1-.4-1.5-.3q-.2.2-.3.3c-.5,0-1.1.1-1.5.5-.2,0-.3-.2-.5-.2q-.2-.2-.3-.3c-.2,0-.3,0-.6,0-.2-1.4.9-2.4,1.3-3.7-.3-2.2,1.3-4.4,1.2-6.6-.2-.5-.4-.8-.3-1.5.2-.2.3-.3.3-.5,0,0,.1-.1.2-.2-.8-.2-1.3-1.3-2.1-1.4-.2-.2-.5-.2-.7-.3-.9.4-1.7,1-2.6,1.3-.8,0-1.5.6-2.3.2-1.4,0-1-1.6-1.3-2.6-.2-.2-.3-.3-.5-.5,0-.2-.2-.3-.2-.3,0-.4-.1-1,.2-1.3,0-.3,0-.6-.2-.8,0-.7,0-1.3-.5-1.8-.2-.7-.3-1.3-.3-2.1.1-.4.3-1,0-1.3-.2,0-.3-.2-.5-.2-.2-.2-.2-.5-.3-.6,0-.3,0-.5,0-.8-.1-.2-.5-.7-.6-.8-1-.2-2.1,0-3.1-.3,0-.2-.2-.2-.2-.3-.2-.2-.3-.3-.5-.3-.2-.2-.2-.5-.3-.6-.2,0-.3-.2-.3-.2-.2,0-.3.2-.5.2,0,.2-.2.2-.2.3,0,.4-.5.5-.5.8-.7,0-1.4.3-2.1.2-.5-.1-1-.3-1.5-.3-.4-.2-.9-.2-1.3,0-.5-.2-1.2-.1-1.8-.2-.2-.2-.3-.3-.5-.5-.2,0-.6-.2-1-.2-.2.2-.3.2-.5.3-.3,0-.7,0-1-.2-.3-.7,0-1,.2-1.6-.1-.3-.4-1.1,0-1.3,0-.2,0-.3.2-.5,0-.6,0-1.1,0-1.6.2-.2.4-.8.5-1.1,0-.3-.2-.5-.2-.8.4-.9.5-1.9.2-2.9,0,0-.1-.1-.2-.2,0-.1,0-.3.2-.3-.1-.2-.2-.4-.2-.6,0,0,.1-.1.2-.2,0-.2-.2-.3-.2-.5-.2,0-.2-.2-.3-.2,0,0-.1-.1-.2-.2-.3-.6-.1-1.6-.6-2.1,0-.3-.2-.6-.3-.8,0-.2,0-.3-.2-.5,0-.2-.2-.3-.2-.6.2,0,.3,0,.5-.2,0-.2.2-.2.2-.3.2-.2.2-.3.3-.5.2,0,.3,0,.5-.2.2,0,.3-.2.5-.2,0-.2.2-.2.2-.3-.7-.6-1.4-1.2-2.1-1.8,1-1.7,1.6-3.7,2.6-5.4.2,0,.3,0,.5,0v-1h-.3c.6-1.7,1.1-3.5,1.8-5.2h.3v-.2c-.2,0-.3-.2-.5-.2-.7-1.5-1.7-3-1.6-4.7-.2-.2-.2-.3-.3-.5-.4.2-.8.1-1.1,0-.8-.7-2.1-1.4-2.9-2.1-.2-1.4-.7-2.9-.7-4.4.3-.3.7-.8,1-1.1v-1.6c-.4,0-.8.4-1.3.3-4.1-.2-8.2-.3-12.2-.6,0-2-.4-4-.5-6-.7-1-1.6-2.1-2.4-2.9h2.3c0-1.1-.2-2.4-.2-3.6-.2-.2-.2-.3-.3-.3-.2-.6-.3-1.2-.5-1.8-.2-.2-.3-.3-.5-.5,0-.1-.2-.8-.2-1,.2,0,.2-.2.3-.2.2-.4.1-.8,0-1.3-.6-1.5-1.2-1.2-2.3-2.1-.9-.5-1.9-1.2-2.9-1.3-.9.1-1.9,0-2.8.3-.7-.3-1.3-.1-2.1-.2-.9-.6-1.6-1.5-2.3-2.3,0-.2-.2-.3-.2-.6-.5-.2-1.2-.1-1.8-.2-1.1-.3-1.9-1-3.1-1-.7-.4-1.3-1-2-1.5-.1-.4-.3-.6-.3-1.1-.2,0-.3-.2-.3-.2-.4,0-.7.3-1,.5-.8-.1-1.5-.6-2-1.1-1-.6-2.1-.6-3.1,0-1.2-.2-2.4-.2-3.6-.7-.2-.4-.5-.8-.7-1.3-.8-.3-1.5-.8-2.1-1.5-.5-.3-1-.3-1.6-.5,0-.4-.2-.8-.2-1.1-.2-.2-.3-.5-.3-.7h-.2c0,0-.1.1-.2.2,0,0-.2,0-.2.2-.3,0-.2-.8,0-1,0-.2-.2-.3-.2-.5-.3-.3-.6-.6-.8-1,0-.4,0-.8-.3-1-.3-.4-.2-.9,0-1.3.2-.2.2-.5.3-.7.2-1.6-1.1-2.8-.8-4.4.4-.5.5-1,1-1.5.2-.8,0-1.6,0-2.4.2-.5.1-.6,0-1.1-.2-.2-.3-.3-.5-.7-.6,0-.8.3-1.1.7-.2,0-.3,0-.7,0-.2-.2-.3-.2-.5-.3-2.6.2-5.1.5-7.5,1.6-1.5.8-2.4,2.5-4.1,2.4-.2.2-.3.2-.3.3-.2,0-.5.2-.7.2-.7.7-1.9,1.1-2.1,2.1-.2,0-.7,0-.8-.2-.7,0-1.1,0-1.8.2-.7.5-1.1,1.5-1.8,2.1-1.1.5-2.4,1.4-3.6.8-.2-1-5.6-1-6.7-1-2.2-.7-3.3.8-5.2.8-.5-.3-.6-.5-1.1-1-.2,0-.3.2-.5.2q-.2.2-.3.3c0-3,0-5.9,0-9,.2-.2.2-.3.3-.5.4-.6-.3-1.5.2-2.1,0-.2.2-.3.2-.3-.2,0-.3.2-.5.2,0,0-.2,0-.2.2-.2.3-.6.6-1,.7-.2.2-.3.3-.5.3-.6.3-1,1.1-1.6,1.3-.5.4-1,.7-1.5,1.1-2.3.5-4.7.3-7.2.3v-1.1c-.2-.2-.5-.3-.7-.5,0-.6-.1-1.1-.3-1.6-.2-.2-.3-.2-.5-.3-1.9-.7-4.1-.9-6.2-.8.7-.7,1.3-1.4,2-2.3.3-1-.6-1.5-1-2.3-.6-1-2.1-1-1.8-2.4-.2,0-.2-.2-.3-.2s-.2-.2-.3-.2c-.2-.2-.3-.2-.3-.3-.2-.2-.3-.2-.5-.3,0-.5-.3-.8-.5-1.1v-.3c-.2-.2-.4-.7-.6-.8-.2-.2-.6-.6-.7-.7v-.3c.2,0,.2-.2.3-.2.1-.2.2-.4.2-.7-.2,0-.2-.2-.3-.2s-.3,0-.3-.2c-.2-.3-.6-.7-.8-1-.2,0-.2-.2-.3-.2,0,0-.1-.1-.2-.2,0,0,.2-.2.3-.3v-1c.4,0,.7,0,1-.2h.8c0,0,.1-.1.2-.2v-.3c-.2-.4-.3-.7-.7-1,0-.6.2-1,.3-1.6,1-1,2.1-1.7,3.3-2.4.2,0,.5,0,.6,0,.4-.2.6-.4.8-.8,0-.9-.1-1.6-.5-2.4-.2-.4-.2-.6,0-1,.4-1,1.1-1.8,1.6-2.8,0-1.3.3-2.7.6-3.9.5-.2,1-.3,1.5-.3,2-1.6,3.9-3.4,6.3-4.2,1.6-.3,3.2-.2,4.7-1,.9,0,1.7-.2,2.4-.6.2-.2.3-.3.3-.5.2-.2.3-.3.5-.5.9-.2,2.1,0,3.1-.3.2.2.3.2.5.3.2.8,1.1.6,1.8.7.2.2.3.2.5.3.2,0,.3,0,.3,0,0,0,.1-.1.2-.2,1.7-7.4,2.9-15.3,4.3-22.8v-.3c-.2-.2-.2-.3-.3-.5v-.7c-.2,0-.2-.2-.3-.2,0,0-.2-.2-.3-.3,0-.4-.2-.5-.2-1,0,0-.1-.1-.2-.2,0-.3,0-.4.2-.7,0-.5,0-.9-.2-1.3,0,0-.1-.1-.2-.2-.2,0-.3-.2-.6-.2-.7-.6-1.7-1.2-2.3-2-.4-1.9,0-3.9-.2-5.9.6,0,1.6.2,2.1-.2.2,0,.2-.2.3-.2q.2,0,.3-.2c.5,0,.6-.2,1-.3q.2,0,.3-.2c.2,0,.3,0,.3-.2.3,0,.3.2.5.3,0,0,.2,0,.2.2h.3c0,0,.1.1.2.2.3,0,.6,0,1,0,0,0,.1-.5-.2-.5,0-.8,0-1.2-.3-2-.2-.2-.2-.3-.3-.3-.2-.2-.3-.2-.3-.3-.2,0-.3,0-.3-.2-.2.1-.4.2-.6.2,0,0-.1-.1-.2-.2-.6,0-1.1-.2-1.6.2-.3-.2-.8-.3-1,0,0-1.6,0-3.1,0-4.7.6,0,.9-.2,1.5-.2.4-.1.9-.3,1.3,0,3.1.4,6.4,0,9.6.2-.2-.2-.2-.3-.3-.3-.2-.2-.2-.3-.3-.5,0-.3.2-.7.3-1,0,0,.1-.1.2-.2.2,0,.3.2.5.2.2.2.3.5.3.7.2.3.4.6.6.8.5,0,.8,0,1.3-.2.6-.8,1.3-1.5,1.9-2.1.2-.2.3-.2.5-.3q.2,0,.3-.2c.2,0,.7,0,.8.2,2,3.2,1.9,2.6,1.8,6.5.5,0,1.1-.2,1.6-.3,1.5,1.1,2.7,2.7,4.4,3.4.8,0,1.5,0,2.3-.3.6-.5,1.3-.8,1.9-1.1.3,0,.4,0,.6.2.4.3.8.3,1,1-.2.2-.2.5-.3.7v.5c.2,0,.3,0,.7,0,.3-.6.6-.8.8-1.5.4-.3.9-.7,1.3-1.1.3-.4.5-1,1.1-1,.6-.3.9-.6,1.5-.8.2,0,.5,0,.6,0,.5-.4,1.1-.8,1.6-1.3.5-.3,1.2-.1,1.8-.1,1.4-.5,1.8-1.9,1.9-3.2,0,0,.2-.2.3-.3q.2,0,.3-.2c1.3.1,2.2-.9,3.4-1.1.2-.2.3-.4.5-.6,0-.6.4-.9,0-1.3-1.6-.2-3.2-.1-4.9-.5,0,0-.1-.1-.2-.2,0-.1.1-.5.2-.5.2-.5,0-1.1,0-1.6-1.2-1.7-1.5-3.6-1.3-5.7-.2-.2-.3-.3-.3-.5-1-.9-2.1-1.6-2.9-2.6,0-.2-.2-.3-.2-.7-.3-.3-.5-.7-.8-1,0-.2.2-.2.2-.3.2,0,.3,0,.5,0,.4.3.8.4.8,1,.9.5,2.1-.2,3.1.4.2,0,.2.2.3.2.2.2.5.6.5.8.2.2.3.2.3.3,1.3,0,2.6-.2,3.7.4.5-.3,1.3-.5,1.8-.1.5.6,1.2,1.2,1.8,1.6.3.5.8.8,1.5.7,1.1-.6.5-2.1,1-3.2.3-.2.5-.2.8-.2,2.4-1.9,1.6,1,7.8-1.5.2-.3.3-.5.5-.8.3,0,.5-.2.8-.2.2-.2.5-.3.6-.6.6,0,1.2.2,1.8-.1,0,0,.2,0,.2-.2.4-.3.6-.7.8-1.1.5-.3,1.1-.7,1.6-1,.6-.5.5-1.3.3-1.9-.2-.2-.2-.3-.3-.7-.2,0-.3-.2-.5-.2.7-.3,1.7.3,2.3-.1.2,0,.3,0,.5,0,.2-.2.5-.3.6-.5.3,0,.5.2.8.2q.2.2.3.3c.1.5.5.5.8.8,0,.8-.2,1.6-.1,2.4-.3.4-.6.8-1,1.1q0,.2,0,.3c.5.3.8.1,1.5.2.3.1.6.2,1,.2.3.3.7.5,1,.8,0,.5-.3,1,0,1.5.4.4.5,1.1,1,1.5.3,0,.1.6,0,.7,0,.2-.2.3-.2.5-.2.2-.3.3-.5.5v.3c-.5.2-.8.4-1.3.8.1.5.2,1.3.2,1.8-1.2,1.7-1.9,6.8.5,7.8,0,.9,0,1.9,0,2.8,0,0,0,.2.2.2.2,0,.3.2.5.3,0,.2,0,.6,0,.6.3,0,.7.2,1,.3.5.5.9.9,1.3,1.3.2,0,.2.2.3.2,0,.2.2.2.2.3.2.2.5.5.7.7.7.2,2,.2,2.3,1,.2.2.3.2.3.3.2,0,.4,0,.6,0,.2-.2.3-.2.5-.3.4-.3,1.1-.1,1.6-.1,0,0,.1-.1.2-.2,0-.3-.1-.7-.2-1,0,0,.1-.1.2-.2.2,0,.3,0,.6-.2,0-.2.3-.5.5-.6,0,0,.1,0,.2,0,0,0,.1.1.2.2.5,0,.7,0,1,.3.4,0,.5,0,.8,0,0,0,.1-.1.2-.2.2-.3,0-.5.3-.8.6,0,.8-.3,1.5-.3,1.7.1,1.9,0,2.7-1.4.2,0,.6-.2.6-.3.6,0,1.1-.3,1.6-.3.2.2.3.3.3.5,0,0,.2,0,.2.2.6,0,1.2.4,1.8.3.3,0,1.1-.4,1.3,0,1.1-.3,1.1-.3.5-1.5Z"/>
      <path class="cls-2" d="M82.2,202.2c1,0,2-.3,2.6-.8.3-.3.5-.7.6-1.1-.3-.6-.4-1.3-.3-1.9v-.4s1-.9,1-.9h.4s.1,0,.2,0c0,0,.2,0,.3,0,.2-.2.4-.3.5-.4,0,0,.1-.1.2-.2h0c0-.1-.1-.2-.3-.2l-.6-.3v-.3c-.1-.2-.2-.4-.2-.6v-.4l.2-.2v-.2l.3-.3c.2-.2.4-.4.6-.5.1-.1.3-.2.4-.3l.3-.3h.3c.3-.5.6-.8.8-1.2.4-.5.8-1.1,1.4-1.6h.1c0-.1.2-.2.2-.2h0c0-.5-.1-1.1.3-1.7h-.4s-.4-.2-.4-.2c0,0,0,0-.1,0-.2-.1-.5-.3-.7-.6h-.1c0-.1,0-.3,0-.3-.2-.5-.4-1-.6-1.4-.4-.9-.7-1.8-.9-2.8h0v-.2c0-1.3.8-2.3,1.4-3.1,0,0,0,0,0-.1-.5-.4-.9-1-1.2-1.7v-.2c-.1,0-.1-1.4-.1-1.4l.2-.2h0s0-1.1,0-1.1h.8c0-.1,0-.2.1-.4,0-.1,0-.2.1-.3l.2-.8h.6c0-.1.1-.2.2-.3l.4-.6h.3s0,0,0,0v-.7l.2-.3c.1-.2.3-.4.5-.5,0-.2-.2-.3-.3-.4l-.2-.2v-.3c-.2-.4-.3-.7-.3-1,0-.4-.1-.7-.3-1l-.2-.3v-.3c0-.2,0-.4.2-.6h0c0-.1.3-.4.3-.4.5-.6.5-1.8.4-3,0-.8-.1-1.6,0-2.3v-.2s.1-.2.1-.2c.3-.5.6-.9,1-1.2l.3-.3h.2v-.9h.5c-1.4-3-3-5.6-4.7-8.4-.4-.7-.9-1.5-1.3-2.3-.3,0-.5,0-.8,0-.4,0-.8,0-1.2,0-.3,0-.6.2-.9.4-.9.4-2,1-3.3.4h-.2c0,0-.2-.3-.2-.3l-1.7,1.7v-12s.3-.3.3-.3c0,0,0,0,0-.2-.4.2-.9.7-1.1,1l-.3.3h-.2s-.2.2-.2.2h-.3c-.3.1-.5.3-.9.7l-.2.2h-.3c-1.9.5-3.7.4-5.5.4-.6,0-1.2,0-1.8,0h-1.1s0-1.7,0-1.7c-.1,0-.2-.2-.3-.3l-.4-.4v-.5c0-.2,0-.5,0-.8,0,0,0,0-.1,0-1.7-.6-3.5-.8-5.4-.7h-1.7c0,.1.7-1.5.7-1.5.3-.8.8-1.3,1.3-1.8.1-.2.3-.3.4-.4-.1-.9-1.2-1.7-1.9-2.1l-.5-.3v-.5c-.1-.1-.2-.3-.3-.5h-.5l-.2-.5h0c-.2-.1-.3-.2-.5-.4l-.3-.3v-.5c0,0,0-.1,0-.2,0,0-.1-.2-.1-.2h0s-.4-.4-.4-.4v-.5c0,0,0,0,0,0,0,0,0,0,0,0h-.1l-1-1v-1.3c0-.1-.2-.2-.2-.3,0,0,0-.1-.1-.2h-.1c0-.1,0-.2,0-.2h-.1s-1.2-1.2-1.2-1.2l.8-.8v-1.6s1.2,0,1.2,0v-.5c0-.7.1-1.4.3-1.9v-.4c.1,0,.3-.2.3-.2,1.1-1.2,2.4-2,3.5-2.6l.3-.2h.7c0-.6-.1-1.1-.4-1.7-.3-.7-.3-1.2,0-1.9.3-.6.6-1.1.9-1.6.2-.3.4-.7.6-1,0-1.4.4-2.9.7-3.9v-.6c.1,0,.7-.2.7-.2.4-.1.9-.3,1.4-.3,1.7-1.4,3.4-2.8,5.5-3.8h0c1-.5,2.1-.6,3.1-.7.9,0,1.7-.2,2.4-.5h.2c0,0,.3,0,.3,0,.6,0,1.1,0,1.5-.3.1-.2.3-.4.5-.6l.3-.3h.2s.2-.2.2-.2h.3c.7-.3,1.3-.3,1.8-.3.5,0,.9,0,1.3-.1h.6c0-.1.4.2.4.2h0s0,0,0,0c0-.1-.1-.3-.2-.4,0,0,0-.2-.1-.3h-.1s0,0,0,0c-.3.1-.8.3-1.4.2h-.2s-.2-.1-.2-.1c0,0-.2-.1-.2-.2-.4-.2-.5-.3-.8-.4l-1.8-.2.9-1.5c.5-.8,1-1.6,1.5-2.3.9-1.5,1.9-3,2.8-4.4,0,0-.1,0-.2,0-.3,0-.5-.3-.7-.4,0,0,0,0,0,0h-.5l-.3-.5c0,0-.2-.1-.3-.2-.2,0-.4-.2-.6-.3h-.6s-.3-.4-.3-.4c-.2-.3-.6-.5-1-.7-.3-.1-.5-.3-.7-.5-.2,0-.5.2-.7.3v.3c-.1,0-.9.2-.9.2-.5,0-1,.2-1.6.1h-.8c0,0,0-.5,0-.5h-.2s-.4-.5-.4-.5c-.1-.2-.5-.3-.9-.4h0s-.6.6-.6.6c-.1.2-.3.4-.5.5h0s-.4.4-.4.4h-.5c0,0-.1,0-.1,0l-.2.3h-.3c-.5.2-.9.3-1.2.3-.3,0-.5,0-.7.1h-.2c0,0-.2,0-.2,0-.4,0-.7-.1-1-.2-.2,0-.3,0-.5-.1h-.3c0,0,0,0,0,0-.5.3-1.1.2-1.4.2,0,0-.1,0-.2,0l-1.2.2v-.6c0,0-.1,0-.2-.2,0,0-.1,0-.2,0h-.3l-.2-.2h0c-.2,0-.5-.2-.7-.4l-.3-.3v-.3c0-.1-.2-.4-.2-.7v-1.1s.2,0,.2,0c-.1-.3-.2-.6-.3-.9,0,0-.1,0-.2,0h-.3s-.3,0-.3,0c-1.3-.6-2.1-1-1.9-2.4,0-.2,0-.3,0-.5,0,0,0,0-.1,0-.3-.3-.4-.6-.4-.7h0s-.2-.2-.2-.2c0,0,0,0-.1,0-.3,0-.7,0-1.1-.3h-.2c0,0-.4-.5-.4-.5,0,0,0,0,0,0h-.3l-.5-.5c-.4,0-.9-.2-1.3-.3h-.2c0,0-.8-.9-.8-.9v-.3h0s-.4-.4-.4-.4v-.5c0,0,0,0,0-.1,0-.2-.2-.4-.2-.7-.2-.6-.7-1.1-1.3-1.7h0s0,0-.1,0h-.3l-.3-.3h0c-.2-.1-.5-.3-.7-.7-.4,0-.8,0-1.2-.3l-.4-.2v-.2c-.1,0-.2,0-.2,0,0,0-.1,0-.2-.1-.2.2-.5.4-.8.6h-.2c0,.1-.2.1-.2.1,0,0,0,0-.1,0,.1.1.3.3.6.5.2.1.3.2.5.4l.3.3v.4c.2.5,0,.9,0,1.1h0c0,.3,0,.6,0,.9,0,.3,0,.7,0,1.1v.5s-.8.8-.8.8h-.7c0,.4-.2.7-.3,1.1-.2.8-.4,1.7-.7,2.4v.2c0,0-.2.1-.2.1-2.2,2.6-4.7,5.6-8.2,7.9h-.1c0,0-.1.1-.1.1-.5.2-1,.4-1.5.5-1.6.6-3.2,1.1-4.7,1.6h-.2c-1.5.2-2.7,1-3.9,2.4,0,0,0,.1,0,.2v1.5s-.7.2-.7.2c-.1,0-.4.2-.7.2h-.1c0,.1,0,.4,0,.4l-.3.3c0,.3-.1.7-.4,1.1h0v1h-.2v.3h-.6c0,0,0,.2,0,.2-.1.4-.3.8-.5,1.2,0,0,0,.2,0,.3,0,0,0,.2,0,.2v.2c.1,0,.2.3.2.3,0,.4,0,.7-.1.9h0c0,0,.3,1.3.3,1.3h-1.2s0,0-.1,0c-.2.1-.4.2-.5.3,0,0-.1,0-.2,0h0c0,0,0,0,0,.1v.2c0,.2,0,.8-.4,1.2,0,0-.1,0-.2.1l-.2.2c0,.1-.2.3-.4.5h0c-.7.6-1.4.4-1.7.4,0,0-.1,0-.1,0-.6,0-.9,0-1.5-.2h-.3c0-.1-.2-.4-.2-.4-.1-.2-.3-.3-.4-.5-.5-.6-1.1-1.3-1.2-2.3h0c-.7.1-1.4,0-1.8-.3h0c-.3-.2-.9-.7-1.5-.9h0c-.4.4-.9.9-1.6,1.1h-.2c0,0-1.6,0-1.6,0v-.2h-.3v-1.7l.2-.3c0,0,.1-.2.2-.3l-.6-.6v-.5c0,0,0-.3,0-.3v-.2c0-.3,0-.5.2-.7v-.3l.3-.3c.5-.6,1.2-.5,1.6-.4h0c0,0,.2-.2.2-.2v-1.1c0,0,0-.2-.1-.2-.2.1-.4.3-.6.4-.5.4-1.1.8-1.7,1.2-.6,1-1.4,1.8-2.1,2.5-.3.3-.7.6-.9.9,0,.2-.1.4-.2.5,0,.6-.1,1.2-.3,2.1.1.2.3.5.5.7.3.5.7,1,1,1.6l.3.7-.5.5s0,0,0,.1c.1.2.2.3.4.5,1,1.3,2.4,3.2,1.1,5.3l-.2.2h-.3c-.3.3-.6.4-.8.4,1.5,1,3.1,1.9,4.7,2.7.7.4,1.4.8,2.2,1.2h.2c0,.1.1.3.1.3.4.6.9,1.1,1.4,1.7.8,1,1.7,1.9,2.3,3.1h0c0,.1,0,.3,0,.3.4,2,1.6,4,3,5.1,1,.7,1.5,1.8,2,2.7.3.6.6,1.2,1,1.6l.3.3v.4c0,1.4.6,2.6,1.4,4,.6,1.1,1.2,2.2,1.5,3.5.5.8.8,1.7,1.1,2.5.2.7.4,1.3.8,1.9h0c.2.4.5.8.8,1.2,1.2,1.9,2.6,4,2.7,6.4,2.3,1.5,3.6,3.4,3.6,5.6.1,0,.2.1.3.2l.3.3v.3s0,0,0,.1c.2.2.4.3.6.5.2.2.4.4.6.5l.2.2v.3c.4,1.2,1.5,2.5,2,3.2l.2.3v.3c0,.8.6,1.4,1.1,2.2.6.8,1.3,1.7,1.5,2.9v.2s0,.2,0,.2c0,.3-.2.7-.2,1,0,.4-.2.8-.3,1.1l-.2.8h0v1c1.1,1,1.8,2.4,2.4,3.6.6.5,1.2.9,2,1.3.2.1.4.3.7.4h.2c0,.1.2.4.2.4.5.7.8,1.3,1.4,1.6l.4.2.2.4c.5,1.2,1.7,1.8,3.1,2.4.6.3,1.3.6,1.8.9h0c0,0,0,.1,0,.1.6.6,1.4,1,2.3,1.4,1,.5,2.1,1,3,1.9,2.6,1,5.1,2.1,7.3,3.3.2,0,.4.1.6.2.9.2,2,.5,2.9,1.1h.2c0,.1.1.4.1.4.3.6,1,1,1.7,1.4.5.3,1.1.7,1.6,1.1.2.1.5.2.8.4,1,.4,2.2.9,2.9,2.1v.2c0,0,.1.2.1.2,0,.3.1.6.1.8,0,.3.1.6.2.9,2.1,1.4,4.2,3,6.4,4.9ZM82.4,204.4c-.3,0-.5,0-.8,0h-.3s-.2-.2-.2-.2c-2.3-2-4.5-3.7-6.7-5.1l-.3-.2v-.3c-.4-.6-.4-1.1-.5-1.6,0-.2,0-.3,0-.5-.4-.5-1.1-.8-1.8-1.1-.4-.2-.8-.3-1.1-.5h-.1c0,0-.1-.2-.1-.2-.3-.3-.8-.6-1.3-.9-.8-.5-1.7-1-2.3-2-.5-.3-1.2-.5-2-.7-.3,0-.5-.1-.8-.2h-.1s-.1,0-.1,0c-2.2-1.2-4.7-2.3-7.4-3.4h-.2c0,0-.2-.3-.2-.3-.7-.7-1.6-1.2-2.6-1.6-.9-.4-1.9-.9-2.7-1.7-.5-.3-1-.5-1.5-.8-1.5-.7-3.2-1.5-4-3.2-.9-.5-1.4-1.4-1.9-2.1-.1,0-.3-.2-.4-.3-.8-.5-1.6-1-2.4-1.7h-.2c0-.1,0-.4,0-.4-.5-1.2-1.3-2.6-2.3-3.3l-.4-.3v-1.6s0,0,0,0l-1.3-.7,1.1-1c.2-.2.4-.3.5-.4h0l.3-.3h0c0-.1,0-.3,0-.4,0-.3.1-.6.2-.8-.2-.6-.6-1.2-1-1.8-.6-.8-1.3-1.8-1.5-3-.8-1.1-1.6-2.2-2-3.4-.1,0-.2-.2-.3-.3-.3-.3-.7-.6-1-.9l-.3-.3h0c-.2-.2-.3-.3-.5-.5l-.4-.4v-.5c.2-1.8-.7-3.3-3-4.7l-.6-.3v-.7c.2-2-1-3.9-2.2-5.7-.3-.4-.5-.8-.8-1.3-.5-.8-.8-1.6-1-2.4-.2-.8-.5-1.5-.9-2.1v-.2c-.1,0-.2-.2-.2-.2-.2-1.1-.7-2.1-1.3-3.2-.8-1.4-1.5-2.9-1.6-4.6-.4-.6-.8-1.2-1.1-1.8-.4-.8-.8-1.6-1.4-2-1.8-1.4-3.2-3.8-3.8-6.2-.5-.9-1.2-1.7-1.9-2.6-.5-.5-1-1.1-1.4-1.7-.6-.3-1.3-.7-1.9-1-1.9-1-3.8-2-5.6-3.3h-.2c0-.1-.1-.3-.1-.3-.9-1.6-.2-2.6.6-3.2l.6-.4.6.4c0-.6-.4-1.2-1.2-2.3-.3-.4-.5-.7-.8-1.1l-.2-.3v-.3c0-.3,0-.5.2-.7v-.3h.1c-.1-.4-.3-.6-.5-.8-.3-.4-.6-.9-.8-1.3l-.2-.3v-.4c.3-1,.4-1.8.4-2.4v-.4s.3-.3.3-.3h0v-.3l.3-.3c.4-.4.8-.9,1.2-1.3.7-.7,1.5-1.4,1.9-2.2l.2-.3.3-.2c.5-.3,1.1-.7,1.7-1.2.6-.4,1.2-.9,1.9-1.3l.7-.4,1.2,1.2v.5l.2.2v.5c0,0,0,.1,0,.2v.2c0,0,0,1.1,0,1.1,0,.1,0,.2.1.3h0s.2.2.2.2v.5c0,.5-.4,1-.9,1.1-.1,0-.2.1-.3.2h0s.7,0,.7,0l-.4.6h.4c.8.4,1.6.9,2.3,1.3.1,0,.3,0,.3,0l.6-.4.6.5c.1.1.3.2.4.3.2.1.4.2.6.4l.5.4v.6c-.1.4.2.8.7,1.4,0,.1.2.2.3.3,0,0,.2,0,.4,0h0s0,0,0,0c.2,0,.3,0,.4,0,0,0,0,0,0-.1v-.9h.4c0,0,0-.1,0-.2,0,0,0,0,0-.1h0c0-.1,0-.3,0-.3.3-.5.8-.8,1.1-.9,0,0,.1,0,.2,0l.3-.3c-.2-.6,0-1,0-1.4,0-.1,0-.2,0-.3v-.2s.2-.2.2-.2c.2-.3.3-.6.4-.9,0-.3.2-.6.4-.9l.3-.6h.3v-.4l.3-.3h0c0,0,0-.6,0-.6l.2-.2c0-.3.1-.6.2-.9,0-.2.1-.4.1-.5v-1.2c-.1,0,1.1,0,1.1,0h.4l.2-.2c1.5-2,3.2-3,5.3-3.3,1.5-.5,3-1,4.6-1.6.5-.2.9-.3,1.4-.5,3.1-2,5.4-4.8,7.5-7.2.2-.6.4-1.3.6-2,.2-.8.4-1.6.7-2.4l.3-.7h.7c0-.3,0-.6,0-.9h0c0-.1,0-.2,0-.2h0c-.5-.4-1.2-.9-1.5-1.8v-.2c-.1,0-.2,0-.2,0-.2-.1-.4-.2-.6-.4l-.4-.3v-2.1s1.2.1,1.2.1c.4,0,.7.1,1,.2.3,0,.6.2.8.1.2-.1.4-.3.5-.5l.3-.4h1.8l.2.4s.1,0,.1,0c.2.1.4.3.6.4.2,0,.4,0,.6,0,0,0,.2,0,.3,0h1.1v.8c0,0,0,.1,0,.2,0,0,0,0,.1,0,0,0,.1,0,.2,0h.3l.5.5c.7.7,1.6,1.5,1.9,2.8h0c0,0,0,.2,0,.3,0,.2.2.4.2.7,0,.1.2.3.2.5.3,0,.6.1.9.2h.4s.6.6.6.6c0,0,0,0,0,0h.3l.6.6c0,0,.2,0,.3,0,.3,0,.7,0,1.1.3h.2c0,0,.1.2.1.2.2.2.4.4.6.8,0,.1.1.3.2.4.3.2.5.5.5.8.2.6.1,1.1,0,1.4,0,0,.2.1.4.2.4,0,1,0,1.4.4h.2c0,.1.1.3.1.3.3.6.6,1.3.8,1.9l.2.5v.2c0,.3,0,.5-.1.6h0c0,0,.1,0,.2,0h0s.4,0,.4,0l.3.3h0c0,.1.2.1.3.2,0,0,.2,0,.3,0l.2-.2h.1l.2-.2h.5c0,0,0,0,0,0,.2,0,.6,0,1,.3.1,0,.2,0,.3,0,.2,0,.4.1.6.1.3,0,.6-.1.9-.1.2,0,.4,0,.5,0,.3-.3.8-.5,1.2-.6l1-1v-.8l1.5.4c.6.2,1.5.4,2.1,1.1.2,0,.4.2.5.3.1,0,.3,0,.5,0,.7-.6,2-.9,2.5-.9.4,0,.7.2.9.5.1,0,.3.2.5.3.4.2.8.5,1.2.8h.5l.3.3c0,0,.2.1.4.2.3.1.7.3,1,.6h0s.3,0,.3,0l.4.4c.4.1.7.2.9.3l.7.2v.5c.1.2.2.4.2.6v.9c-1.2,1.7-2.3,3.5-3.4,5.2-.3.4-.5.8-.8,1.2,0,0,0,0,.1,0,0,0,0,0,.1,0,.4-.2,1.1-.5,1.9,0,.8.4,1,1.1,1.2,1.5,0,0,0,.1,0,.2.2.1.3.2.4.3.1.1.3.2.5.3l1.2.7-.7.7v1.3s-.8.8-.8.8h-1.2s-.3-.3-.3-.3c-.1,0-.4,0-.7,0h-.5s-.3-.3-.3-.3h0s-.6,0-.6,0v-.6c-.5,0-.9,0-1.2,0-.4,0-.7,0-1.1,0,0,0-.2.1-.3.2h0c0,.1-.4.4-.4.4-.9.8-2,.9-2.9.9-.9.4-1.9.5-2.8.6-.9,0-1.8.2-2.5.5-1.8.9-3.4,2.2-5.1,3.6l-.4.4h-.3c-.2,0-.5.1-.7.2-.2.9-.5,2-.5,3v.3s-.1.2-.1.2c-.3.5-.5,1-.8,1.4-.3.5-.6.9-.8,1.3h0s0,0,0,0c.5,1,.7,2,.6,3v.2s-.1.2-.1.2c-.3.6-.7.9-1.2,1.2h-.2c0,.1-.6.1-.6.1-.8.5-1.8,1.1-2.6,1.9,0,.2-.1.4-.2.6.2.2.3.5.4.6,0,0,0,.1.1.2v.2c.1,0,.1,1.1.1,1.1l-.8.8h-.8c0,0-.1,0-.2,0,.2.1.3.3.4.5,0,0,0,.1.1.2.2,0,.3.1.4.2h.5l.2.9c0,.3,0,.7-.1,1.1h.4l.2.8s0,0,0,.1c0,.2.1.4.2.6,0,0,0,0,0,0h0s.3.3.3.3v.2l.2.2v.2c.2.1.3.2.5.4,0,0,.1,0,.2,0h.8v1.2c0,.1.1.2.2.3,2.4,1.6,2.7,3.2,2.6,4.2v.3s-.2.2-.2.2c-.1.2-.3.4-.5.6,1.5,0,2.8.4,4.2.9h.2c0,0,.1.2.1.2.1,0,.3.2.5.4l.2.2.2.4c.1.4.3.8.3,1.2.1,0,.2.2.3.3l.3.3v.5c.3,0,.5,0,.8,0,1.6,0,3.2,0,4.8-.2.4-.4.8-.7,1.4-.9.1-.1.3-.2.5-.3.5-.5,1-1,1.6-1.3.2-.1.4-.3.7-.4v-.6s.9,0,.9,0c.1,0,.4-.2.7-.2h1.1v1.1c0,.3,0,.5-.2.8,0,0,0,.1,0,.2,0,0,0,.1,0,.2,0,.5.2,1.1-.2,1.8h0c0,.1,0,.2,0,.2,0,0,0,0,0,0v7.1h.2l.8.8c.3,0,.7,0,1.3-.4.4-.2.9-.4,1.4-.5h.1c.6,0,1.2,0,1.7,0,.4,0,.8,0,1.1,0h.6s.3.5.3.5c.5.9,1.1,1.8,1.6,2.8,1.7,2.9,3.5,5.9,5.1,9l.3.7-.5.5s0,0,0,.1c0,.1-.2.3-.3.4v.6l-.3.3v.6h-.9s0,0-.1,0c-.1.1-.2.2-.3.4,0,.5,0,1,0,1.6,0,1.4.2,3-.7,4.2.2.4.2.8.3,1.2,0,.2,0,.3,0,.5.6.6.9,1.4.9,2.3v.6s-.4.3-.4.3c-.1.1-.3.2-.4.2v.7l-.4.3s0,0-.1.1c-.2.2-.4.4-.7.6-.2.2-.4.5-.7.8h-.1c0,.1,0,.1,0,.1,0,.2-.1.3-.1.5v.4s-.3.3-.3.3c-.1.1-.3.2-.4.3,0,0,0,.1,0,.2h0c.3.6.6,1,1,1.3l.5.3v.3l.5.5-.5.7c-.2.3-.4.6-.7.9-.5.6-.9,1.1-.9,1.7.2.7.5,1.5.8,2.2.2.4.3.8.5,1.3h0s0,0,0,0c.9,0,1.7.4,2.4.8l.7.4v.6c-.1.6-.4,1-.9,1.2-.1.1-.3.2-.4.3,0,0,0,0-.1,0,0,.1,0,.2,0,.3,0,.2,0,.3,0,.5v.5c0,0-.2.4-.2.4-.4.4-.7.6-1,.7h0c-.3.3-.6.7-.9,1.2-.3.4-.5.7-.8,1.1-.1.3-.3.5-.4.6l-.3.3h-.3s0,0-.1,0c0,0-.1.1-.2.2.2.2.3.4.4.6v.2c.1,0,.1,1.5.1,1.5l-.3.3c-.3.3-.6.6-.8.7-.2.1-.3.3-.5.4l-.3.3h-.5s-.1,0-.2,0c0,0,0,.2,0,.2l.2.3v.3c0,1.2-.4,2.2-1.3,3-1,.9-2.4,1.4-3.9,1.4Z"/>
      <path class="cls-1" d="M85.9,96.7v.5c0,0-.1.1-.2.2h-.3c-.3-.3-1-.4-1.5-.3-.2-.2-.3-.3-.5-.3,0-.5-.4-.4-.6-.7-1.1.3-2,0-3.1.3-.2.2-.3.3-.5.3-.2.2-.3.3-.3.5-.7.6-1.6.6-2.4.6-1.6.7-3.8.4-5.5,1.1-2,1-3.8,2.5-5.5,3.9-.5,0-1,.2-1.5.3-.3,1.2-.7,2.6-.6,3.9-.5,1-1.2,1.8-1.6,2.8-.2.4-.2.6,0,1,.4.8.6,1.6.5,2.4-.2.4-.4.6-.8.8h-.6c-1.2.7-2.3,1.5-3.3,2.4-.2.5-.4,1.1-.3,1.6.4.3.5.6.6,1v.3c0,0-.1.1-.2.2h-.6c-.3.2-.6.2-1,.2,0,.3,0,.6,0,1,0,0-.2.2-.3.3,0,0,.1.1.2.2.2,0,.2.2.3.2.2.2.3.2.3.3.2.2.3.5.5.7.2,0,.3,0,.3.2.2,0,.2.2.3.2,0,.2,0,.6-.2.7-.2,0-.2.2-.3.2v.3c.2.2.3.3.3.3.2,0,.2.2.3.2.2.2.2.3.3.3,0,.3.2.5.2.8.2.2.2.3.3.5,0,.2.2.3.2.3v.3c.2.2.7.4.8.7.2,0,.2.2.3.2s.2.2.3.2v.5c.2.2.3.5.3.7,1.2.7,2.6,1.9,2.4,3.4-.6.8-1.4,1.4-1.8,2.3,2.1-.1,4.1.1,6,.8.2.2.3.2.5.3.2.5.4,1.1.3,1.6.2.2.5.3.6.5v1.1c2.4,0,4.8.2,7.2-.3.5-.5.9-.8,1.5-1,.2-.2.3-.3.5-.3.5-.5,1.1-1.1,1.6-1.3.2-.2.5-.3.7-.3q.2-.2.3-.3s.2,0,.2-.2c.2,0,.3-.2.5-.2,0,.2-.2.3-.2.3,0,.2-.2.3-.2.3-.1.5.3,1.3,0,1.8-.2.2-.2.3-.3.5,0,3,0,6,0,9q.2-.2.3-.3c.2,0,.3-.2.5-.2.2.2.3.3.7.7,1.3.6,2.4-.5,3.6-.8.9,0,1.8.2,2.8.2,2.3,3.9,4.7,7.7,6.7,11.7-.2.2-.4.7-.6.8v.7c-.2.2-.3.2-.3.3-.2,0-.3.2-.5.2-.3.3-.6.6-.8,1-.3,1.8.7,4.4-.7,5.9,0,.2-.2.2-.2.3.5.7.4,1.5.7,2.3.5.4.8,1,.8,1.8-.2.2-.6.2-.8.5v.8c-.2.2-.5.6-.8.6-.2.3-.4.6-.7.8-.2,0-.2.2-.3.2-.1.4-.3.6-.3,1.1-.2.2-.5.3-.6.3,0,.2,0,.5-.2.7v.6c.3.6.8,1.3,1.5,1.8q0,.2.2.3c-.6,1-1.8,1.9-1.8,3.3.3,1.4,1,2.6,1.5,4.1.2.2.4.3.7.5.8-.1,1.5.3,2.1.6,0,.1,0,.3-.2.3-.3.2-.6.4-1,.6-.3.5,0,1.1,0,1.6-.2.3-.4.3-.8.5-.9.8-1.3,1.7-2.1,2.6,0,.2-.2.3-.2.3-.2,0-.3.2-.5.2-.3.3-.7.5-1,.8,0,.2-.2.3-.2.3,0,.2.2.2.2.3.4.2.6.4.8.8v.8c-.4.5-.8.6-1.3,1.1-.3,0-.6.2-1,.2q-.2.2-.3.3c0,.5,0,1.2.3,1.5.1,2.4-2.6,3.5-4.7,3.3-2.2-1.9-4.4-3.6-6.8-5.2-.3-.7-.3-1.3-.5-2.1-.7-1.2-2.3-1.5-3.4-2.1-1-1.1-2.8-1.5-3.6-2.9-.9-.7-2.1-.8-3.3-1.1-2.4-1.3-4.9-2.5-7.5-3.4-1.6-1.6-3.8-2-5.4-3.4-1.9-1.2-4.5-1.6-5.4-3.9-.9-.4-1.4-1.3-2-2.1-1.1-.7-2-1.1-2.9-2-.6-1.3-1.4-2.9-2.6-3.7v-1.5c-.2-.2-.3-.5-.7-.7.2-.2.3-.2.5-.3.2,0,.3-.2.5-.2.2-.7.3-1.5.5-2.1-.3-2-2.4-3.2-2.6-5.2-.8-1-1.8-2.3-2.1-3.6-.5-.4-1-.8-1.5-1.3,0-.2-.2-.3-.2-.5-.2-.2-.5-.2-.6-.3.3-2.7-1.4-4.4-3.6-5.7.2-2.9-1.9-5.4-3.3-7.7-.9-1.4-.9-3.1-2-4.6-.5-2.8-3-5-2.9-8-1.1-1.2-1.5-3.2-2.9-4.2-1.7-1.3-3-3.6-3.4-5.7-.9-1.8-2.5-3.1-3.6-4.7-2.6-1.4-5.2-2.6-7.6-4.4-.4-.7-.4-1.3.3-1.8.5.3.8.4,1.3.2,1.2-1.8-.9-3.6-1.8-5,0-.2.2-.3.2-.5.2-.2.2-.3.3-.5-.4-.9-1.2-1.7-1.6-2.6.2-.8.3-1.8.3-2.6.2-.2.3-.5.3-.7,1-1.2,2.5-2.3,3.3-3.8,1.2-.6,2.3-1.8,3.6-2.4,0,0,.2.2.3.3v.5c0,0,.1.1.2.2,0,.4,0,.4.2.6v1.1c.2.2.2.5.3.7,0,0,0,.2-.2.2s-.2.2-.3.2c-.2,0-.2.2-.3.2-.2.2-.2.3-.3.5-.4.1-.9-.4-1.3,0,0,.2-.2.3-.2.5.1.2.2.4.2.7q.2.2.3.3h.8c-.3.5-.7,1-1,1.5v.3c.2,0,.3.2.3.2h.3c.6-.2,1-.7,1.5-1.1.2,0,.3,0,.5-.2.7.2,1.5.8,2.1,1.1.4.2,1.1.3,1.5,0,.3.2.6.4,1,.6-.1,1.2.9,1.9,1.5,2.8.4.2.6.2,1.1.2.4,0,.8.3,1.1,0,.2-.2.2-.3.3-.5,0-.2.2-.2.2-.3.4,0,.3-.2.3-.5,0-.3,0-.5.2-.8.3-.5.9-.5,1.1-.8.2,0,.3-.2.5-.2,0-.4.2-.6.2-1-.3-.5-.1-.8,0-1.5.4-.6.5-1.3.8-2,.2,0,.2-.2.3-.2,0-.2,0-.3.2-.3,0-.2.2-.3.2-.5.4-.3.3-.6.3-1,0,0,.1-.1.2-.2-.1-.6.4-1.4.3-2h.5c.1.2.2.4.2.7l.2.2c.2,0,.3-.1.5-.2v-.3c0,0-.1-.1-.2-.2v-.3c.2-.2.3-.3.3-.5,1.2-1.6,2.7-2.7,4.7-2.9,2-.6,4.1-1.4,6.2-2.1,3.2-2.1,5.5-4.8,8-7.7.5-1.4.8-3.2,1.3-4.6,0,0,.2,0,.2.2,0,0,.1.1.2.2h.6c0,0,.1-.1.2-.2,0-.7-.2-1.4-.2-2.1,0-.3.2-.5.2-.8-.7-.5-1.3-.8-1.6-1.6,0-.2-.2-.3-.2-.5-.3-.2-.6-.4-1-.6v-.3c.8,0,1.4.5,2.3.3.4-.2.7-.5,1-.8h.6c.1.3.9.5,1,.8.5.2,1,.2,1.5.2,0,.2.2.2.2.3,0,.5.4.4.6.7.2,0,.3.2.5.2.8.7,1.5,1.4,1.8,2.4,0,.4.4.7.3,1.1.2.2.3.3.3.7q.2.2.3.3c.5.2,1,.3,1.5.3.2.2.3.3.5.5.2,0,.3.2.5.2.2.2.3.3.5.5.5.2,1,.1,1.5.3.2.2.3.3.3.5.2.2.2.5.3.7.2.2.3.2.3.3.5,1.6-.8,1.5,1.3,2.4.2,0,.7,0,1,.2.4.7.6,1.4.8,2.1,0,.2-.2.3-.2.5s0,.3-.2.3c0,.2.2.3.2.5.2.2.5.2.7.3.2,0,.3.2.7.2.2.2.2.3.3.3s.3,0,.3.2c.3,0,1,.1,1.3-.2.2,0,.3-.2.3-.2.3,0,.4,0,.6.2.5.1,1,.3,1.5.3.7-.2,1.2-.1,1.9-.3.2-.3.7-.6,1.1-.5.2-.2.3-.2.3-.3.3-.3.6-.6,1-1,.2,0,.3,0,.3-.2.6.2,1.5.4,1.9,1,.2,0,.6.3.7.5.5,0,1,0,1.5-.2.1-.3,2-1.1,2.1-.6.6.5,1.5.8,2.1,1.5h.5c.4.4,1.2.5,1.5,1,.2,0,.3.2.5.2.2.2.3.3.3.3.2,0,.8.2,1.1.3,0,.2.2.2.2.3v.3c-1.5,2.5-3.2,5-4.7,7.5.6,0,.9.3,1.5.7.7.1,1.2-.6,1.8-.2.7.2.7,1,1,1.5.5.3.6.5,1.1.8-.3.3-.2.7,0,.8Z"/>
      <path class="cls-2" d="M98.3,222.3l.3.5c.4.6.7,1.1,1,1.6.2.4.5.8.8,1.2l.2.3v.3c0,.3,0,.5,0,.8,0,.8,0,1.7.3,2.2l.2.3v.4c0,1.1.2,1.4.2,1.4l.4.2v.4c.4.6.5,1.2.5,1.8,0,.6.1,1.1.4,1.5v.2c.1,0,.1.2.1.2,0,.6,0,1.1,0,1.6,0,.2,0,.4,0,.7,1.7,0,3-.3,3.4-.5h0c0,0,.1-.2.1-.2.1-.1.2-.2.3-.4,0-.1.2-.2.3-.3,0-.1,0-.2,0-.3h0v-.5l.3-.3c.4-.5,1-.8,1.4-1,0,0,.2,0,.3-.1,0-.3.2-.6.2-.7h0c.4-1.2,1.3-1.4,1.8-1.5.2,0,.3,0,.4-.1h.2c0-.1.3-.2.3-.2.3,0,.4,0,.7-.9.1-.4.3-.9.6-1.4l.3-.4h.4c.5-.2,1,0,1.4,0h.4c0,.1.2.3.2.3.3.3.6.6,1,.8.4.3.8.6,1.1.9.3,0,.7,0,1,0,2.2-.1,4.4-.3,6.6.5h.3c0,.1.1.1.1.1h.2c1.4.7,1.9,2,2.2,3.1h0c.2-.4.4-.9.6-1.3.4-.8.8-1.7,1.4-2.4l.2-.3h.3c0-.1,0-.1.1-.1.2,0,.6-.2,1.1-.2,1.2,0,2.4,0,3.7,0,1.2,0,2.4,0,3.5,0h.5s.3.5.3.5c0,0,.1.2.2.3,0,0,0-.2,0-.2,1.2-3.5,2.3-7.1,2-10.7v-.4s.2-.3.2-.3c1.7-2.1,2.8-4.3,3.6-6.8l.2-.6h.7c1.5-.4,3-.7,4.5-1,5-1.1,10.1-2.1,15.5-1.7h.3s.2.2.2.2c1.1.7,2.2,1.3,3.2,2,.5.3,1.1.6,1.6.9.4-.8.8-1.7,1.2-2.5.3-.7.7-1.4,1-2.2h0l.5-1.4c.2-.6.4-1.3.6-1.9.3-1,.6-2,1-2.9-.4-.5-.6-1-.7-1.5,0-.1,0-.2-.1-.3v-.2c0-.2-.2-.6-.4-.9-.2-.4-.4-1-.5-1.5-.3,0-.6-.1-.7-.2h-.2c0,0-.1-.2-.1-.2-.4-.3-.7-.5-1.1-.8-.6-.4-1.3-.9-1.9-1.4l-.3-.3v-.4c-.1-.5-.2-1-.3-1.6-.2-.9-.4-1.9-.4-2.9v-.4s.3-.3.3-.3c.1-.1.3-.3.4-.5,0,0,0,0,0-.1,0,0,0,0-.1,0-1.4,0-2.8-.1-4.2-.2-2.6-.2-5.3-.3-7.9-.3h-1.1s0-1.1,0-1.1c0-1.1-.1-2.1-.2-3.2,0-.8-.2-1.6-.2-2.4-.3-.4-.6-.7-.9-1.1-.3-.4-.7-.7-1-1.2h0c0,0-.1-.1-.2-.2l-1.8-1.8h3.8c0-.2,0-.4,0-.6,0-.5,0-.9,0-1.4-.4-.5-.5-1.1-.6-1.6,0-.1,0-.2,0-.3-.8-.8-.9-1.6-.8-2.2v-.9h.4c0-.2-.2-.4-.3-.7-.5-.2-.9-.5-1.3-.8l-.2-.2c-1.5-1-2.5-1.3-4.1-1-.7.4-1.3.2-1.7,0h-1.8s-.3-.2-.3-.2c-.9-.6-1.6-1.5-2.3-2.3l-.4-.5h0c-.1-.1-.3-.1-.4-.1-.2,0-.3,0-.5,0h-.1s-.1,0-.1,0c-.5-.1-.9-.3-1.3-.5-.5-.2-1.1-.5-1.5-.5h-.4s-.3-.2-.3-.2c-.4-.3-.8-.5-1.1-.8-.3-.2-.6-.5-.9-.7h-.1c-.2-.2-.3-.4-.4-.6h-.1c0,.1-.4.1-.4.1-.3,0-.5,0-.7-.1h0s-.3,0-.3,0l-.3-.3c-.1-.1-.3-.2-.5-.4-.3-.2-.6-.4-.9-.7-.5-.3-.8-.3-1.3,0-.5.2-1.3.4-2.3.2-.2,0-.4,0-.5,0-1.3-.1-2.8-.3-3.7-2-.8-.4-1.4-.9-1.8-1.4-.2,0-.5-.1-.7-.2-.2,0-.5-.1-.7-.2l-1-.4.3-.8c0,0,0-.1,0-.2h-.9v-.2h-.2v-1.8s0,0,0,0c-.3-.3-.5-.6-.7-.9l-.2-.3v-.5c0,0,0-.2-.1-.3h0c-.4-.7-.5-1.4-.1-2.4v-.2c0,0,.1,0,.1,0,0,0,0-.2.1-.3,0-.4-.2-.9-.4-1.4-.3-.8-.6-1.7-.4-2.8v-.3s.2-.2.2-.2c.8-1,1-1.5.8-2.2v-.2c0,0,0-.2,0-.2,0-.3,0-.6,0-.8h0c0,0-.2.1-.2.1h-1.5s-.3-.3-.3-.3h0c-.5,0-1,.1-1.4.2-1.3.1-2.5.3-3.6.7h0s-.1,0-.1,0c-.9.2-1.8.8-2.7,1.5-.7.5-1.4,1.1-2.3,1.5h-.2c0,.1-.4.1-.4.1h0s0,0,0,0l-.2.2h-.4c-.7.1-1.2.5-1.8,1.2-.1.3-.3.7-.5.9l-.3.3h-1.3l-.2-.2c-.2,0-.6,0-1,0-.2.2-.4.4-.6.7-.5.6-1,1.4-2,1.8h-.1c-.2,0-.4.2-.7.3-.7.4-1.7.9-2.9.2h-.1c0,0-.1-.2-.1-.2-.1-.1-.2-.2-.3-.4-1-.2-2-.4-3.1-.5,1.8,3,3.7,6.3,5.7,10.1l.4.7-.5.5c0,.1-.2.3-.4.5h0c0,.5-.1,1-.9,1.5l-.3.2h-.1s0,0-.1,0c-.1.1-.2.2-.3.4,0,.5,0,1.1,0,1.6,0,1.3.1,2.6-.4,4l-.2.6v.2c0,0,.1.2.1.2,0,.7.4,1.4.8,2l.2.3v.3s0,0,0,.1c0,.2.2.5.1.9v.4c0,0-.4.3-.4.3-.1.1-.3.2-.4.2v.7l-.9.9h-.2c0,0,0,.2-.1.2-.2.2-.4.6-.7.8h0c0,.2-.1.4-.2.7l-.2.8h-.6c0,0,0,.2,0,.3,0,.2.3.4.5.6.4.3.9.8,1.1,1.5l.2.7-.5.5c-.2.2-.3.4-.5.6,0,.1-.1.2-.2.3-.2.6-.4,1-.7,1.4.1.9.5,1.8.9,2.7.1.3.2.5.3.8h0s0,0,0,0c.6,0,1.7.2,2.5.9l.4.3v1.7h-.7c-.2.1-.3.2-.5.3,0,0,0,0-.1,0,0,.1,0,.2,0,.3,0,.2,0,.3,0,.5v.7c.1,0-.5.4-.5.4-.6.4-1.1.7-1.4,1.2-.3.5-.6.9-.8,1.2-.2.2-.3.4-.5.6l-.3.6h-.5s0,0,0,0c0,0-.2.1-.2.2.2.2.3.4.4.6v.2c.1,0,.1.8.1.8,0,.2.1.4.2.6.7.8.9,1.4,1.1,2,0,.3.1.4,1.1.7l.5.2v.6c.3.5,0,.9,0,1.1h0c0,.3.2.6.2.9v.4c.5,1.6,1,3.2,1,4.9.3.3.6.6,1.1.9.5.3.9.7,1.3,1.1.3.2.7.5,1,.7,0,0,.1.1.2.2l.4.3v1.1l-.3.3c-.4.5-.8,1-1.2,1.5.7.8,1.4,2,.3,3.3l-.3.4h-.4c0,.2,0,.3.1.4h0s.7.7.7.7l-.7.7c.1.1.3.2.5.3.2.1.5.3.7.4.1,0,.3.1.4.3.3.3.4.7.4.9v.4l-.3.3s0,0-.1.2h0v.3h.5ZM102.1,239.9h-.5l-.3-.4s0,0-.1,0c-.1,0-.2-.1-.4-.3l-.3-.3v-.4c0-.6,0-1.1,0-1.6,0-.3,0-.7,0-1-.3-.7-.4-1.4-.5-2,0-.3,0-.7-.2-1-.5-.4-1-1.3-1-2.8-.5-1-.5-2.2-.5-3.1,0-.1,0-.3,0-.4-.2-.4-.4-.7-.6-1-.2-.4-.5-.7-.7-1.1,0,0,0,0-.1,0h0s-.4,0-.4,0l-.8-.8v-2.2c-.7-.4-1.7-1.1-1.6-2.4v-.4s.2-.2.2-.2h0v-.9c-.1-.2-.2-.6-.1-1v-.3c0,0,.8-.7.8-.7h.4s0,0,.1,0c-.2-.2-.5-.5-.7-.7l-.4-.3v-1s.3-.5.3-.5c.3-.5.7-.9,1-1.4h0s-.3-.1-.3-.1l-.2-.3c-.2-.3-.6-.6-1.1-.9-.6-.5-1.3-1-1.8-1.8v-.3c-.1,0-.1-.3-.1-.3,0-1.6-.4-3.1-.8-4.7v-.5c-.2-.2-.2-.4-.3-.7,0-.1,0-.2-.1-.3v-.2s0-.2,0-.2c0,0,0-.1,0-.2-1-.5-1.3-1-1.5-1.8,0-.4-.2-.7-.8-1.2l-.3-.3v-.5c0,0,0-.1,0-.2l-.2-.2v-.9c0,0-.1-.1-.3-.2h-.2c0-.1-.1-.3-.1-.3-.3-.5-.3-.9-.3-1.2.1-.7.7-1.1,1.1-1.3,0,0,.2-.2.3-.2l.3-.4h.3c.2-.3.4-.5.5-.6.2-.2.4-.4.5-.7h0c.4-.8.9-1.3,1.5-1.7,0-.5-.1-1.1.3-1.7h-.4l-.3-.2s0,0-.1,0c-.2-.1-.5-.3-.7-.6h0c0-.1,0-.3,0-.3-.1-.3-.3-.6-.4-.9-.5-1.1-1.1-2.4-1.1-3.8v-.4s.2-.3.2-.3c.3-.4.5-.8.7-1.3v-.2s.2-.2.2-.2c0-.1.2-.2.2-.4,0-.1.2-.3.3-.4,0,0,0,0-.1-.1-.4-.4-.9-.9-1.2-1.6v-.2c-.1-.5-.1-1.5.5-2.2.1-.2.3-.3.5-.4,0-.3.1-.5.2-.6l.2-.7h.5c0,0,0-.2.1-.2.2-.3.4-.6.8-.9v-.6l.2-.3c.1-.2.3-.3.4-.5-.4-.7-.8-1.5-.9-2.3-.3-.5-.6-1.3,0-2.1h0c0-.2.1-.3.2-.4.3-.8.2-1.8.2-2.8,0-.7,0-1.4,0-2.2v-.3s.2-.2.2-.2c.3-.5.6-.9,1-1.2l.3-.3h.1s0,0,0-.1v-.4s.3-.3.3-.3c0,0,0-.1.1-.2-2.2-4.2-4.3-7.8-6.3-11l-1-1.6h1.9c2.2-.2,4.2,0,6.2.6l.8.2v.3c.1,0,.3-.1.4-.2.3-.2.7-.3,1.1-.5.4-.2.6-.5,1-1,.3-.4.6-.8,1-1.2l.2-.2h.2c0,0,1.3-.5,2.3-.2l.2-.2c.6-.6,1.4-1.4,2.6-1.8v-.5h1.5c.6-.3,1.1-.7,1.7-1.2,1-.8,2.1-1.6,3.5-1.9,1.3-.5,2.7-.6,4.1-.8.6,0,1.2-.1,1.7-.2h.5c0,0,.4.3.4.3h0s.4-.4.4-.4h.2l.2-.2h1.2s.3.3.3.3c1.1,1,1,1.9.9,2.7,0,.1,0,.3,0,.4.5,1.7-.4,3.1-1,3.8,0,.4.2.9.4,1.5.3.8.6,1.6.5,2.6v.4s-.2.2-.2.2c0,.1-.1.3-.2.5,0,0,0,.1,0,.2h0s.5,0,.5,0v1.4c.1.2.3.3.5.5l.2.2v.3c0,0,.1,0,.1.1,0,.1.1.3.1.5l.2.2c.4.4.6.9.6,1.4,0,0,0,0,0,.1.4,0,.9.2,1.2.4h.1c0,0,.1.2.1.2.6.6,1,1,1.6,1.2l.4.2.2.4c.3.9.7.9,2.1,1.1.2,0,.4,0,.7,0h.2c.4.1.7,0,1.1,0,.7-.2,1.8-.6,3.2.4h.1c0,0,.1.2.1.2.1.1.2.2.5.4.2.1.4.2.6.4h0c0,0,.2-.2.2-.2,1.4-.5,1.9,0,2.1.5h0c0,.1,0,.2,0,.2,0,0,0,.1,0,.2,0,0,0,.2,0,.3.3.2.6.4.8.6.2.2.4.3.6.5.8,0,1.5.4,2.1.6.3.1.6.3.8.3h0c0,0,.2,0,.3,0,.5,0,1.2,0,1.8.3l.6.3v.5c0,0,0,.2.1.3.5.6,1,1.2,1.6,1.7h1.5s.3,0,.3,0c0,0,.1,0,.2,0h0c0,0,.3-.1.3-.1,2.2-.4,3.8,0,5.8,1.3l.3.2c.4.3.8.5,1.2.7h.3c0,.1.2.3.2.3.3.5,1.4,1.9.8,3.4v.3c0,0,0,0,0,0l.2.2v.3c.2.3.3.6.4.9,0,.2.1.6.2.7l.5.3v.6c0,.5,0,1.1,0,1.7,0,.6,0,1.3,0,1.9v1.1s-1,0-1,0c.3.4.7.8,1,1.3l.2.3v.3c0,.8.1,1.7.2,2.5,0,.8.2,1.6.2,2.4,2.3,0,4.7.1,7,.3,1.4,0,2.8.2,4.2.2h0c0,0,.3,0,.4-.1l.3-.2h.5s1.1,0,1.1,0v3.1l-.3.3c-.1.1-.3.3-.4.5,0,0-.2.2-.2.3,0,.7.2,1.4.3,2.1,0,.4.2.9.3,1.3.4.3.9.7,1.4,1,.3.2.7.4,1,.7.1,0,.1,0,.2,0l.7-.4.6.6c.2.2.3.4.4.5h0s.3.3.3.3v.5c-.1.3,0,.8.3,1.2.2.4.4.8.4,1.3,0,.1,0,.2.1.3.2.7.3,1,.7,1.1l.6.3v1.9h-.7c-.3.8-.6,1.7-.9,2.5,0,.3-.2.6-.3.8v2.8h-.9c-.3.7-.7,1.4-1,2.1-.3.6-.6,1.3-.9,1.9.2.2.4.4.6.5.3.2.5.5.8.7l.4.3v.5c0,.2,0,.4-.2.6v.5l-.7.2c-.2,0-.3,0-.4.1,0,0-.1,0-.2,0h0c.1.5.1,1-.1,1.4-.2.3-.6.5-1,.5h-1.2s.2-1.2.2-1.2c0-.1,0-.3,0-.4v-.2c0,0,0-.2,0-.2,0-.2,0-.4.1-.6,0-.2,0-.3,0-.5-1-.6-2-1.2-3-1.8-1-.6-2.1-1.2-3.1-1.9-5-.3-9.7.7-14.6,1.7-1.3.3-2.6.5-3.9.8-.8,2.4-1.9,4.5-3.5,6.6.2,3.9-1,7.6-2.2,11.1-.2.7-.5,1.4-.7,2.2l-2.1-.3c0,.3.2.5.3.6.2.2.4.3.6.3h0-.4s-.3-.3-.3-.3c-.1-.1-.2-.2-.4-.3h-.3c0-.1-.2-.4-.2-.4-.1-.2-.2-.5-.4-.7h0c-.9,0-1.8,0-2.8,0-1.3,0-2.7,0-4,0h0s0,0,0,0c-.4.5-.6,1.1-.9,1.7-.2.5-.5,1-.8,1.5h0c-.2.3-.3.7-.4,1.1-.1.5-.2,1-.6,1.5l-.8,1.3-.9-1.2c-.6-.8-.9-1.8-1.1-2.7-.2-1.1-.4-1.8-.9-2.1-.2,0-.5,0-.7-.3-1.7-.5-3.6-.4-5.6-.3-.5,0-1,0-1.5,0h-.5s-.3-.4-.3-.4c-.3-.4-.8-.7-1.2-1.1-.3-.2-.6-.4-.8-.7,0,0,0,.1,0,.2-.3.8-.7,2.1-2.3,2.4-.3.2-.7.2-.9.3,0,0-.2,0-.2,0,0,.4-.2.8-.3,1.1v.3c-.1,0-.4.2-.4.2-.3.2-.6.3-.8.5-.2.1-.4.2-.6.3,0,0,0,.2,0,.2h0v.5l-.3.3c-.1.1-.2.2-.3.4-.1.2-.2.3-.4.5-.3.5-1.3,1.4-5.6,1.4Z"/>
      <path class="cls-1" d="M173.5,217.2c.1-.9.3-1.9-.2-2.8-2.2-1.5-4.5-2.6-6.7-4-6.8-.5-13.1,1.4-19.7,2.6-.8,2.6-2,5-3.8,7.2.4,4.6-1.5,9-2.8,13.3,0,0,0-.2-.2-.2-.2-.2-.3-.3-.6-.5-.2-.4-.4-1-.6-1.3-2.4-.1-5,.2-7.4,0-.3,0-.5,0-.8.2-.9,1.1-1.3,2.4-2,3.6-.6.8-.5,1.8-1,2.6-1.2-1.5-.6-4.3-2.6-5.2-.2,0-.3,0-.5-.2-2.4-.8-5.1-.4-7.6-.3-.7-.8-1.7-1.4-2.4-2.1-.2,0-.7-.2-1-.2-.7,1-.5,2.6-2.1,2.8-.7.4-1.5.1-1.8,1,0,.2-.2.8-.3,1.1-.6.4-1.3.6-1.8,1.1,0,.3-.2.5-.2.8-.3.3-.5.7-.8,1-.5.9-3.7,1-4.7,1-.2-.2-.4-.3-.7-.5,0-.9.2-1.8.2-2.8-.6-1.1-.4-2.3-.8-3.4-.8-.4-.9-1.7-.8-2.4-.7-1-.5-2.5-.5-3.6-.7-1.1-1.1-1.8-1.8-2.8-.3,0-.5-.2-.8-.2,0,0-.1-.1-.2-.2v-1.3c.2-.2.3-.5.5-.7,0,0,0-.2-.2-.2-.7-.6-2-.9-2-1.9.2-.2.3-.3.5-.5-.2-.2-.2-.5-.3-.6v-.7c0-.2-.2-.3-.2-.5,0,0,.1-.1.2-.2.3,0,.6-.2,1-.2.8-1,0-1.8-.8-2.4v-.2c.6-.8,1.1-1.6,1.8-2.3v-.2c-.3-.3-.8-.7-1.1-.8-.7-1-2.1-1.5-2.8-2.6,0-1.9-.5-3.6-1-5.4,0-.4-.2-.8-.3-1.1,0-.2.2-.2.2-.3,0-.2.2-.3.2-.5-2.8-.9-1-1.4-2.9-3.3,0-.3,0-.7-.2-.8v-.8c-.2-.4-.4-.6-.8-.8-.5-.7.6-1,1-1.5.2,0,.3-.2.5-.2.4-.7.9-1,1.3-1.8.5-.8,1-1.2,1.8-1.6,0-.6-.3-1.1,0-1.6.3-.2.6-.4,1-.6,0,0,0-.2.2-.2v-.2c-.6-.5-1.4-.6-2.1-.6-.2-.2-.5-.3-.7-.5-.5-1.3-1.4-2.9-1.5-4.4.3-.5.7-1,.8-1.6.3-.5.5-.9,1-1.3-.3-.8-1.3-1.2-1.6-2.1,0-.5,0-1.6.8-1.6,0-.2.2-.8.3-1.1.2,0,.2-.2.3-.2.4-.3.6-1,1.1-1.1q.2-.2.3-.3v-.8c.2-.3.6-.3.8-.5,0-.3-.1-.4-.2-.8-.5-.7-.9-1.5-1-2.4-.3-.4-.5-.7-.2-1.1.2-.2.2-.3.3-.3.7-1.8.2-3.6.3-5.5.2-.4.5-.7.8-1,.2,0,.3-.2.5-.2.5-.3.3-.4.3-1,.2-.2.2-.3.3-.3.2-.2.2-.3.3-.5-2.1-4-4.3-7.9-6.7-11.7,2,0,4,.1,5.9.7,0,.2,0,.3.2.5,1,.6,1.8-.4,2.8-.6,1.2-.4,1.5-1.6,2.4-2.4.5-.2,1.6-.3,2.1,0h.5c.2-.2.3-.5.3-.6.8-.8,1.5-1.5,2.6-1.6.2-.2.3-.2.3-.3.2,0,.5,0,.7,0,1.9-.9,3.2-2.7,5.2-3.1,1.8-.7,3.8-.7,5.7-1,.2.2.3.2.5.3.2,0,.3,0,.7,0,.2-.2.3-.3.5-.5.2,0,.3-.2.3-.2h.3c.9.8.5,1.4.5,2.4.5,1.3-.2,2.3-1,3.3-.3,1.5,1,2.9.8,4.4-.2.2-.2.5-.3.6-.2.4-.3.9,0,1.3,0,0,.1.1.2.2,0,.2,0,.3.2.3v.7c.2.4.5.7.8,1,0,.3.3.6,0,1v.3s.2,0,.2.2h.2c0,0,.1-.1.2-.2h.2c.2.2.4.6.3.8,0,.2.2.7.2.8.4.1,1.2.2,1.6.5.5.6,1.2,1.1,2,1.5.7,1.7,2,1.6,3.6,1.8,1.7.5,2.2-1,4.1.2.4.5.9.6,1.5,1.1.2,0,.5.2.6.2.2-.2.3-.2.5-.3.2,0,.7-.3.8,0,0,.2.2.8.3,1,.7.4,1.3,1,2,1.5,1,0,2.1.7,3.1,1,.6,0,1.2,0,1.8.2,0,.2.2.3.2.6.7.8,1.4,1.7,2.3,2.3.5,0,1,0,1.6,0,.4.1.8.3,1.1,0,2.1-.4,3.3,0,5,1.1.5.3,1.1.7,1.6,1,.5.7,1,1.5.7,2.4-.2,0-.2.2-.3.2,0,.6.2,1.1.7,1.5.3.6.2,1.7.8,2.1,0,1.1.2,2.4.2,3.6h-2.3c.2.2.3.2.3.3.7,1,1.5,1.6,2.1,2.6,0,2,.5,4,.5,6,4,0,8.2.3,12.2.5.3,0,.9-.1,1.1-.3h.2v1.6c-.3.3-.7.8-1,1.1,0,1.5.5,2.9.7,4.4.9.8,1.9,1.4,2.9,2.1.4.1.8.2,1.1,0,.2.2.2.3.3.5-.1,1,.6,2,.8,2.9.3.9.5,1.7,1.3,2.1v.2h-.3c-.7,1.7-1.2,3.5-1.8,5.2h.3v1c-.2,0-.3,0-.5,0-1,1.7-1.6,3.6-2.6,5.4.8.5,1.4,1.2,2.1,1.8,0,.2-.2.2-.2.3-.6.2-1,.1-1.3.8,0,.2-.2.2-.2.3.3.8.2,1,0,1Z"/>
      <path class="cls-2" d="M184,274.5c.3,0,.7,0,1,.2h0c.2-.3.4-.7.8-1l.3-.3h.3s.2-.2.2-.2h.2c.8-.4,1.5-.3,2.1-.1h.1s0,0,0,0c.3.1.7.3,1,.6,0,0,0-.1,0-.2,0-.5,0-.9.3-1.3v-.2c0,0,.2-.1.2-.1.2-.2.4-.3.5-.4h0s0,0,0,0c0,0,0,0,0,0v-.4l.5-.3c.7-.4,1.2-.5,1.8-.6h.1c.4-.6.7-.8,1-.9,0,0,.1,0,.2,0,0,0,0,0,0-.1v-.3l1-.9h.2c1.2-2.3,1.3-5.2,1.3-8.1,0-.3,0-.6,0-.9v-.2s0-.2,0-.2c.2-.4.4-.8.6-1.2.3-.4.6-.9.5-1.1v-.3c0,0,0-.3,0-.3.1-.9.4-1.8.6-2.7.3-1.1.6-2.1.7-3.1-.3-.7-.4-1.4-.2-2.1-.2-.1-.4-.3-.6-.5-.3-.1-.5-.2-.7-.4,0,0-.2,0-.3.1-1.4.8-2.6,1.2-3.9,1.4h-.3s-.3-.1-.3-.1c0,0-.3-.1-.9-.2h-.9c0-.1,0-.6,0-.6h0s-.2-.2-.2-.2v-.2c-.2-.3-.3-.9-.3-1.4,0-.2-.1-.4-.1-.6-.5-.6-.8-1.4-.7-2.4v-.4s.1,0,.1,0v-.2c-.1,0-.1-1.3-.1-1.3,0,0,0,0,0,0h0s0,0,0,0v-.2c-.3-.4-.3-.8-.3-1.1,0-.2,0-.3,0-.4v-.2c0,0,0-.2,0-.2,0-.5,0-.9,0-1.2l-.3-.3c-.3-.3-.4-.6-.4-.8l-.2-.2v-.9s0,0,0,0h0c-.2,0-.4-.1-.6-.1-.5,0-1-.1-1.5,0h-.5c0,0-.2-.2-.2-.2h-.8s0-.6,0-.6c0,0-.2-.1-.3-.2-.1.2-.3.4-.5.6l-.3.2h-.3c-.2,0-.5,0-.7,0-.5,0-1,.2-1.6,0h0c-.2,0-.4-.1-.6-.1-.3,0-.6-.1-.8-.2h-.1s-.1,0-.1,0c-.2,0-.4,0-.5,0l-.4.2-.4-.2c-.2,0-.5,0-.9,0-.2,0-.3,0-.5,0h-.4s-.6-.6-.6-.6h0s-.2.2-.2.2h-.4c-.6.1-1.1,0-1.5-.2h-.4c0-.1-.2-.5-.2-.5-.5-.9-.2-1.6,0-2,0-.3,0-.6,0-.8,0,0,0,0,0-.1v-1.2c0,0,.3,0,.3,0,0-.1,0-.3,0-.4,0-.5,0-1.3.4-1.9h0c0-.3-.2-.6,0-1h0c0-.1,0-.2,0-.2.2-.6.3-1.2.2-1.8l-.2-.2v-.3c-.1-.2-.1-.4-.1-.5v-.8c-.7-.7-.8-1.6-.8-2.2h0c0,0-.3-.4-.3-.4v-.3s0,0,0,0l-.5-.5v-.5c0-.1,0-.2,0-.5h0c-.1-.1-.3-.1-.5-.1h-1c0,0-.2-1.1-.2-1.1,0-.2,0-.5,0-.7-1.4-.8-2.8-1.7-4.2-2.5-.6-.4-1.3-.8-1.9-1.2-5-.3-10,.7-14.9,1.8-1.2.3-2.4.5-3.6.7-.8,2.4-1.9,4.5-3.5,6.6.2,3.9-1,7.5-2.1,11.1-.2.5-.3,1.1-.5,1.6,2.2,1.3,3.1,2.8,3.9,4.2.9,1.5,1.6,2.8,3.9,3.9l.6.3v.4c.2,0,.3.2.5.3.8.4,1.7.9,2.4,1.6l.2.2v.2c.6,1.2,2.6,1.6,4.6,1.9,1.4.2,2.7.4,3.7,1h0c1,.7,1.9,1.3,2.7,2,.8.6,1.6,1.2,2.5,1.8.8.5,1.7.9,2.6,1.3,1.2.5,2.4,1,3.4,1.8.4,0,.8,0,1,0,0,0,.2,0,.2,0h.2s.2,0,.2,0c2.2.9,3.5,2.5,4.5,3.9h0c0,.1,0,.2,0,.2.1.4.3.9.2,1.5v.3s-.3.2-.3.2c-.4.5-.9.9-1.3,1.2,0,0,0,.2,0,.2h0s0,.3,0,.3l-.2.2c-.5.5-.6.8-.6,1.1v.4s-.3.3-.3.3c-.3.3-.8.7-1.2,1v.4s-.3.4-.3.4c0,.1-.2.2-.3.3-.1.4,0,.8,0,1.4,0,.3,0,.6,0,.9v.5s-.3.4-.3.4c0,.3-.1.6-.3.9l-.2.3v.2l-.3.3c-.4.4-.7.6-1,.7,0,0-.1,0-.2,0,0,0,0,0,0,.1v.3s-.3.3-.3.3c0,0,0,.1-.1.2,2.4-.2,4.6.3,6.8.8.9.2,1.9.4,2.8.6h0c.6-.2,1.8-.6,2.7,0,0,0,.2,0,.3,0,.2,0,.5,0,.8,0ZM184.6,277.2l-.6-.6c-.1,0-.3,0-.5,0-.3,0-.7.1-1.1,0h-.4s-.3-.3-.3-.3c-.1,0-.6.1-.9.2,0,0-.2,0-.3,0h-.2c0,0-.3,0-.3,0-1.1-.2-2.2-.4-3.3-.7-2.5-.6-4.9-1.2-7.4-.5l-.9.2-.4-1.1c-.2-.5-.5-1.3,0-2.2h0c0-.1.1-.3.1-.3.1-.1.3-.3.5-.4,0,0,0,0,0-.1,0,0,0-.1,0-.2v-.2l.2-.3c.2-.3.4-.4.6-.6h0c0,0,1.1-1.2,1.1-1.2v-.4s.3-.3.3-.3c0,0,0-.2,0-.2-.1-.9-.2-2,.4-3h0s0-.1,0-.1v-.2c.2-.2.2-.3.3-.4h0c0,0,.1-.4.1-.4l.3-.2c.3-.2.6-.4.8-.6.1-.8.5-1.3.9-1.8,0,0,0,0,0,0v-.5c-.1,0,.4-.4.4-.4.3-.2.7-.5,1-.9h0c-.8-1.2-1.8-2.4-3.3-3-.1,0-.2,0-.3,0h0c0,0-.5,0-.5,0-.3,0-.5,0-.7-.2h-.2l-.3-.3c-.8-.7-1.9-1.2-3.1-1.6-1-.4-2-.8-3-1.5-.9-.6-1.8-1.2-2.6-1.9-.8-.6-1.6-1.2-2.5-1.8-.7-.4-1.8-.5-3-.7-2.4-.4-5.1-.8-6.1-2.9-.5-.5-1.1-.8-1.8-1.2-.4-.2-.8-.4-1.1-.7l-.5-.3v-.3c-2.5-1.3-3.4-3-4.2-4.5-.8-1.4-1.5-2.6-3.6-3.7l-.6-.3v-.4s-.3-.3-.3-.3l.2-.6c.2-.8.5-1.5.7-2.3,1.2-3.6,2.3-7,2-10.6v-.4s.2-.3.2-.3c1.7-2.1,2.8-4.3,3.6-6.8l.2-.6h.6c1.4-.4,2.8-.7,4.2-1,5.1-1.1,10.4-2.2,15.8-1.8h.3s.2.2.2.2c.7.4,1.4.9,2.2,1.3,1.5.9,3,1.9,4.5,2.7h.3c0,.1.1.4.1.4.2.3.2.6.3.9.6,0,1.2.2,1.5.7.3.3.4.7.3,1.2,0,.2,0,.4.1.6l.3.3v.3s0,0,0,0l.3.3v.2l.2.2v.5c0,.3,0,.6,0,.8h.7s0,.9,0,.9c0,.1.2.4.2.7v.2h.1c0,.1-.1.7-.1.7h0c.3,1.1.3,2.3-.1,3.3h0c0,.2,0,.2,0,.3h0v.3c0,.3,0,.5-.2.7v.3l-.3.3c0,0,0,.4,0,.6,0,.5,0,1-.2,1.5,0,.2,0,.3-.1.4l.3.3-.2.6h0c.5,0,.8.1,1,.2,0,0,.2,0,.3,0h.4s.4.5.4.5c.4,0,.9,0,1.4.1.5-.1,1,0,1.5,0,.3,0,.6.1.9.2.2,0,.3,0,.5.1.3,0,.6,0,.9,0,.1,0,.3,0,.4,0,0,0,0-.2.1-.3,0,0,0-.1,0-.1v-.3l.5-.3c.5-.3,1-.4,1.4-.2.6.2.9.7,1.1,1h0c0,0,.7.2.7.2v.3c.4,0,.8,0,1.2,0,.3,0,.6,0,.9,0h.4s.3.3.3.3c.4.3.5.5.7.8,0,0,0,.1.1.2l.2.3v.9s0,0,0,0h.8s0,.8,0,.8h.1c0,.1,0,.5,0,.5,0,.5,0,.8-.1,1.1,0,.2,0,.3,0,.4.1.3.1.6.2.8,0,.1,0,.2,0,.3,0,.1.1.2.2.3h0s.3.3.3.3v1.5c.2.5.3,1.2,0,1.8,0,.4.1.4.2.5l.5.3v.6c0,0,0,.1,0,.2l.2.2v.5c0,0,0,.3,0,.5.3,0,.6.1.8.2.9-.1,1.8-.5,2.9-1.1l.3-.2c0,0,.2,0,.2-.1.2-.1.5-.2.7-.2h.2s.2,0,.2,0c.3.1.5.2.7.4.1,0,.3.2.4.2h.4c0,0,.2.4.2.4.1.1.2.2.5.4.2.1.6.3.9.6l1,1-1.2.7c0,0,0,.4.2.6l.2.3v.3c0,1.4-.4,2.7-.8,3.9-.2.7-.4,1.4-.5,2.2.2,1.1-.4,2-.8,2.7-.1.2-.3.4-.4.6,0,.2,0,.5,0,.7,0,3.1,0,6.6-1.8,9.5l-.3.5h-.5s0,0,0,0v.2l-.2.3c-.4.5-.8.7-1,.8h0s0,.6,0,.6l-.8.2c-.3,0-.6.1-.8.2-.3,0-.5.1-.7.2v.2s-.3.3-.3.3c-.2.3-.4.5-.6.6h0c0,.2,0,.3,0,.4v.3s-.1.3-.1.3c-.3.5-1,2-2.6,1.7h-.4c0,0-.2-.4-.2-.4-.1-.2-.4-.3-.6-.4-.3,0-.4,0-.6,0-.2.1-.4.3-.6.4-.1.2-.3.4-.4.6,0,.2-.2.3-.3.5l-.3.5h-.4c-.1,0-.4.2-.7.2h-.4Z"/>
      <path class="cls-1" d="M173.5,217.2c.1.3.2.6.2,1q.2.2.3.3c0,.2.2.3.2.5,0,0,.1.1.2.2,0,.2.2.3.2.3,0,.6,0,1.3.5,1.8.2,0,.2.2.3.2,0,.2.2.3.2.5,0,0-.1.1-.2.2q0,.2,0,.3c0,0,.1.1.2.2,0,.2-.2.3-.2.5,0,0,.1.1.2.2.3.9.2,1.9-.2,2.8,0,.3,0,.5.2.8,0,.2-.2.3-.2.5-.7.7,0,1.9-.5,2.6,0,.2,0,.3-.2.3,0,.3-.1.7.2,1-.2.6-.5.9-.2,1.6.3.1.6.2,1,.2.2-.2.3-.2.3-.3.4,0,.5.1,1,.2.2.2.3.3.5.5.6,0,1.2,0,1.8.2.4-.2.9-.2,1.3,0,.5,0,1,.2,1.5.3.7,0,1.4-.2,2.1-.2.3-.2.3-.7.5-.8,0-.2.2-.2.2-.3,1.1-.6.8.8,1.6,1,0,.2.2.2.2.3.2,0,.3.2.3.2.9,0,1.7.1,2.6.2.4.4.4.4.6.8v.8c.2.2.2.5.3.6.2,0,.3.2.5.2,0,.2.2.3.2.3,0,.6-.3.9-.2,1.6.2.5.1,1,.3,1.5.2.2.2.3.3.5,0,.5,0,.8,0,1.3.2.3.3.9,0,1.1,0,.7,0,1.4.6,1.8,0,.3,0,.6.2.8,0,.3,0,.9.2,1.3.2.2.3.2.3.3.3,0,.9.1,1.3.3,1.3-.2,2.5-.6,3.6-1.3.2,0,.2-.2.3-.2s.2-.2.3-.2c.4.2.9.6,1.3.6.4.5.9.6,1.5,1.1-.7.5-.5,1.5-.2,2.1,0,2.1-1,4.1-1.3,6.2.4,1.1-.8,2.1-1.2,3.1,0,3.3,0,7-1.7,9.9-.2,0-.3.2-.5.2q-.2.2-.3.3c0,.2-.2.3-.2.5-.4.6-.9.4-1.3,1v.3c-.8.2-1.4.2-2.1.7,0,.2-.2.3-.2.5-.2.2-.2.3-.3.3-.2.2-.3.2-.5.3-.2.3-.2.8-.2,1.1-.3.5-.7,1.3-1.5,1.1-.3-.4-.7-.6-1.1-.8-.5-.1-1-.2-1.5,0-.2.2-.3.3-.7.3-.4.3-.7,1-1,1.5-.2,0-.3.2-.5.2-.2-.2-.3-.3-.5-.5-.7-.3-1.4,0-2.1,0-.6-.7-1.6-.2-2.3,0-3.7-.6-7.2-2.2-11-1.2-.2-.5-.4-1-.2-1.5.2-.2.3-.3.5-.3.2-.2.2-.3.3-.5,0-.2.2-.3.2-.5.4-.6.8-.4,1.3-1q0-.2-.2-.3c0,0,.1-.1.2-.2.2,0,.2-.2.3-.2.2-.3.2-.5.2-.8,0,0,.2-.2.3-.3,0-1-.4-2.1.2-3.1,0,0,.2,0,.2-.2,0,0,.1-.1.2-.2,0-.4,0-.4.2-.6.4-.2,1.1-.7,1.3-1,0-.7.3-1.2.8-1.8,0-.2.2-.4.2-.6.5-.4,1-.8,1.5-1.3,0-.3,0-.7-.2-1-1.1-1.5-2.2-2.8-4-3.5-.5,0-.9-.3-1.1,0-.2,0-.3-.2-.5-.2-1.7-1.5-4.2-1.9-6.2-3.2-1.9-1.2-3.3-2.5-5.2-3.7-2.4-1.2-7.6-.5-8.8-3.4-.9-.9-2.1-1.4-3.2-2.1v-.3c-5.1-2.5-3.6-6.1-8.4-8.4v-.2c0,0-.1-.1-.2-.2,1.3-4.4,3.2-8.7,2.8-13.3,1.7-2.2,3-4.5,3.8-7.2,6.5-1.2,13.1-3.1,19.7-2.6,2.2,1.3,4.5,2.8,6.7,4,.2.4.3,1,.3,1.5,1.8-.2,1.8.3,1.6.8Z"/>
      <path class="cls-2" d="M195.2,338.5c.7,0,1.3.1,1.9.2.6-.3,1.1-.5,1.6-.8.6-.3,1.1-.5,1.7-.8.2-.2.4-.4.5-.5,0,0,0,0,0,0l.3-.3h.8c.5-.6,1.4-1.5,2.3-2.2.3-1,1-1.9,1.5-2.6.2-.2.3-.4.5-.6,0-.2.1-.4.2-.6,0-.4.2-.8.4-1.1h0c-.7-.5-.6-1.6-.6-2.1,0,0,0-.2,0-.2h0c0,0,0-.3,0-.3,0-.3,0-.7,0-1.1,0-1,0-2,.5-3v-.2c.1,0,.4-.1.4-.1.6-.4,1.1-.9,1.6-1.6l.2-.3c0,0,.1-.1.2-.2-1-.3-1.9-.9-2.8-2l-.2-.2v-.3c-.2-.5-.4-1.1-.6-1.7,0-.2-.1-.4-.2-.6,0,0-.1-.2-.2-.2-.1,0-.3-.2-.5-.3-.1,0-.2-.1-.3-.3-2.1-.4-3.3-1.2-4.5-3.1h0c0-.1,0-.3,0-.3-.1-.4-.5-.6-1.4-.9-.5-.2-1.2-.4-1.7-.8h-.1c0,.1-.7-.2-.7-.2,0,0-.2,0-.3-.1-.5-.2-1.1-.5-1.5-1.2,0,0-.2-.2-.3-.3h0s-.3-.3-.3-.3v-.3s0-.1,0-.2c0,0,0-.1-.1-.2l-.5-.5h-.5c0,0,0,.1-.2.1-.5,1-1.8,1.5-2.8,1.4h-.9c0-.1,0-1,0-1,0-.7,0-1.2.1-1.7,0,0,0-.1,0-.2-.8-1.1-1.9-2.1-3-3.1-.7-.6-1.3-1.2-2-1.9h0c-.2-.3-.5-.4-1.2-.3,0,0-.2.2-.2.3-.1.2-.3.5-.5.8l-.3.3h-.5c-1,0-1.9,0-2.7-.1-.2.5-.5.8-.8,1.2-.2.3-.4.5-.5.7.2.9.5,2,0,3.1v.2c0,0-.1,0-.1,0h0s0,.2,0,.2c0,.6,0,1.1-.1,1.6h0c0,.9-.4,1.5-.8,1.9,0,.1-.2.3-.3.4.6.8.3,1.6.1,2.2,0,.2-.1.3-.1.4v.4s-1,1-1,1h0s0,.2,0,.2c0,.5,0,1-.1,1.4,0,.1,0,.2,0,.3,0,0,0,0,0,0l.3.3v1.4s-.2.3-.2.3c-.2.3-.3.5-.4.7.2.6.3,1.2.3,1.8,0,.5.1,1,.3,1.4h0c0,.1,0,.2,0,.2.2,1.3-.8,2.4-1.2,3l-.3.4h-.5c0,.3-.1.6-.2.9-.5,2.7-.6,4.4.9,5.6h.1c.2.3.4.6.7.8.6.6,1.3,1.3,1.8,2.2,1.5-.3,2.9-.3,4.4-.3h.5s.3.4.3.4c1,1.3,2.6,1.8,4.6,2.3h.5c0,.1.2.6.2.6,0,.1,0,.2.2.3,0,0,0,0,0,0,.9.2,1.6,0,2.6-.4,1.2-.4,2.7-1,4.8-.3h.2c0,0,.2.3.2.3.1.1.2.2.4.3,0,0,.1.1.2.2ZM197.3,341h-.4c-.7-.3-1.4-.4-2.1-.4h-.5s-.3-.3-.3-.3c-.1-.1-.2-.2-.4-.3-.1,0-.3-.2-.4-.3-1.3-.3-2.2,0-3.2.4-1.2.4-2.6,1-4.4.3h-.4c0-.1-.2-.5-.2-.5,0-.1,0-.2-.2-.3h0c-1.8-.5-3.6-1.2-4.9-2.6-1.4,0-2.8,0-4.1.4h-.6c0,.1-.9-.8-.9-.8v-.3c-.3-.7-.8-1.2-1.4-1.8-.2-.2-.5-.5-.7-.7-2.6-2.2-2.1-5.2-1.6-7.6,0-.5.2-.9.2-1.4v-.3s.2-.2.2-.2c.4-.5.9-.7,1.3-.7.3-.4.4-.7.4-.8-.2-.6-.3-1.2-.4-1.8,0-.6-.1-1.1-.3-1.5l-.2-.4v-.4c.3-.5.5-.8.7-1.3,0,0,0,0,0,0h0s-.2-.2-.2-.2v-.4c0-.5,0-.9,0-1.2,0-.2,0-.4,0-.6-.2-.6-.2-1.1.1-1.7v-.2c0,0,.2-.1.2-.1.2-.2.4-.4.7-.5h0c0-.2,0-.4.2-.6,0,0,0-.2,0-.3l-.5-.5v-.5c.1-.7.5-1.3.8-1.8.2-.3.4-.6.4-.8v-.2s0-.2,0-.2c0-.3.1-.6.1-.8h0c0-.3-.2-.7-.1-1.2l.2-.9h.3c0-.4-.1-.8-.2-1.3v-.6c-.1,0,0-.3,0-.3.2-.8.7-1.3,1-1.8.4-.5.6-.8.6-1.1v-.5s1.4-1.4,1.4-1.4l.8.8c.1.1.2.2.4.4.5,0,.9,0,1.4,0h0c.3-.5.6-1.2,1.6-1.5h.2c.9,0,2.1-.2,3.1.9.6.6,1.3,1.2,1.9,1.8,1.2,1.1,2.5,2.3,3.5,3.8l.2.3h.4s0,0,0,0v-.5s.8-.2.8-.2c.5-.1.9,0,1.1.2h.2s2,2,2,2v.2s.2.2.2.2v.2h.1s0-1.9,0-1.9l2,3.2c.2.4.8.6,1.5.8,1,.3,2.3.8,2.8,2.2.9,1.4,1.6,1.8,3.4,2.1h.3c0,0,.2.3.2.3h0s0,0,0,0l.3.4s.1,0,.1,0c.1,0,.2,0,.4.2l.4.2h0s.1.1.1.1v.3s0,.3,0,.3c0,.3.2.6.3.8.2.6.4,1.1.6,1.7.7.7,1.3,1.1,1.9,1.2h.3c0,0,.8.9.8.9h0c.7,1.2,0,2.1-.3,2.4,0,0-.1.1-.2.2h0c0,.1-.2.4-.2.4-.5.7-1.1,1.3-1.9,1.9-.2.5-.1,1.1-.1,1.7,0,.4,0,.8,0,1.2,0,.2,0,.4,0,.7,0,0,0,.2,0,.3,0,0,.2.2.2.2,0,0,.1,0,.2.2h2.2s-1.8,1.8-1.8,1.8c0,0,0,0-.1.1l-.2.2c-.1.1-.2.5-.3.8,0,.3-.2.7-.4,1v.2c-.3.3-.5.5-.7.8-.5.7-1.1,1.3-1.2,2v.4c0,0-.4.3-.4.3-.8.6-1.8,1.5-2.6,2.5l-.3.4h-.9s0,0,0,.1l-.2.3h-.3c-.7.5-1.3.8-2,1.1-.7.3-1.3.6-1.9.9l-.4.2Z"/>
      <path class="cls-1" d="M208.5,329.1c-.2.2-.3.2-.3.3-.5.5-.5,1.5-.8,2.1-.6.9-1.8,2-2,3.3-1,.7-2,1.7-2.8,2.6-.3,0-.5,0-.8,0-.2.2-.5.3-.7.7-1.3.7-2.6,1.2-3.9,1.8-.8-.2-1.6-.3-2.4-.3-.3-.3-.6-.5-1-.8-3.5-1.1-4.8,1.7-7.8.6-.2-.3-.3-.5-.5-.8-2-.5-3.9-1.1-5.2-2.7-1.6,0-3.3,0-4.9.4q-.2-.2-.3-.3c-.4-1.3-1.5-2.1-2.4-3-2.6-2.1-1.5-5.3-1.1-8.1.3-.4.6-.3,1-.3.5-.5,1.1-1.3,1-2.1-.5-1.1-.2-2.5-.8-3.6.2-.5.3-.8.7-1.3,0-.2,0-.5,0-.6-.2-.2-.2-.3-.3-.5,0-.6.2-1.2.2-1.9-.2-.4-.2-.6,0-1,.2-.2.3-.3.5-.3.2-.2.3-.3.5-.5,0-.6.6-1.4.2-1.9q-.2-.2-.3-.3c0-1,1.1-1.6,1.2-2.6,0-.5.2-1,.2-1.5,0-.3-.2-.5-.2-.8.2,0,.3-.2.3-.2.4-.9,0-1.9-.1-2.8.3-1.3,1.8-1.9,1.6-3.3q.2-.2.3-.3c.2.2.3.3.5.6.9.1,1.7.2,2.6.1.5-.5.5-1.3,1.3-1.5.9,0,1.6,0,2.3.6,1.9,1.9,3.9,3.3,5.3,5.4,0,.8-.2,1.3-.2,2.1.6,0,1.6-.3,1.8-1,.2-.2.3-.2.3-.3.2,0,.2-.2.3-.2q0-.2.2-.3c0-.2.2-.2.2-.3.2,0,.3.1.5.2.5.5,1,1,1.5,1.4,0,.2.2.3.2.3,0,.2.2.3.2.5.2.2.2.3.3.3.2.7.8.8,1.5,1.1.2-.2.3-.2.3-.3.9,1.5,3.7,1,4.2,2.9,1.1,1.8,2.1,2.4,4.2,2.7.2.2.2.3.3.3.3.3.5.3.8.5,0,.2,0,.3.2.3.3.9.8,1.8.9,2.7.7.8,1.6,1.6,2.7,1.7.2.2.3.3.5.5.4.6-.2.8-.5,1.3-.6.8-1.2,1.6-2.1,2.1-.6,1.1-.2,2.5-.4,3.7,0,.3-.2,1.5.1,1.6.2.2.3.2.3.3.2.2.3.2.5.3q0,.2.2.2Z"/>
    </g>
  </g>
</svg>