<svg width="17" height="18" viewBox="0 0 17 18" fill="none" xmlns="http://www.w3.org/2000/svg">
<path d="M0.545117 17.8887V5.88867H3.87324V17.8887H0.545117ZM2.21699 4.3418C1.7222 4.3418 1.29772 4.17773 0.943555 3.84961C0.594597 3.51628 0.420117 3.11784 0.420117 2.6543C0.420117 2.19596 0.594597 1.80273 0.943555 1.47461C1.29772 1.14128 1.7222 0.974609 2.21699 0.974609C2.71178 0.974609 3.13366 1.14128 3.48262 1.47461C3.83678 1.80273 4.01387 2.19596 4.01387 2.6543C4.01387 3.11784 3.83678 3.51628 3.48262 3.84961C3.13366 4.17773 2.71178 4.3418 2.21699 4.3418ZM8.76738 10.9512V17.8887H5.43926V5.88867H8.61113V8.00586H8.75176C9.01738 7.30794 9.4627 6.75586 10.0877 6.34961C10.7127 5.93815 11.4705 5.73242 12.3611 5.73242C13.1945 5.73242 13.921 5.91471 14.5408 6.2793C15.1606 6.64388 15.6424 7.16471 15.9861 7.8418C16.3299 8.51367 16.5018 9.31575 16.5018 10.248V17.8887H13.1736V10.8418C13.1788 10.1074 12.9913 9.53451 12.6111 9.12305C12.2309 8.70638 11.7075 8.49805 11.0408 8.49805C10.5929 8.49805 10.1971 8.5944 9.85332 8.78711C9.51478 8.97982 9.24915 9.26107 9.05645 9.63086C8.86895 9.99544 8.77259 10.4355 8.76738 10.9512Z" fill="white"/>
</svg>
